<?xml version="1.0" encoding="utf-8"?>
<!-- Generator: Adobe Illustrator 24.0.0, SVG Export Plug-In . SVG Version: 6.00 Build 0)  -->
<svg version="1.1" id="Layer_1" xmlns="http://www.w3.org/2000/svg" xmlns:xlink="http://www.w3.org/1999/xlink" x="0px" y="0px"
	 viewBox="0 0 4000 4000" style="enable-background:new 0 0 4000 4000;" xml:space="preserve">
<style type="text/css">
	.st0{fill:#FFFFFF;}
	.st1{opacity:0.25;}
	.st2{fill:#371A45;}
	.st3{fill:#D5D4D6;}
	.st4{opacity:0.7;}
	.st5{fill:none;stroke:#371A45;stroke-width:24.4165;stroke-linecap:round;stroke-miterlimit:10;}
	.st6{fill:#E81818;}
	.st7{fill:#E7A900;}
	.st8{fill:#FFFD01;}
	.st9{fill:#FF006F;}
	.st10{opacity:0.3;}
	.st11{opacity:0.6;}
	.st12{fill:#A300BF;}
	.st13{fill:#FFDA00;}
	.st14{filter:url(#Adobe_OpacityMaskFilter);}
	.st15{filter:url(#Adobe_OpacityMaskFilter_1_);}
	.st16{mask:url(#SVGID_1_);fill:url(#SVGID_2_);}
	.st17{opacity:0.7;fill:url(#SVGID_3_);}
	.st18{filter:url(#Adobe_OpacityMaskFilter_2_);}
	.st19{filter:url(#Adobe_OpacityMaskFilter_3_);}
	.st20{mask:url(#SVGID_4_);fill:url(#SVGID_5_);}
	.st21{opacity:0.7;fill:url(#SVGID_6_);}
	.st22{opacity:0.35;}
	.st23{fill:#1D1D1D;}
	.st24{fill:#D66B09;}
	.st25{fill:#32B1D1;}
	.st26{fill:#921FE5;}
	.st27{opacity:0.5;}
	.st28{fill:#111A28;}
</style>
<g>
	<g>
		<g>
			<path class="st0" d="M2782.28,1501.29c65.31,71.54,83.45,356.55,35.04,515.2c-48.42,158.65-337.08,116.37-499.84,80
				c-162.76-36.37-91.84-406.54-70.85-505.32C2279.4,1436.92,2685.5,1395.28,2782.28,1501.29z"/>
		</g>
		<g class="st1">
			<path class="st2" d="M2317.47,2096.49c162.76,36.37,451.41,78.63,499.86-80.01c6.32-20.78,11.53-43.7,15.61-68.05
				c-51.98,26.96-108.98-16.65-108.32-61.57c4.08-277.29-76.29-399.28-117.94-443.71c-151.25-7.34-338.26,45.4-360.04,148.04
				C2225.62,1689.95,2154.7,2060.12,2317.47,2096.49z"/>
		</g>
		<g>
			<path class="st2" d="M2579.83,2146.72c-85.06,0-179.75-15.1-265.91-34.35c-161.73-36.14-121.56-344.18-83.22-524.59
				c13.16-61.93,78.01-111.68,182.61-140.09c131.84-35.81,314.98-29.7,380.99,42.61l0,0c68.85,75.42,89.77,363.22,38.58,530.93
				C2804.06,2115.66,2701.85,2146.72,2579.83,2146.72z M2578.36,1458.47c-50.66,0-105.06,6.67-156.52,20.64
				c-90.89,24.69-148.96,66.77-159.3,115.44c-22.51,105.93-84.83,454.03,58.48,486.05c160.72,35.92,436.9,74.72,480.72-68.86
				c46.72-153.07,29.06-433.15-31.49-499.48C2738.45,1477.42,2663.74,1458.47,2578.36,1458.47z"/>
		</g>
		<g>
			<path class="st0" d="M2714.55,1770.04l78.18-15.16c17.67-3.43,34.39,9.38,35.58,27.35c4.08,61.8,4.4,188.34-59.62,202.07
				c-77.58,16.64-87.29-71.05-78.29-187.28C2691.44,1783.62,2701.37,1772.59,2714.55,1770.04z"/>
		</g>
		<g class="st1">
			<path class="st2" d="M2690.59,1796.85c-9.28,116.2,0.24,203.94,77.85,187.45c31.87-6.73,47.88-41.5,55.39-82.32
				c-8.21,10.53-26.32,33.56-39.57,33.92c-23.85,0.66-44.81-18.95-49.67-86.71C2701.42,1952.18,2691.55,1784.33,2690.59,1796.85z"/>
		</g>
		<g>
			<path class="st2" d="M2750.73,2001.72c-17.19,0-31.85-5.26-43.78-15.73c-30.73-26.99-40.23-83.92-31.74-190.35
				c1.61-20.21,16.69-36.99,36.67-40.82h0l78.22-14.99c12.79-2.45,26.04,0.72,36.33,8.69c10.27,7.95,16.63,19.94,17.45,32.89
				c4.76,74.68,1.7,202.3-72.25,217.98C2764.3,2000.94,2757.33,2001.72,2750.73,2001.72z M2717.67,1785.07
				c-6.41,1.23-11.24,6.58-11.75,13.01c-2.69,33.75-10.88,136.43,21.36,164.75c8.92,7.84,21.33,9.93,37.95,6.42
				c36.91-7.83,54.82-77.32,47.9-185.89c-0.27-4.18-2.25-7.91-5.57-10.49c-3.35-2.6-7.49-3.59-11.67-2.79L2717.67,1785.07z"/>
		</g>
		<g>
			<path class="st2" d="M2734.72,1834.07c1.02,14.54,2.66,29,4.82,43.31c2.18,14.29,4.88,28.48,8.6,42.14
				c3.67,13.51,8.5,27.12,15.32,36.91c3.33,4.87,7.49,7.72,9.58,7.64c0.5,0.28,1.07-0.24,1.48-0.11c0.53-0.16,1.1-0.46,1.67-0.56
				c0.77-0.5,1.43-0.71,2.26-1.17c0.9-0.64,1.79-1.23,2.7-1.75l1.13-0.66c7.81-4.56,17.82-1.92,22.38,5.88
				c4.56,7.8,1.92,17.82-5.88,22.38c-0.7,0.41-1.51,0.79-2.24,1.09c-2.41,0.95-4.83,1.85-7.25,2.68c-2.58,0.75-5.52,1.22-8.24,1.68
				c-3.01,0.16-6.12,0.22-9.17-0.18c-3.11-0.7-6.32-1.17-9.05-2.68c-1.41-0.66-2.79-1.36-4.13-2.09c-1.2-0.83-2.34-1.71-3.47-2.6
				c-2.42-1.74-3.99-3.74-5.75-5.69c-3.25-3.95-5.49-8.01-7.35-11.98c-3.59-7.96-5.53-15.71-7.06-23.36
				c-1.52-7.64-2.35-15.18-2.96-22.67c-1.19-14.97-1.19-29.74-0.68-44.43C2731.95,1863.16,2733.03,1848.56,2734.72,1834.07z"/>
		</g>
		<g>
			<path class="st0" d="M2674.83,1803.91l-3.87,111.36c-13.33,115.42-54.6,201.91-101.75,247.89
				c-67.81,66.06-187.03,73.5-227.54,114.85c-35.54,36.3-35.69,91.12-43.59,147.16c-6.76,47.91-26.69,108.47-76.85,154.75
				c-75.86,69.97-192.19,56.68-244.51-6.91c-59.72-72.67,56.72-204.68,73.01-220.63c0,0-14.85-27.45-28.78-52.28
				c-12.76-22.7-17.35-54.52-14.31-88.5c-86.45,11.39-142.15,163.18-209.62,194.85c-40.21,18.91-133.91,16.86-214.63-122.9
				c-55.85-96.66-53.5-193.48,15.22-227.61c73.2-36.37,137.86,33.45,137.86,33.45s-34.89-319.34,261.48-210.57
				c0,0,37.93-240.37,37.66-480.86l472.69-96.97C2622.47,1488.63,2668.94,1661.19,2674.83,1803.91z"/>
		</g>
		<g>
			<path class="st0" d="M2034.61,1397.95c0.27,240.48-37.66,480.87-37.66,480.87c-296.36-108.78-261.47,210.57-261.47,210.57
				s-64.65-69.84-137.84-33.47c-68.74,34.16-71.1,130.98-15.26,227.63c80.76,139.77,174.43,141.83,214.66,122.92
				c96.84-45.52,169.44-338.28,343.34-108.51"/>
		</g>
		<g>
			<path class="st0" d="M2034.61,1397.95c0.27,240.48-37.66,480.87-37.66,480.87c-296.36-108.78-261.47,210.57-261.47,210.57
				s-64.65-69.84-137.84-33.47c-68.74,34.16-71.1,130.98-15.26,227.63c80.76,139.77,174.43,141.83,214.66,122.92
				c96.84-45.52,169.44-338.28,343.34-108.51"/>
		</g>
		<g>
			<path class="st0" d="M2034.61,1397.95c0.27,240.48-37.66,480.87-37.66,480.87c-296.36-108.78-261.47,210.57-261.47,210.57
				s-64.65-69.84-137.84-33.47c-68.74,34.16-71.1,130.98-15.26,227.63c80.76,139.77,174.43,141.83,214.66,122.92
				c96.84-45.52,169.44-338.28,343.34-108.51"/>
		</g>
		<g>
			<path class="st2" d="M1941.16,2259.91c-1.32,0-2.67-0.22-3.99-0.67c-6.37-2.2-9.75-9.16-7.55-15.53
				c44.91-129.92,5.23-235.13-46.87-290.26c-31.79-33.64-69.25-49.51-97.76-41.43c-6.48,1.84-13.23-1.93-15.08-8.42
				c-1.84-6.49,1.93-13.23,8.42-15.08c37.86-10.75,83.53,7.26,122.17,48.14c57.02,60.34,100.68,174.78,52.2,315.01
				C1950.95,2256.74,1946.22,2259.91,1941.16,2259.91z"/>
		</g>
		<g>
			<path class="st2" d="M1757.02,2136.62l-33.48-36.17c-2.29-2.45-57.47-60.36-118.67-29.94c-7.78,3.86-14.71,8.8-20.59,14.68
				c-6.36,6.35-16.67,6.35-23.02-0.01c-6.35-6.36-6.35-16.67,0.01-23.02c8.37-8.37,18.17-15.36,29.11-20.8
				c51.71-25.7,98.68-6.39,127.53,12.67c0.65-49.5,11.03-136.04,70.86-182.85c46.32-36.24,111.96-40.93,195.28-14.01
				c5.68-36.04,17.57-120.74,22.31-224.71c0.41-8.98,7.94-15.98,17-15.52c8.98,0.41,15.93,8.02,15.52,17
				c-6.41,140.59-25.74,246.79-25.93,247.85l-3.5,18.99l-18.12-6.65c-80.87-29.69-142.27-28.78-182.49,2.7
				c-71.05,55.59-57.31,189.47-57.16,190.82L1757.02,2136.62z"/>
		</g>
		<g>
			<path class="st2" d="M1755.93,2431.17c-6.51,0-13.13-0.47-19.79-1.43c-8.9-1.28-15.08-9.53-13.79-18.43
				c1.27-8.9,9.52-15.12,18.43-13.79c18.01,2.58,36,0.48,49.36-5.79c25.21-11.85,50.57-45.6,77.41-81.34
				c40.71-54.19,86.85-115.62,149.21-115.73c0.06,0,0.11,0,0.17,0c44.2,0,88.84,30.58,136.44,93.48c5.43,7.17,4.01,17.38-3.16,22.8
				c-7.17,5.42-17.38,4.01-22.8-3.16c-40.46-53.46-77.63-80.57-110.49-80.57c-0.04,0-0.07,0-0.1,0
				c-46.13,0.08-85.33,52.26-123.23,102.73c-29.35,39.07-57.07,75.96-89.6,91.25C1789.96,2427.77,1773.37,2431.17,1755.93,2431.17z"
				/>
		</g>
		<g>
			<path class="st3" d="M1755.12,2408.65c-8.6,4.42-18.62,5.04-28.04,2.87c-43.4-10-96.36-44.31-144.7-127.97
				c-41.47-71.73-50.83-143.6-24.79-189.82c7.92-14.05,23.63-22.26,39.69-20.81c32.47,2.94,67.88,21.64,92.1,65.25
				C1731.51,2214.12,1818.02,2376.31,1755.12,2408.65z"/>
		</g>
		<g class="st4">
			<path class="st0" d="M1757.97,2279.71c-17.68-39.79-38.7-78.47-53.91-105.91c-24.23-43.63-59.61-62.32-92.1-65.25
				c-16.04-1.47-31.75,6.76-39.67,20.77c-18.95,33.6-19.17,80.83-1.89,131.65c-31.05-63.94-36.11-125.85-12.83-167.23
				c7.92-14.05,23.63-22.28,39.71-20.82c32.48,2.93,67.87,21.62,92.1,65.25C1709.15,2173.8,1738.7,2228.43,1757.97,2279.71z"/>
		</g>
		<g class="st1">
			<path class="st2" d="M1755.12,2408.64c-8.6,4.44-18.63,5.06-28.05,2.89c-43.04-9.96-95.55-43.8-143.63-126.18
				c30.51,25.61,60.31,39.43,87.08,45.61c11.33,2.63,23.44,1.89,33.79-3.45c40.36-20.73,29.73-85.78,3.28-155.92
				C1751.44,2253.99,1809.87,2380.49,1755.12,2408.64z"/>
		</g>
		<g>
			<path class="st2" d="M1737.48,2429c-4.64,0-9.35-0.53-14.05-1.62c-40.38-9.31-100.08-40.4-155.14-135.69
				c-44.69-77.3-53.99-154.29-24.88-205.95c11.09-19.68,32.8-31.11,55.34-29.03c25.17,2.28,72.26,14.87,104.86,73.56
				c49.68,89.53,104.4,199.87,86.46,258.98c-4.64,15.3-14.15,27.02-27.5,33.88h0C1755,2427.01,1746.4,2429,1737.48,2429z
				 M1755.12,2408.65h0.05H1755.12z M1593.65,2089.03c-8.9,0-17.5,4.91-21.88,12.69c-23.05,40.91-13.59,107.46,24.7,173.68
				c49.22,85.16,100.18,112.4,134.27,120.25c6.25,1.44,12.28,0.92,16.94-1.48l0,0c5.55-2.85,9.12-7.42,11.24-14.38
				c10.77-35.5-17.41-114.13-83.77-233.72c-25.32-45.59-60.57-55.24-79.33-56.94C1595.09,2089.06,1594.36,2089.03,1593.65,2089.03z"
				/>
		</g>
		<g>
			<path class="st2" d="M1558.35,2248.53c-6.05,0-11.88-3.33-14.69-9.1c-3.92-8.02-0.75-17.65,7.23-21.64
				c10.61-5.31,130.52-47.29,154.45-55.65c8.48-2.96,17.77,1.51,20.73,10c2.97,8.49-1.51,17.77-10,20.73
				c-53.95,18.85-142.58,50.2-150.68,54.06C1563.13,2248.01,1560.72,2248.53,1558.35,2248.53z"/>
		</g>
		<g>
			<path class="st2" d="M1588.93,2310.48c-6.03,0-11.85-3.33-14.67-9.07c-3.94-8.02-0.76-17.68,7.23-21.68
				c10.56-5.29,129.94-48.1,153.77-56.63c8.45-3.03,17.78,1.37,20.81,9.84c3.03,8.46-1.37,17.78-9.84,20.81
				c-53.86,19.28-142.26,51.3-150.21,55.12C1593.74,2309.96,1591.32,2310.48,1588.93,2310.48z"/>
		</g>
		<g>
			<path class="st2" d="M1635.04,2371.33c-6,0-11.77-3.31-14.61-9.03c-3.99-8.03-0.77-17.76,7.25-21.77
				c10.49-5.25,112.98-43.1,133.42-50.63c8.43-3.11,17.8,1.21,20.9,9.64s-1.21,17.79-9.64,20.9c-46.42,17.11-122.8,45.6-130.12,49.2
				C1639.92,2370.79,1637.46,2371.33,1635.04,2371.33z"/>
		</g>
		<g>
			<path class="st2" d="M1749,2080.33c5.87,10.34,10.39,19.89,14.88,30.03c4.42,10.03,8.45,20.18,12.03,30.48
				c3.62,10.28,6.88,20.68,9.61,31.21c2.88,10.48,5.03,21.16,7,31.82c0.82,4.43-2.11,8.67-6.53,9.49c-4.07,0.75-8-1.67-9.24-5.51
				l-0.08-0.24c-3.17-9.85-6.48-19.61-10.46-29.14c-3.85-9.56-8.16-18.92-12.79-28.1c-4.59-9.2-9.58-18.18-14.86-26.94
				c-5.21-8.64-11.02-17.56-16.62-24.98l-0.16-0.22c-5.43-7.19-4.01-17.43,3.19-22.86c7.19-5.43,17.43-4.01,22.86,3.18
				C1748.25,2079.1,1748.67,2079.75,1749,2080.33z"/>
		</g>
		<g>
			<path class="st0" d="M1790.13,2022.09"/>
		</g>
		<g>
			<path class="st5" d="M1790.13,2022.09"/>
		</g>
		<g>
			<g>
				<g>
					<path class="st6" d="M3093.4,2563.89c0,0,230.04-177.82,573.26,292.35c16.13,22.09,8,53.39-16.91,64.67
						c-133.8,60.61-516.35,207.41-641.66-29.86L3093.4,2563.89z"/>
				</g>
				<g>
					<path class="st7" d="M3080.11,2610.93c0,0,163.25-126.19,406.65,208.55c10.66,14.65,5.25,35.43-11.24,42.94
						c-92.67,42.24-366.48,148.81-455.73-20.18L3080.11,2610.93z"/>
				</g>
				<g>
					<path class="st8" d="M3057.99,2645.47c0,0,110.15-85.14,274.39,140.72c7.19,9.89,3.54,23.9-7.58,28.98
						c-62.53,28.5-247.29,100.41-307.51-13.62L3057.99,2645.47z"/>
				</g>
				<g>
					<path class="st2" d="M3258.87,3038.81c-127.56,0-216.84-46.85-265.91-139.76c-2-3.78-2.5-8.17-1.43-12.31l85.31-327.16
						c0.95-3.66,3.1-6.91,6.09-9.22c2.58-1.99,64.37-48.66,170.64-33.56c138.05,19.61,281.68,130.42,426.91,329.37
						c10.76,14.75,14.28,33.31,9.64,50.94c-4.62,17.56-16.76,31.92-33.31,39.42c-66.81,30.26-198.4,83.26-329.13,98.19
						C3303.63,3037.43,3280.69,3038.81,3258.87,3038.81z M3026.36,2888.81c51.23,90.93,151.25,128.55,297.43,111.87
						c126.08-14.39,253.91-65.92,318.89-95.36c7.12-3.22,12.34-9.4,14.33-16.95c2-7.61,0.48-15.65-4.18-22.04
						c-173.17-237.22-314.55-302.48-402.66-315.45c-77.83-11.46-127.14,14.3-141.83,23.53L3026.36,2888.81z"/>
				</g>
			</g>
			<g>
				<polygon class="st9" points="2347.67,2546.75 2949.16,2159.28 3173.79,2215.9 2850.21,2673.4 				"/>
			</g>
			<g>
				<polygon class="st9" points="2347.67,2546.75 2693.67,3173.01 2918.3,3229.62 2850.21,2673.4 				"/>
			</g>
			<g class="st10">
				<path class="st2" d="M2347.66,2546.76l502.54,126.66l68.12,556.21l-80.07-20.18l-19.11-156.27
					c-4.52-36.73-29.48-67.73-64.43-79.94c-56.82-19.84-111.27-45.39-162.65-76.11c-28.06-16.82-55.18-35.21-81.23-55.05
					L2347.66,2546.76z"/>
			</g>
			<g class="st10">
				<path class="st2" d="M2347.66,2546.74l502.54,126.66l323.6-457.48l-80.07-20.18l-90.89,128.54
					c-21.39,30.2-58.06,45.66-94.62,39.86c-59.44-9.46-119.49-12.77-179.3-10.07c-32.68,1.51-65.28,4.85-97.62,9.97L2347.66,2546.74
					z"/>
			</g>
			<g class="st11">
				<polygon class="st0" points="2949.16,2159.27 2992.89,2170.3 2406.16,2561.5 2347.66,2546.76 				"/>
			</g>
			<g class="st11">
				<polygon class="st0" points="2347.66,2546.76 2406.16,2561.5 2737.4,3184.03 2693.66,3173 				"/>
			</g>
			<g>
				<path class="st2" d="M2857.06,2691.91l-549.72-138.55l638.95-411.59l254.5,64.14L2857.06,2691.91z M2388.01,2540.12
					l455.36,114.77l303.43-429.01l-194.76-49.08L2388.01,2540.12z"/>
			</g>
			<g>
				<path class="st12" d="M2742.64,2060.19c-9.83,39,133.41,93.81,191.85,107.13l331.75,75.62c20.44,4.66,40.85-7.86,45.98-28.18v0
					l5.22-20.72c5.12-20.33-6.92-41.02-27.13-46.61l-327.97-90.65C2904.58,2040.81,2752.47,2021.19,2742.64,2060.19z"/>
			</g>
			<g class="st11">
				<path class="st0" d="M2962.35,2056.76l34.99,9.68c-68.73-13.13-177.97-21.87-186.25,11.01c-8.28,32.84,92.08,76.93,158.83,97.94
					l-35.44-8.07c-58.43-13.32-201.66-68.13-191.84-107.12C2752.48,2021.18,2904.58,2040.8,2962.35,2056.76z"/>
			</g>
			<g>
				<path class="st2" d="M2937.34,3251.21l-254.5-64.14l-367.55-665.27l549.72,138.55L2937.34,3251.21z M2704.5,3158.95
					l194.76,49.09l-63.85-521.58l-455.36-114.77L2704.5,3158.95z"/>
			</g>
			<g>
				<path class="st12" d="M2464.85,3162.39c9.83-39,161.94-19.38,219.71-3.41l327.97,90.65c20.2,5.58,32.25,26.28,27.13,46.61l0,0
					l-5.22,20.72c-5.12,20.33-25.54,32.84-45.98,28.18l-331.75-75.62C2598.26,3256.2,2455.02,3201.38,2464.85,3162.39z"/>
			</g>
			<g class="st10">
				<path class="st2" d="M2798.65,3190.5l213.87,59.15c20.21,5.56,32.26,26.26,27.14,46.58l-5.22,20.73
					c-5.12,20.32-25.54,32.83-45.99,28.19l-216.53-49.37c67.62,10.42,154.93,14.15,162.3-15.09
					C2941.59,3251.46,2863.09,3213.39,2798.65,3190.5z"/>
			</g>
			<g class="st11">
				<path class="st0" d="M2684.56,3158.96l34.99,9.68c-68.73-13.13-177.97-21.87-186.25,11.01c-8.28,32.84,92.08,76.93,158.83,97.94
					l-35.44-8.07c-58.43-13.32-201.66-68.13-191.84-107.12C2474.69,3123.37,2626.79,3142.99,2684.56,3158.96z"/>
			</g>
			<g>
				<path class="st2" d="M2996.85,3362.36c-3.97,0-8-0.44-12.01-1.35l-331.76-75.62c-47.29-10.78-171.66-54.48-198.74-98.68
					c-7.27-11.85-6.88-21.94-5.27-28.31c1.61-6.37,6.04-15.43,18.06-22.43c44.8-26.06,175.02-5.61,221.77,7.31l327.97,90.65
					c28.5,7.87,45.8,37.6,38.57,66.27l-5.22,20.72C3044,3345.61,3021.41,3362.36,2996.85,3362.36z M2480.66,3166.37
					c0.24,1.3,4.66,17.61,65.12,46.24c41.78,19.78,88.66,35.14,114.53,41.03l331.76,75.62c11.69,2.68,23.64-4.64,26.57-16.29
					l5.22-20.72c2.94-11.65-4.1-23.74-15.68-26.94l-327.97-90.65c-25.58-7.07-74.14-15.77-120.3-18.15
					C2493.11,3153.05,2481.49,3165.34,2480.66,3166.37z"/>
			</g>
			<g class="st10">
				<path class="st2" d="M3076.44,2088.3l213.87,59.15c20.21,5.56,32.26,26.26,27.14,46.58l-5.22,20.73
					c-5.12,20.32-25.54,32.83-45.99,28.19l-216.53-49.37c67.62,10.42,154.93,14.15,162.3-15.09S3140.88,2111.19,3076.44,2088.3z"/>
			</g>
			<g>
				<path class="st2" d="M3274.64,2260.16c-3.97,0-8-0.44-12.01-1.35l-331.76-75.62c-47.29-10.78-171.66-54.48-198.74-98.68
					c-7.27-11.85-6.88-21.94-5.27-28.31c1.6-6.37,6.04-15.43,18.06-22.43c44.79-26.07,175.01-5.61,221.77,7.31l327.96,90.65
					c28.5,7.87,45.8,37.6,38.58,66.27l-5.22,20.72C3321.79,2243.41,3299.2,2260.16,3274.64,2260.16z M2758.45,2064.17
					c0.24,1.3,4.66,17.61,65.12,46.24c41.78,19.78,88.66,35.14,114.53,41.03l331.76,75.62c11.7,2.67,23.64-4.64,26.57-16.29
					l5.22-20.72c2.94-11.65-4.1-23.74-15.68-26.94l-327.96-90.65c-25.58-7.07-74.14-15.77-120.31-18.15
					C2770.91,2050.85,2759.28,2063.14,2758.45,2064.17z"/>
			</g>
			<g>
				<path class="st0" d="M1859.44,1916.12c471.1,118.73,829.71,351.81,968.62,451.82c38.2,27.5,55.76,75.47,44.25,121.11
					l-90.02,357.17c-11.5,45.64-49.7,79.55-96.37,85.66c-169.72,22.22-595.96,57.49-1067.06-61.24
					C769.98,2656.69,393.72,2173.21,421.9,2061.39C450.09,1949.57,1010.55,1702.18,1859.44,1916.12z"/>
			</g>
			<g>
				<path class="st2" d="M2319.63,2970.71c-197.49,0-444.6-18.72-704.74-84.29c-465.91-117.42-764.93-307.42-933.74-446.13
					C479.09,2274.25,389.84,2122,406.12,2057.41c16.28-64.59,167.02-156.36,423.64-206.79c214.38-42.14,567.74-67.71,1033.65,49.72
					c476.33,120.05,839.94,357.76,974.16,454.39c43.9,31.61,63.74,85.89,50.52,138.3l-90.02,357.17
					c-13.21,52.4-56.4,90.8-110.04,97.83C2613.62,2957.76,2483.75,2970.7,2319.63,2970.71z M1212.25,1847.84
					c-152.83,0-279.02,15.63-376.21,34.73c-252.84,49.69-387.18,138.46-398.36,182.8c-11.18,44.35,65.04,186.18,264.13,349.77
					c166.23,136.59,460.96,323.76,921.03,439.71c470.9,118.68,898.84,82.12,1060.97,60.89c40.31-5.28,72.78-34.13,82.7-73.5
					l90.02-357.17c9.92-39.38-4.98-80.16-37.98-103.92c-132.71-95.54-492.2-330.56-963.09-449.24h0
					C1607.17,1869.33,1391.42,1847.84,1212.25,1847.84z"/>
			</g>
			<g>
				<path class="st13" d="M2876.8,2471.26l48.62,12.25c37.58,9.47,60.37,47.63,50.9,85.21l-64.68,256.62
					c-9.48,37.62-47.63,60.37-85.21,50.9l-48.62-12.25L2876.8,2471.26z"/>
			</g>
			<g class="st10">
				<path class="st2" d="M2916.78,2727.79c-9.48,37.62-47.63,60.37-85.21,50.9l-30.33-7.64l-23.43,92.95l48.62,12.25
					c37.58,9.47,75.73-13.29,85.21-50.9l64.68-256.62c4.51-17.91,1.63-35.91-6.62-50.92L2916.78,2727.79z"/>
			</g>
			<g class="st4">
				<path class="st0" d="M2876.79,2471.26l48.63,12.26c37.59,9.47,60.35,47.63,50.89,85.18l-10.7,42.45
					c9.46-37.55-13.3-75.71-50.89-85.18l-48.63-12.26L2876.79,2471.26z"/>
			</g>
			<g>
				<path class="st2" d="M3055.3,2550.04c19.07,4.81,30.62,24.14,25.81,43.21l-65.57,260.17c-4.81,19.07-24.14,30.62-43.21,25.81
					c-6.29-1.59-11.99-4.82-16.57-9.45l-44.11-44.44l64.68-256.62l59.91-18.22C3042.45,2548.6,3049.01,2548.45,3055.3,2550.04z"/>
			</g>
			<g class="st4">
				<path class="st0" d="M3055.29,2550.04c19.07,4.81,30.65,24.13,25.84,43.2l-9.35,37.11c4.81-19.07-6.77-38.39-25.84-43.2
					c-6.3-1.59-12.83-1.43-19.06,0.44l-59.92,18.22l9.35-37.11l59.91-18.18C3042.46,2548.61,3049,2548.46,3055.29,2550.04z"/>
			</g>
			<g class="st4">
				<path class="st0" d="M2971.25,2883.51c19.07,4.81,38.42-6.72,43.23-25.79l9.35-37.11c-4.81,19.07-24.16,30.6-43.23,25.79
					c-6.3-1.59-11.98-4.82-16.58-9.42l-44.12-44.44l-9.35,37.11l44.13,44.4C2959.27,2878.69,2964.95,2881.93,2971.25,2883.51z"/>
			</g>
			<g>
				<path class="st9" d="M1206.89,1831.8c-12.41,127.06-35.88,262.92-71.03,402.38c-36.39,144.39-81.98,279.46-133.41,400.4
					C587.1,2409.46,401.8,2141.07,421.88,2061.4C442,1981.58,733.2,1832.73,1206.89,1831.8z"/>
			</g>
			<g class="st10">
				<path class="st2" d="M1478.61,2790.49c-0.51-0.13-1.03-0.26-1.54-0.39c5.8,1.77,11.7,3.49,17.55,5.24
					c3.8,1.13,7.58,2.28,11.4,3.4c8.23,2.42,16.55,4.8,24.88,7.17c4.11,1.17,8.2,2.36,12.34,3.52c9.09,2.54,18.27,5.03,27.47,7.52
					c3.32,0.89,6.59,1.81,9.93,2.7c12.65,3.36,25.4,6.68,38.27,9.92c471.1,118.73,897.33,83.48,1067.03,61.25
					c15.41-2.02,29.87-7.13,42.78-14.63c26.19-15.22,45.9-40.48,53.61-71.05l90.02-357.17c0.62-2.46,1.12-4.94,1.56-7.41
					c0.29,1.64,0.6,3.28,0.83,4.93c-0.35-2.53-0.75-5.06-1.27-7.56c0-0.03-0.01-0.05-0.02-0.08c-0.51-2.45-1.12-4.88-1.78-7.28
					c-0.21-0.74-0.43-1.48-0.65-2.22c-0.53-1.76-1.09-3.51-1.7-5.24c-0.26-0.74-0.51-1.48-0.79-2.22c-0.87-2.33-1.8-4.64-2.82-6.91
					c-0.07-0.16-0.16-0.32-0.23-0.48c-0.98-2.15-2.04-4.26-3.15-6.35c-0.38-0.71-0.78-1.41-1.17-2.11
					c-0.89-1.59-1.82-3.16-2.79-4.71c-0.42-0.67-0.83-1.35-1.27-2.01c-1.38-2.1-2.8-4.18-4.32-6.2v0
					c-6.85-9.1-15.13-17.27-24.7-24.16c-138.89-100-497.49-333.1-968.59-451.83c-48.82-12.3-96.73-23.09-143.58-32.47
					c407.33,98.96,1012.4,378.1,921.42,739.08c-0.15,0.6-0.31,1.21-0.46,1.81c-22.63,87.63-101.17,149.15-191.59,152.87
					c-91.42,3.77-198.7,4.01-316.59-3.33c69.54-50.77,122.49-125.07,145.13-214.88c51.49-204.33-72.84-412.46-277.17-463.95
					c-204.35-51.5-412.46,72.84-463.96,277.17c-28.68,113.79-2.77,228.72,61.06,317.16
					c-645.23-168.51-1011.65-492.43-1130.25-680.73c-21.08,17.04-34.52,33.25-39.93,47.54
					C458.61,2202.47,795.93,2582.3,1478.61,2790.49z"/>
			</g>
			<g class="st11">
				<path class="st0" d="M966.88,1840.59c-132.33,15.58-243.36,42.76-330.03,73.96c-129.92,46.77-205.09,102.55-214.96,141.71
					c-6.96,27.63,10.79,77.96,54.25,141.3c-24.58-43.98-33.96-78.88-28.58-100.23c10.07-39.97,88.18-97.25,223.12-144.6
					c34.73,16.91,91.52,19.72,151.77,4.36c55.88-14.25,101.65-40.8,125.87-69.68c77.04-10.95,161.97-17.98,254.13-19.4
					c1.59-13.87,3.12-27.69,4.45-41.36C1120.65,1826.83,1040.49,1831.92,966.88,1840.59z"/>
			</g>
			<g>
				<path class="st2" d="M2843.75,2894.69c-7.09,0-14.23-0.88-21.29-2.66l-64.41-16.23l106.94-424.3l64.41,16.24
					c46.23,11.65,74.36,58.74,62.71,104.97l-64.68,256.62c-5.65,22.41-19.68,41.27-39.51,53.11
					C2874.35,2890.54,2859.16,2894.69,2843.75,2894.69z M2797.58,2852.19l32.84,8.28c13.96,3.52,28.45,1.39,40.82-5.99
					c12.36-7.38,21.11-19.14,24.63-33.11l64.68-256.62c7.26-28.82-10.28-58.18-39.1-65.45l-32.84-8.28L2797.58,2852.19z"/>
			</g>
			<g>
				<path class="st2" d="M2981.02,2896.6c-4.18,0-8.43-0.51-12.67-1.58c-9.17-2.31-17.53-7.08-24.16-13.79l-50.58-50.94
					l69.17-274.46l68.7-20.89c9-2.76,18.61-3,27.78-0.68h0c27.73,6.99,44.61,35.24,37.62,62.97l-65.57,260.17
					C3025.4,2880.89,3004.22,2896.6,2981.02,2896.6z M2929.68,2820.4l37.64,37.91c2.48,2.5,5.58,4.27,8.99,5.13
					c10.33,2.6,20.85-3.68,23.45-14.01l65.57-260.17c2.6-10.33-3.68-20.85-14.01-23.45c-3.41-0.86-6.98-0.77-10.33,0.25
					l-51.13,15.55L2929.68,2820.4z"/>
			</g>
			<g>
				<path class="st9" d="M1941.5,2069.12c73.26,18.46,135.75,57.76,182.75,109.95c79.04,87.83,114.27,212.12,83.23,335.28
					c-26.97,107.01-98.38,191.04-189.61,237.38c-76.18,38.72-166.22,51.14-255.63,28.6c-196.42-49.5-315.52-248.82-266.02-445.24
					S1745.08,2019.62,1941.5,2069.12z"/>
			</g>
			<g class="st11">
				<path class="st0" d="M2218.4,2405.25c-11.52-69.56-42.92-134.16-89.6-186.03c-46.99-52.19-109.49-91.49-182.76-109.94
					c-196.41-49.53-395.77,69.55-445.27,265.95c-8.79,34.94-12.26,69.94-10.89,104.2c-7.95-48.15-6.33-98.66,6.37-149.02
					c49.5-196.41,248.83-315.45,445.27-265.95c73.24,18.45,135.73,57.75,182.72,109.94
					C2180.81,2237.26,2214.94,2318.81,2218.4,2405.25z"/>
			</g>
			<g class="st1">
				<path class="st2" d="M2207.49,2514.35c-26.97,107.01-98.38,191.05-189.61,237.37c-76.19,38.72-166.22,51.14-255.65,28.62
					c-172.53-43.47-285.39-202.54-276.74-373.74c32.45,125.69,130.82,230.2,265.62,264.16c89.4,22.56,179.43,10.14,255.62-28.58
					c91.23-46.35,162.63-130.39,189.6-237.4c6-23.88,9.56-47.78,10.72-71.45C2221.93,2390.83,2223,2452.72,2207.49,2514.35z"/>
			</g>
			<g>
				<path class="st2" d="M1851.84,2806.92c-30.83,0-62.13-3.76-93.36-11.63c-98.98-24.95-182.32-86.95-234.67-174.57
					c-52.35-87.63-67.44-190.4-42.5-289.38c51.5-204.33,259.62-328.67,463.95-277.17l0,0c204.33,51.5,328.66,259.63,277.17,463.96
					C2178.81,2691.22,2022.75,2806.92,1851.84,2806.92z M1851.25,2073.25c-62.66,0-124.38,16.89-179.57,49.87
					c-80.57,48.13-137.57,124.75-160.5,215.75c-47.35,187.85,66.97,379.2,254.82,426.55c187.86,47.33,379.21-66.97,426.55-254.82
					c47.35-187.85-66.97-379.2-254.82-426.55C1909.08,2076.82,1880.06,2073.25,1851.25,2073.25z"/>
			</g>
			<g>
				<path class="st12" d="M2111.73,2490.22c-22.52,89.46-87.6,156.94-168.2,186.37c-30.06,10.96-62.32,16.64-95.3,16.18
					c-20.45-0.31-41.18-2.95-61.86-8.16c-17.47-4.39-34.07-10.44-49.74-17.89c-44.19-20.95-80.76-53.22-107.03-92.26
					c-41.02-60.94-56.94-138.38-37.58-215.21c21.86-86.76,83.75-152.87,161-183.59c43.42-17.32,91.65-23.41,140.4-15.68
					c7.96,1.24,15.96,2.85,23.97,4.88c15.41,3.88,30.18,9.03,44.21,15.33c44.21,19.77,81.13,50.72,108.18,88.51
					C2114.03,2330.52,2131.79,2410.72,2111.73,2490.22z"/>
			</g>
			<g>
				<path class="st12" d="M2119.59,2438.04c-0.88,17.29-3.47,34.75-7.86,52.19c-22.52,89.46-87.6,156.94-168.2,186.37
					c-30.06,10.96-62.32,16.64-95.3,16.18c-20.45-0.31-41.18-2.95-61.86-8.16c-17.47-4.39-34.07-10.44-49.74-17.89
					c-44.19-20.95-80.76-53.22-107.03-92.26c-41.02-60.94-56.94-138.38-37.58-215.21c0.34-1.39,0.72-2.78,1.1-4.17
					c-2.98,58.94,13.74,115.94,45.45,163.06c26.27,39.04,62.84,71.31,107.03,92.26c15.67,7.46,32.27,13.5,49.74,17.89
					c20.68,5.21,41.4,7.85,61.86,8.16c32.99,0.46,65.25-5.22,95.3-16.18C2031.86,2591.28,2096.17,2525.44,2119.59,2438.04z"/>
			</g>
			<defs>
				<filter id="Adobe_OpacityMaskFilter" filterUnits="userSpaceOnUse" x="1629.59" y="2156.68" width="263.82" height="510.04">
					<feFlood  style="flood-color:white;flood-opacity:1" result="back"/>
					<feBlend  in="SourceGraphic" in2="back" mode="normal"/>
				</filter>
			</defs>
			<mask maskUnits="userSpaceOnUse" x="1629.59" y="2156.68" width="263.82" height="510.04" id="SVGID_1_">
				<g class="st14">
					<defs>
						
							<filter id="Adobe_OpacityMaskFilter_1_" filterUnits="userSpaceOnUse" x="1629.59" y="2156.68" width="263.82" height="510.04">
							<feFlood  style="flood-color:white;flood-opacity:1" result="back"/>
							<feBlend  in="SourceGraphic" in2="back" mode="normal"/>
						</filter>
					</defs>
					<mask maskUnits="userSpaceOnUse" x="1629.59" y="2156.68" width="263.82" height="510.04" id="SVGID_1_">
						<g class="st15">
						</g>
					</mask>
					
						<linearGradient id="SVGID_2_" gradientUnits="userSpaceOnUse" x1="1845.3694" y1="2197.4602" x2="1846.9865" y2="2595.2864" gradientTransform="matrix(0.9949 -0.1013 0.1013 0.9949 -313.1302 216.2025)">
						<stop  offset="0" style="stop-color:#FFFFFF"/>
						<stop  offset="1" style="stop-color:#000000"/>
					</linearGradient>
					<path class="st16" d="M1893.41,2159.98l-156.78,506.74c-44.19-20.95-80.76-53.22-107.03-92.26l123.42-398.8
						C1796.43,2158.34,1844.67,2152.25,1893.41,2159.98z"/>
				</g>
			</mask>
			
				<linearGradient id="SVGID_3_" gradientUnits="userSpaceOnUse" x1="1845.3694" y1="2197.4602" x2="1846.9865" y2="2595.2864" gradientTransform="matrix(0.9949 -0.1013 0.1013 0.9949 -313.1302 216.2025)">
				<stop  offset="0" style="stop-color:#FFFFFF"/>
				<stop  offset="1" style="stop-color:#FFFFFF"/>
			</linearGradient>
			<path class="st17" d="M1893.41,2159.98l-156.78,506.74c-44.19-20.95-80.76-53.22-107.03-92.26l123.42-398.8
				C1796.43,2158.34,1844.67,2152.25,1893.41,2159.98z"/>
			<defs>
				<filter id="Adobe_OpacityMaskFilter_2_" filterUnits="userSpaceOnUse" x="1806.94" y="2180.19" width="262.82" height="512.61">
					<feFlood  style="flood-color:white;flood-opacity:1" result="back"/>
					<feBlend  in="SourceGraphic" in2="back" mode="normal"/>
				</filter>
			</defs>
			<mask maskUnits="userSpaceOnUse" x="1806.94" y="2180.19" width="262.82" height="512.61" id="SVGID_4_">
				<g class="st18">
					<defs>
						
							<filter id="Adobe_OpacityMaskFilter_3_" filterUnits="userSpaceOnUse" x="1806.94" y="2180.19" width="262.82" height="512.61">
							<feFlood  style="flood-color:white;flood-opacity:1" result="back"/>
							<feBlend  in="SourceGraphic" in2="back" mode="normal"/>
						</filter>
					</defs>
					<mask maskUnits="userSpaceOnUse" x="1806.94" y="2180.19" width="262.82" height="512.61" id="SVGID_4_">
						<g class="st19">
						</g>
					</mask>
					
						<linearGradient id="SVGID_5_" gradientUnits="userSpaceOnUse" x1="2010.0964" y1="2233.5388" x2="2011.7238" y2="2633.865" gradientTransform="matrix(0.9949 -0.1013 0.1013 0.9949 -313.1302 216.2025)">
						<stop  offset="0" style="stop-color:#FFFFFF"/>
						<stop  offset="1" style="stop-color:#000000"/>
					</linearGradient>
					<path class="st20" d="M2069.77,2268.7l-126.24,407.89c-30.06,10.96-62.32,16.64-95.3,16.18l-41.28-12.79l154.65-499.79
						C2005.8,2199.96,2042.72,2230.91,2069.77,2268.7z"/>
				</g>
			</mask>
			
				<linearGradient id="SVGID_6_" gradientUnits="userSpaceOnUse" x1="2010.0964" y1="2233.5388" x2="2011.7238" y2="2633.865" gradientTransform="matrix(0.9949 -0.1013 0.1013 0.9949 -313.1302 216.2025)">
				<stop  offset="0" style="stop-color:#FFFFFF"/>
				<stop  offset="1" style="stop-color:#FFFFFF"/>
			</linearGradient>
			<path class="st21" d="M2069.77,2268.7l-126.24,407.89c-30.06,10.96-62.32,16.64-95.3,16.18l-41.28-12.79l154.65-499.79
				C2005.8,2199.96,2042.72,2230.91,2069.77,2268.7z"/>
			<g>
				<path class="st2" d="M1851.85,2708.17c-22.87,0-46.07-2.79-69.23-8.63c-151.53-38.19-243.74-192.54-205.55-344.07
					c38.19-151.53,192.53-243.74,344.07-205.55c151.53,38.19,243.74,192.54,205.55,344.07
					C2094.33,2622.36,1978.59,2708.17,1851.85,2708.17z M1851.9,2172.11c-112.98,0-216.12,76.47-244.96,190.89
					c-34.04,135.06,48.15,272.62,183.2,306.66c135.07,34.04,272.62-48.15,306.66-183.2c34.04-135.06-48.15-272.63-183.2-306.67
					C1892.97,2174.6,1872.27,2172.11,1851.9,2172.11z"/>
			</g>
			<g>
				<path class="st9" d="M2603.75,2611.29c-9.83,39,133.41,93.81,191.85,107.13l331.75,75.62c20.44,4.66,40.85-7.86,45.98-28.18l0,0
					l5.22-20.72c5.12-20.33-6.92-41.02-27.13-46.61l-327.97-90.65C2765.68,2591.91,2613.58,2572.29,2603.75,2611.29z"/>
			</g>
			<g class="st11">
				<path class="st0" d="M2823.45,2607.86l42.13,11.64c-68.89-12.82-175.32-20.89-183.49,11.55c-8.17,32.4,89.44,75.75,156.18,97.12
					l-42.69-9.74c-58.43-13.32-201.66-68.13-191.84-107.12C2613.58,2572.28,2765.69,2591.89,2823.45,2607.86z"/>
			</g>
			<g>
				<path class="st2" d="M1010.42,2657.42l-15.73-8.53c-235.44-127.61-378.93-257.77-457.85-344.49
					c-93.22-102.44-143.32-197.08-130.74-246.99c12.6-50.01,101.81-109.69,232.8-155.76c110.92-39,299.49-85.61,567.96-86.14
					l17.98-0.04l-1.75,17.9c-12.83,131.4-36.87,267.59-71.45,404.78c-35.79,142-80.94,277.52-134.22,402.8L1010.42,2657.42z
					 M1188.87,1848.18c-483.31,4.69-736.4,158.47-751.2,217.2c-14.75,58.54,134.78,313.32,556.77,546.27
					c49.59-119.09,91.83-247.31,125.64-381.45C1152.69,2100.83,1175.81,1972.4,1188.87,1848.18z"/>
			</g>
			<g class="st10">
				<path class="st2" d="M2937.68,2638.87l213.87,59.15c20.21,5.56,32.26,26.26,27.14,46.58l-5.22,20.73
					c-5.12,20.32-25.54,32.83-45.99,28.19l-216.53-49.37c67.62,10.42,154.93,14.15,162.3-15.09S3002.11,2661.76,2937.68,2638.87z"/>
			</g>
			<g>
				<path class="st2" d="M3135.75,2811.26c-3.97,0-8-0.44-12.01-1.35l-331.75-75.62c-47.29-10.78-171.66-54.49-198.74-98.68
					c-7.27-11.85-6.88-21.94-5.27-28.31c1.61-6.37,6.04-15.43,18.06-22.43c44.79-26.08,175.02-5.62,221.77,7.31l327.97,90.65
					c28.5,7.88,45.8,37.61,38.57,66.28l-5.22,20.72C3182.89,2794.51,3160.3,2811.26,3135.75,2811.26z M2619.56,2615.27
					c0.24,1.3,4.66,17.61,65.12,46.24c41.78,19.78,88.66,35.14,114.54,41.04l331.75,75.62c11.69,2.67,23.64-4.64,26.58-16.29
					l5.22-20.72c2.94-11.66-4.1-23.74-15.68-26.94l-327.96-90.65c-25.58-7.07-74.14-15.77-120.3-18.15
					C2631.98,2601.95,2620.38,2614.24,2619.56,2615.27z"/>
			</g>
		</g>
		<g>
			<path class="st5" d="M1956.94,2220.1"/>
		</g>
		<g>
			<path class="st0" d="M2069.8,1408.68c0,0-189.53,233.64-270.93,20.11l-167.25,101.72c0,0,40.97,240.19,240.76,245.77
				c120.14,3.35,164.14-103.26,164.14-103.26L2069.8,1408.68z"/>
		</g>
		<g class="st22">
			<path class="st2" d="M1872.38,1776.28c120.12,3.37,164.13-103.27,164.13-103.27l0,0c1.67-15.02-16.72-23.69-27.11-12.72
				c-25.82,27.25-67.68,55.19-130.08,53.44c-141.14-3.93-234.48-134.22-103.11-219.12l-144.58,35.89
				C1631.62,1530.5,1672.58,1770.71,1872.38,1776.28z"/>
		</g>
		<g>
			<path class="st2" d="M2074.01,1412.1c-11.39,29.85-32.84,51.9-56.18,71.75c-11.87,9.76-24.69,18.56-38.41,26.17
				c-13.72,7.61-28.24,14.29-43.91,19.07c-15.6,4.78-32.81,7.3-50.28,5.08c-17.46-2.08-34.48-9.49-47.96-20.08
				c-3.64-2.43-6.6-5.42-9.66-8.34c-3.06-2.92-6.2-5.8-8.66-9.08l-7.82-9.6l-6.63-10.13l-3.28-5.09l-2.77-5.25l-5.51-10.52
				c-3.34-7.1-6.18-14.32-9.27-21.49l23.67,8.11l-167.25,101.72l7.59-16.64c0.92,4.99,2.28,10.91,3.66,16.39
				c1.4,5.58,2.97,11.16,4.64,16.7c3.34,11.09,7.17,22.05,11.43,32.82c8.5,21.55,18.9,42.27,31.2,61.59
				c12.48,19.14,26.65,37.16,43.38,52.16c16.63,15.05,35.28,27.7,55.7,36.42c20.41,8.72,42.33,13.82,64.72,15.45
				c5.61,0.37,11.24,0.9,16.7,0.5l8.26-0.23c2.75-0.08,5.52-0.02,8.2-0.56c5.39-0.86,10.84-1.43,16.18-2.45l15.74-4.2
				c5.03-2.03,10.12-3.88,15.12-5.95c4.76-2.59,9.71-4.83,14.37-7.63c9.21-5.77,17.78-12.6,25.32-20.52
				c15.84-15.22,28.92-32.09,49.22-47.32l0.58-0.44c2.61-1.96,6.31-1.43,8.27,1.18c0.77,1.02,1.15,2.21,1.18,3.39
				c0.37,14.42-4.14,26.95-10.61,38.35c-6.64,11.27-14.98,21.65-25.05,30.21c-20.13,16.93-42.92,31.37-68.22,39.64
				c-6.35,1.82-12.78,3.44-19.17,5.13c-6.47,1.25-13.02,2-19.53,2.98c-3.26,0.61-6.53,0.58-9.8,0.69l-9.8,0.28
				c-6.59,0.41-12.97-0.16-19.39-0.59c-25.64-1.86-51.29-7.78-75.2-18.03c-23.93-10.23-45.72-25.01-64.75-42.28
				c-19.17-17.24-35.04-37.46-48.83-58.64c-13.59-21.34-24.88-43.89-34.06-67.17c-4.6-11.64-8.72-23.44-12.33-35.42
				c-1.8-5.99-3.5-12.02-5.03-18.12c-1.55-6.2-2.93-12.03-4.19-18.88l-1.99-10.82l9.58-5.82l167.25-101.72l15.89-9.67l7.77,17.78
				c2.76,6.3,5.28,12.77,8.18,18.96l4.72,8.98l2.35,4.5l2.71,4.15l5.4,8.32l6.11,7.46c1.92,2.65,4.27,4.68,6.52,6.83
				c2.25,2.15,4.41,4.45,6.97,6.04c9.59,7.5,20.49,12.2,32.25,13.65c11.75,1.5,24.33-0.08,36.74-3.96
				c25.05-7.8,47.89-24.42,69.99-41.34l16.62-13.03c5.47-4.49,10.96-8.99,16.61-13.39c11.31-8.77,23.08-17.39,36.34-24.89l0.29-0.16
				c2.74-1.55,6.22-0.59,7.78,2.15C2074.51,1408.79,2074.58,1410.58,2074.01,1412.1z"/>
		</g>
		<g>
			<g>
				<path class="st0" d="M1831.67,1416.86c-6.18,123.93-127.85,135.46-162.28,133.67c-71.81-3.76-107.58-64.01-107.58-64.01
					l41.55-83.64l17.14-44.25l27.74-14.4c15.16-46.48,55.36-103.54,86.81-92.03C1735.06,1252.21,1837,1310.04,1831.67,1416.86z"/>
			</g>
			<g class="st22">
				<path class="st2" d="M1544.39,1450.18c6.97,36.93,61.68,61.3,163.53,29.5c35.88-11.2,61.22-42.57,54.24-79.5
					s-42.57-61.22-79.5-54.24C1645.73,1352.91,1537.41,1413.25,1544.39,1450.18z"/>
			</g>
			<g>
				<path class="st0" d="M1525.49,1329.97c32.53,22.28,60.28,37.99,60.28,37.99l91.56,64.03l27.9-136.24c0,0-4.52-25.58-12.88-58.99
					c-16.51-66.16-47.99-162.97-88.84-152.61c-73.47,18.66,12.69,205.15,12.69,205.15s-148.55-135.81-187.6-81.89
					C1405.76,1238.96,1472.07,1293.34,1525.49,1329.97z"/>
			</g>
			<g class="st22">
				<path class="st2" d="M1525.49,1329.97c32.53,22.28,60.28,37.99,60.28,37.99l91.56,64.03l27.9-136.24c0,0-4.52-25.58-12.88-58.99
					c-16.95,19.51-48.72,55.12-58.5,74.6C1617,1344.93,1554.4,1318.51,1525.49,1329.97z"/>
			</g>
			<g>
				<path class="st2" d="M1677.35,1448.28c-3.29,0-6.56-1-9.33-2.94l-90.94-63.61c-18.84-10.71-155.27-90.1-168.24-149.69
					c-2.75-12.6-0.47-24.41,6.59-34.16c7.98-11.02,19.75-17.61,34.03-19.07c37.03-3.76,89.89,29.06,128.56,58
					c-15.31-45.33-29.41-105.25-12.82-140.06c6.97-14.63,18.84-24.44,34.33-28.37c11.49-2.92,23.31-0.76,34.16,6.25
					c53.7,34.68,84.29,199.58,87.6,218.26c0.36,2.02,0.33,4.09-0.08,6.1l-27.9,136.27c-1.1,5.37-4.83,9.83-9.92,11.86
					C1681.43,1447.9,1679.38,1448.28,1677.35,1448.28z M1456.07,1211.03c-1.15,0-2.25,0.05-3.33,0.16
					c-6.49,0.66-9.27,3.44-10.97,5.78c-1.11,1.53-2.12,3.7-1.15,8.13c7.59,34.85,97.97,97.42,153.16,128.68
					c0.45,0.25,0.89,0.53,1.31,0.83l71.27,49.85l22.3-108.93c-11.95-65.56-41.61-173.51-72.66-193.56
					c-4.14-2.67-6.72-2.49-8.48-2.04c-6.14,1.56-10.13,4.9-12.95,10.82c-15.86,33.27,13.93,123,36.43,171.75
					c3.25,7.03,1.08,15.39-5.17,19.96c-6.25,4.58-14.86,4.11-20.59-1.12C1566.22,1265.69,1492.65,1211.03,1456.07,1211.03z"/>
			</g>
			<g>
				<path class="st0" d="M1545.18,1475.49c23.8,26.16,103.71,25.39,128.2-2.28c20.83-23.56-8.1-43.09-16.21-47.92
					c-1.26-0.77-2.03-1.15-2.03-1.15s27.98-14.71,28.45-40.71c0.03-1.68-0.05-3.41-0.29-5.22c-3.63-29.2-85.41-39.57-119.34-27.33
					c-25.37,9.15-33.33,21.69-33.64,33.55c-0.34,12.63,8.01,24.5,13.27,30.7c2.42,2.83,4.16,4.45,4.16,4.45
					S1526.11,1454.54,1545.18,1475.49z"/>
			</g>
			<g class="st22">
				<path class="st2" d="M1543.6,1415.14c22.67,6.68,67.5,16.86,113.58,10.15c-1.26-0.77-2.03-1.15-2.03-1.15
					s27.98-14.71,28.45-40.71c-26.28,11.18-99.84,36.91-153.27,1.01C1529.99,1397.07,1538.34,1408.94,1543.6,1415.14z"/>
			</g>
			<g class="st22">
				<path class="st2" d="M1545.18,1475.49c23.8,26.16,103.71,25.39,128.2-2.28c10.25-11.57,8.45-22.16,3.03-30.53
					c-1.04,1.7-2.32,3.44-3.87,5.2c-24.46,27.66-104.37,28.44-128.16,2.31c-2.47-2.71-4.28-5.65-5.49-8.74
					C1536.26,1452.45,1536.15,1465.53,1545.18,1475.49z"/>
			</g>
			<g>
				<path class="st2" d="M1606.76,1509.95c-31.99,0-59.21-8.96-72.97-24.08c-17.47-19.18-12.6-45.85-4.57-63.99
					c-7.64-9.87-17.28-26.65-13.46-45.22c3.66-17.77,18.12-31.32,42.97-40.28l0,0c28.65-10.34,88.18-7.51,119.13,11.51
					c15.39,9.46,19.77,20.69,20.73,28.45c2.62,21.24-7.66,37.19-17.95,47.51c6.65,6.45,12.98,15.07,14.93,25.57
					c1.55,8.27,0.95,20.89-10.66,34c-14.49,16.37-43.25,26.28-76.94,26.52C1607.57,1509.95,1607.17,1509.95,1606.76,1509.95z
					 M1569.19,1365.37c-13.65,4.92-21.9,11.13-23.24,17.47c-1.82,8.65,7.56,20.95,12.4,25.56c5.28,5.03,6.36,13.12,2.52,19.32
					c-0.12,0.21-14.91,25.75-4.29,37.42c7.77,8.54,28.11,14.28,51.19,14.01c23.96-0.17,45.69-6.65,54.08-16.13
					c4.05-4.58,3.61-6.99,3.45-7.9c-1.13-6.19-10.97-13.99-17.27-17.31c-5.06-2.67-8.25-7.93-8.25-13.65
					c0-5.72,3.15-10.98,8.21-13.64c0.15-0.08,22.27-12.25,20.03-30.38c-0.08-0.64-1.36-2.96-6.28-5.98
					C1639.88,1360.72,1590.27,1357.77,1569.19,1365.37L1569.19,1365.37z"/>
			</g>
			<g>
				<path class="st2" d="M1610.96,1439.67c-37.25,0-65.08-9.83-66.68-10.41c-5.33-1.93-8.1-7.81-6.17-13.15
					c1.92-5.33,7.81-8.09,13.14-6.17c0.88,0.31,49.5,17.22,101.4,4.24c5.52-1.37,11.08,1.97,12.46,7.47
					c1.38,5.5-1.97,11.08-7.47,12.45C1641.32,1438.18,1625.43,1439.67,1610.96,1439.67z"/>
			</g>
			<g>
				<path class="st0" d="M1735.05,1252.22c-41.75-15.29-98.86,90.15-92.48,131.42c4.87,31.51,46.88,50.63,83.66,2.31
					C1763.48,1336.99,1800.61,1276.23,1735.05,1252.22z"/>
			</g>
			<g>
				<path class="st0" d="M1561.81,1486.54c0,0,35.78,60.23,107.57,63.99c34.44,1.8,156.11-9.73,162.3-133.67
					c5.33-106.81-96.62-164.63-96.62-164.63c-41.75-15.29-98.86,90.15-92.48,131.42c4.87,31.51,54.75,40.47,83.33-21.98
					c0,0-11.08,53.92,39.2,79.79l-92.06,79.01l-81-0.5L1561.81,1486.54z"/>
			</g>
			<g>
				<path class="st0" d="M1740.16,1421.32l1.83-1.57c-1.78-0.92-3.42-1.83-5-2.83C1737.97,1418.38,1739.01,1419.86,1740.16,1421.32z
					"/>
			</g>
			<g class="st22">
				<path class="st2" d="M1722.52,1352.68c1.68-21.27-46.7,41.2-79.43,33.68c6.25,25.15,42.52,33.59,70.18-3.16
					C1712.19,1366.54,1722.52,1352.68,1722.52,1352.68z"/>
			</g>
			<g class="st22">
				<path class="st2" d="M1605.69,1520.03l-13.67-0.07c17.84,14.58,43.64,28.81,77.35,30.58c34.45,1.8,156.12-9.75,162.29-133.69
					c3.63-72.68-42.45-122.71-72.25-147.22c25.75,27.82,51.92,70.09,49.16,125.53c-6.17,123.93-127.84,135.49-162.29,133.69
					C1631.16,1528.04,1617.62,1524.76,1605.69,1520.03z"/>
			</g>
			<g>
				<path class="st0" d="M1561.84,1486.59c0.36,0.6,3.18,5.2,8.49,11.7l2.1,0.02L1561.84,1486.59z"/>
			</g>
			<g>
				<path class="st0" d="M1568.94,1498.27c1.32,1.08,2.68,2.18,4.1,3.24c-0.94-1.11-1.85-2.2-2.7-3.23L1568.94,1498.27z"/>
			</g>
			<g>
				<path class="st2" d="M1794.3,1503.34c12.46-21.7,18.95-43.63,20.86-66.25c0.52-5.64,0.8-11.3,0.83-17
					c0.18-5.73-0.61-11.24-0.77-16.81c-0.72-11.09-2.94-21.99-6.21-32.52c-0.38-1.32-0.65-2.68-1.11-3.98l-1.53-3.86l-3.02-7.73
					c-2.09-5.12-5-9.93-7.29-14.99c-2.96-4.76-5.66-9.66-8.88-14.28c-3.41-4.51-6.36-9.32-10.15-13.59
					c-7-8.94-15.15-17.09-23.56-24.91c-4.26-3.87-8.69-7.54-13.21-11.08c-2.3-1.67-4.57-3.48-6.88-5.06
					c-2.23-1.58-4.82-3.31-6.62-4.42l2.51,1.16c-1.77-0.65-3.76-0.81-7.06,0.16c-3.21,0.97-7.17,3.12-10.97,6.05
					c-7.67,5.94-15.06,14.29-21.42,23.36c-12.74,18.21-22.71,39.75-27.8,60.74c-1.2,5.2-2.05,10.37-2.29,15.01
					c-0.12,2.3-0.13,4.51,0.1,6.25l0.14,1.31l0.32,0.93c0.26,0.57,0.16,1.33,0.53,1.79c0.81,2.26,2.37,3.72,4.29,4.94
					c1.98,1.07,4.46,2.11,7.66,1.87c0.74,0.16,1.58-0.08,2.41-0.22c0.83-0.21,1.67-0.07,2.54-0.45c1.74-0.67,3.53-0.99,5.35-2.07
					l2.78-1.3l2.72-1.86c1.9-1.06,3.6-2.74,5.37-4.3c7-6.45,13.21-15.14,18.65-24.64l1.78-3.1c3.93-6.87,12.69-9.24,19.55-5.31
					c6.18,3.54,8.72,10.98,6.3,17.44c-0.27,0.71-0.68,2.65-0.94,4.14c-0.29,1.61-0.5,3.25-0.65,4.93c-0.4,3.34-0.48,6.72-0.45,10.12
					c0.1,6.79,1.19,13.53,3.22,20.06c1.94,6.58,5.09,12.9,9.38,18.74c1.99,3.07,4.58,5.68,7.09,8.54c2.58,2.78,5.61,5.12,8.47,7.91
					l0.27,0.27c1.08,1.06,1.1,2.79,0.05,3.87c-0.75,0.77-1.85,1-2.8,0.69c-7.87-2.55-15.99-5.89-22.88-11.4
					c-3.66-2.51-6.81-5.68-9.95-8.94c-2.82-3.47-5.83-6.99-8.07-10.97c-4.79-7.81-8.11-16.55-10.01-25.52
					c-0.86-4.5-1.54-9.05-1.8-13.66c-0.13-2.3-0.18-4.63-0.13-6.98c0.07-2.47,0.12-4.48,0.55-7.68l27.63,9.03
					c-5.11,12.48-11.68,24.99-21.95,35.88c-2.61,2.69-5.16,5.42-8.38,7.75l-4.64,3.59c-1.69,1.08-3.48,2.08-5.24,3.1
					c-7,4.08-15.51,6.71-24.54,7.34c-9.01,0.85-18.92-1.43-27.4-6.44c-8.44-4.99-15.75-12.99-19.07-22.32
					c-1.05-2.25-1.41-4.63-2.05-6.97c-0.27-1.17-0.56-2.37-0.77-3.51l-0.33-3.25c-0.4-4.33-0.29-8.26,0.03-12.04
					c0.66-7.54,2.13-14.41,3.9-21.05c7.49-26.23,19.29-49.28,34.48-71.08c7.72-10.81,16.33-21.31,27.89-30.47
					c5.85-4.5,12.45-8.85,20.86-11.69c8.22-2.88,19.09-3.72,28.87-0.15l0.03,0.01c0.84,0.31,1.72,0.73,2.48,1.15
					c3.54,2.03,6.15,3.7,9.04,5.6c2.86,1.84,5.52,3.81,8.28,5.71c5.37,3.94,10.61,8.03,15.67,12.35
					c10.02,8.72,19.74,17.91,28.2,28.39c4.47,5,8.32,10.6,12.26,16.07c3.84,5.56,7.16,11.54,10.66,17.35
					c2.95,6.17,6.15,12.22,8.58,18.63l3.45,9.71l1.7,4.85c0.51,1.64,0.84,3.34,1.27,5c6.71,26.67,7.42,54.97,0.4,80.98
					c-3.5,13.09-8.95,25.8-16.49,37.04c-7.53,11.22-17.15,20.9-28.2,27.85c-1.31,0.82-3.03,0.43-3.85-0.88
					C1793.78,1505.34,1793.81,1504.21,1794.3,1503.34z"/>
			</g>
			<g>
				<path class="st2" d="M1575.8,1478.23c1.2,1.01,2.92,3.07,4.48,4.69l4.76,5.28c1.59,1.77,3.29,3.47,4.81,5.31
					c1.66,1.72,3.35,3.42,4.91,5.25c6.68,6.87,13.43,13.81,21.01,19.99c3.74,3.19,7.74,5.97,11.77,8.95
					c4.26,2.4,8.33,5.63,12.92,7.73c8.87,5.24,18.65,8.72,29.05,12.77l0.18,0.07c1.23,0.48,1.84,1.87,1.36,3.1
					c-0.31,0.79-1.01,1.33-1.78,1.48c-11.11,2.12-22.96,2.88-34.61,1.08c-5.91-0.64-11.63-2.16-17.44-3.67
					c-5.56-2-11.44-3.7-16.75-6.47c-10.88-5.08-21.38-11.43-30.23-19.63c-4.44-4.07-8.66-8.4-12.37-13.2
					c-1.9-2.36-3.64-4.85-5.31-7.44c-1.7-2.7-3.06-5.09-4.73-8.66c-3.77-8.06-0.3-17.66,7.77-21.43c5.86-2.74,12.54-1.65,17.19,2.25
					L1575.8,1478.23z"/>
			</g>
		</g>
		<g>
			<path class="st2" d="M1822.07,1778.36c-1.89,0-3.8-0.05-5.75-0.16c-5.66-0.31-10.01-5.14-9.7-10.81
				c0.31-5.67,5.21-9.95,10.81-9.7c20.66,1.13,36.1-5.03,47.19-18.77c46.12-57.16,2.74-218.53,2.3-220.15
				c-1.5-5.47,1.73-11.12,7.2-12.61c5.48-1.5,11.12,1.73,12.61,7.19c1.93,7.04,46.56,173.14-6.12,238.45
				C1866.38,1769.44,1846.71,1778.36,1822.07,1778.36z"/>
		</g>
		<g>
			<path class="st23" d="M2162.61,1701.86l0.39,1.52l-0.26-1.66C2162.69,1701.76,2162.64,1701.83,2162.61,1701.86z"/>
		</g>
		<g>
			<path class="st2" d="M2799.13,1537.08c-18.76,2.02-37.71,4.32-56.52,6.81c-18.83,2.5-37.62,5.22-56.29,8.43l-0.03,0.01
				c-4.44,0.76-8.66-2.22-9.42-6.66c-0.7-4.05,1.73-7.92,5.53-9.14c18.34-5.92,36.78-11.34,55.28-16.55
				c18.52-5.19,36.99-10.16,55.73-14.94c8.74-2.23,17.62,3.05,19.85,11.78c2.23,8.74-3.05,17.62-11.78,19.85
				c-0.73,0.19-1.46,0.32-2.19,0.4L2799.13,1537.08z"/>
		</g>
		<g>
			<path class="st24" d="M1732.5,1266.34c-1.54,1.66-2.91,3.49-4.11,5.47L1732.5,1266.34z"/>
		</g>
		<g>
			<path class="st25" d="M2371.61,1581.22"/>
		</g>
		<g>
			<path class="st0" d="M2674.81,1803.9l-3.87,111.37c-13.33,115.43-54.6,201.92-101.73,247.88
				c-67.82,66.07-187.03,73.5-227.55,114.84c-35.54,36.32-35.68,91.13-43.59,147.17c-6.73,47.91-26.66,108.48-76.82,154.75
				c-75.88,69.97-192.19,56.7-244.53-6.92c-59.7-72.65,56.74-204.68,73.04-220.6c0,0-14.85-27.45-28.8-52.3
				c-35.39-63.03-8.05-196.66,71.93-250.63c21.89-14.77,46.8-24.4,71.83-30.57c72.29-17.74,149.08-6.82,215.16,27.77l15.48-90.57
				l16.95-99.06l0-0.04l95-556.01C2622.46,1488.61,2668.94,1661.17,2674.81,1803.9z"/>
		</g>
		<g class="st1">
			<path class="st2" d="M2674.81,1803.9l-0.02,0.16l-3.85,111.21c-13.33,115.43-54.6,201.96-101.73,247.88
				c-67.82,66.07-187.03,73.5-227.55,114.84c-35.54,36.32-35.68,91.13-43.59,147.17c-6.73,47.91-26.66,108.48-76.82,154.75
				c-75.88,69.97-192.19,56.7-244.53-6.92c-19.51-23.75-20.22-53.83-11.74-84.1c34.31,115.73,167.82,100.76,236.6,37.36
				c50.16-46.27,46.92-151.84,53.69-199.76c7.91-56.04,8.01-110.85,43.59-147.17c40.49-41.34,159.73-48.77,227.51-114.84
				c28.26-27.55,54.4-69.66,73.67-123.85c-47.01,11.9-114.53,21.13-204.67,15.45c-8.09-0.46-16.36-1.11-24.85-1.84
				c0,0-53.58-59.44,11.37-101.47c0,0,11.52,2.2,30.42,4.22l0,0.04c46.7,5.05,138.51,9.04,213.66-23.86
				C2643.4,1825.56,2659.96,1815.94,2674.81,1803.9z"/>
		</g>
		<g class="st1">
			<path class="st2" d="M2670.94,1915.27l3.85-111.21C2676.44,1843.52,2674.96,1880.72,2670.94,1915.27z"/>
		</g>
		<g class="st1">
			<path class="st2" d="M2674.81,1803.9c-14.86,12.04-31.41,21.66-48.85,29.28c16.15-113.74,4.9-257.58-56.61-419.49
				C2639.71,1557.73,2670.1,1690.27,2674.81,1803.9z"/>
		</g>
		<g>
			<path class="st2" d="M2377.5,2051.22c-49.94-17.41-100.67-27.13-151.28-24.66c-25.21,1.17-50.19,5.78-74.12,13.06
				c-11.9,3.76-23.42,8.4-34.25,14.08c-5.44,2.79-10.71,5.85-15.76,9.17c-4.7,3.66-9.64,7.01-14.21,10.87
				c-18.19,15.77-32.67,36.38-43.51,58.78c-10.89,22.44-17.97,46.94-21.27,71.69l-0.68,4.64l-0.33,4.65l-0.65,9.31
				c-0.34,6.2,0.01,12.35-0.01,18.51c1.11,12.1,2.39,24.36,6.34,35.27c1.42,5.79,4.32,10.52,6.52,15.72l9.65,17.56l19.38,35.18
				l5.5,9.99l-8.28,8.36c-6.44,6.5-13.42,14.67-19.78,22.49c-6.45,7.95-12.64,16.13-18.53,24.49
				c-11.72,16.73-22.45,34.15-30.87,52.25c-8.32,18.02-14.81,36.92-15.87,55.15c-0.55,9.07,0.26,17.87,2.75,25.88
				c2.55,8.11,6.46,15.07,12.51,21.77c24.55,28.21,63.16,43.9,101.68,45.74c38.82,2.09,77.87-10.49,108.27-34.24
				c3.69-3.14,7.5-6.06,11.12-9.34c3.48-3.49,7.18-6.77,10.41-10.5c6.85-7.1,12.8-15.01,18.63-22.98
				c11.19-16.29,20.46-34.01,27.34-52.77c7.01-18.7,11.73-38.35,14.63-58.25c2.88-20.47,4.78-41.57,8.15-63.22
				c3.52-21.55,8.39-44.19,19.83-65.43c5.77-10.55,12.92-20.43,21.9-29.03l7.23-6.28c2.44-1.99,5-3.45,7.5-5.19
				c5.02-3.58,10.15-5.99,15.25-8.78c20.47-10.28,40.91-17.03,60.92-24.1c20.01-6.95,39.67-13.81,58.52-21.84
				c18.84-8.01,36.9-17.14,53.15-28.32c3.92-2.94,7.98-5.73,11.8-8.77l10.9-9.62c3.44-3.47,6.78-7.08,10.18-10.61l9.49-11.44
				c12.21-15.75,22.61-33.19,31.63-51.37c8.99-18.21,16.8-37.15,22.99-56.71c25.31-78.2,31.78-162.42,25.41-245.06
				c-6.41-82.84-25.52-164.7-53.87-243.16c-7.51-19.47-14.88-39.01-23.68-57.95c-8.3-19.16-17.64-37.84-26.21-56.89
				c-17.73-37.89-36.51-75.12-50.98-115.69l-0.02-0.06c-0.97-2.72,0.45-5.72,3.17-6.69c2.03-0.73,4.22-0.11,5.6,1.38
				c7.35,7.95,14.23,16.25,20.79,24.77c6.72,8.42,12.78,17.27,18.59,26.27c12.08,17.76,22.17,36.69,32.21,55.64
				c9.47,19.24,18.69,38.63,26.47,58.65c8.25,19.8,15.71,39.95,23.03,60.11c29.17,80.71,48.96,165.23,55.62,251.29
				c6.58,85.88,0.04,173.78-26.85,256.97c-6.6,20.8-14.94,41.13-24.69,60.86c-9.79,19.71-21.15,38.82-34.89,56.56l-10.79,12.99
				c-3.92,4.11-7.78,8.27-11.8,12.29l-12.9,11.39c-4.46,3.55-9.11,6.78-13.67,10.17c-18.65,12.83-38.58,22.81-58.67,31.36
				c-20.1,8.55-40.46,15.63-60.43,22.57c-19.89,6.98-39.74,13.7-57.12,22.49c-4.17,2.3-8.67,4.39-12.25,7.04
				c-1.83,1.29-3.93,2.43-5.56,3.8l-4.75,4.13c-6.31,6.02-11.77,13.45-16.13,21.45c-8.78,16.16-13.29,35.53-16.52,55.61
				c-3.15,20.18-5.07,41.27-8.07,62.73c-3.2,21.97-8.41,43.72-16.26,64.67c-7.7,20.99-18.16,41.09-30.95,59.67
				c-6.64,9.12-13.48,18.15-21.32,26.31c-3.72,4.26-7.93,8.05-11.94,12.04c-4.21,3.83-8.78,7.4-13.17,11.09
				c-36.25,28.37-82.84,43.22-128.73,40.75c-22.92-1.15-45.71-6.23-66.95-15.52c-21.19-9.27-40.93-22.86-56.53-40.8
				c-8.15-8.96-15.04-20.75-18.69-32.87c-3.79-12.22-4.8-24.85-4.06-36.87c1.54-24.19,9.42-45.99,18.71-66.28
				c9.46-20.3,21.06-39.05,33.61-56.97c6.3-8.94,12.9-17.65,19.78-26.14c7.02-8.57,13.73-16.58,22.18-25.13l-2.78,18.35l-19.22-34.9
				l-9.62-17.5c-3.21-6.97-7.01-13.91-8.88-21.12c-5.02-14.31-6.57-28.83-7.82-43.23c-0.03-7.16-0.39-14.36,0-21.47l0.74-10.65
				l0.39-5.32l0.76-5.26c3.7-28.11,11.81-55.39,23.8-81.11c12.09-25.64,28.58-49.73,50.29-69.49c22.03-20.1,48.47-32.87,75.45-41.55
				c13.52-4.3,27.22-7.64,41.17-9.72c6.94-1.26,13.96-1.82,20.95-2.65c7.02-0.4,14.04-0.96,21.07-0.89
				c56.09-0.81,112.45,15.21,156.99,47.28c2.33,1.67,2.85,4.91,1.18,7.24c-1.37,1.91-3.8,2.6-5.91,1.87L2377.5,2051.22z"/>
		</g>
		<g>
			<path class="st2" d="M2316.85,2328.62c-1.08,0-2.18-0.17-3.25-0.53c-5.38-1.79-8.28-7.61-6.49-12.99
				c41.25-123.59-21.74-197.18-50.74-223.07c-46.32-41.37-109.89-57.49-151.17-38.31c-5.14,2.4-11.25,0.16-13.64-4.99
				c-2.39-5.14-0.16-11.25,4.99-13.64c49.15-22.84,120.51-5.72,173.51,41.62c32.03,28.61,101.65,109.74,56.54,244.9
				C2325.16,2325.9,2321.15,2328.62,2316.85,2328.62z"/>
		</g>
		<g>
			<path class="st2" d="M2053.52,2325.78c1.08,1.85,2.99,4.46,4.67,6.72c1.8,2.31,3.6,4.65,5.56,6.87
				c3.83,4.54,7.98,8.86,12.34,12.95c8.73,8.19,18.43,15.39,29.04,21.15c10.59,5.9,22.31,9.46,34.53,11.27l9.29,0.92l9.39-0.36
				c1.58-0.09,3.18-0.08,4.76-0.25l4.67-0.87l9.48-1.77l-8.95,3.73l-4.54,1.88c-1.55,0.52-3.14,0.85-4.73,1.28l-9.63,2.44
				l-9.94,1.13c-13.31,0.9-27.23-0.27-40.35-4.27c-13.17-3.85-25.83-9.6-37.65-16.72c-5.92-3.56-11.66-7.44-17.17-11.69
				c-2.8-2.07-5.47-4.33-8.17-6.59c-2.73-2.4-5.17-4.51-8.15-7.62l-0.52-0.54c-6.28-6.55-6.06-16.95,0.49-23.23
				c6.55-6.28,16.95-6.06,23.23,0.49C2052.09,2323.63,2052.89,2324.71,2053.52,2325.78z"/>
		</g>
		<g>
			<g>
				<circle class="st0" cx="1972.7" cy="1837.79" r="54.32"/>
			</g>
			<g class="st22">
				<path class="st2" d="M1918.45,1840.38c1.43,29.97,26.87,53.12,56.84,51.69s53.12-26.92,51.69-56.88
					c-0.4-8.28-2.63-16.08-6.33-22.95c-7.83,18.74-25.94,32.36-47.58,33.39c-21.64,1.04-40.97-10.79-50.51-28.7
					C1919.53,1824.12,1918.05,1832.1,1918.45,1840.38z"/>
			</g>
			<g>
				<path class="st2" d="M1972.66,1907.52c-36.93,0-67.82-29.12-69.61-66.39v0c-0.89-18.6,5.52-36.44,18.04-50.22
					c12.52-13.78,29.67-21.87,48.27-22.75c38.39-1.79,71.14,27.91,72.98,66.31c1.84,38.4-27.91,71.14-66.31,72.98
					C1974.9,1907.49,1973.78,1907.52,1972.66,1907.52z M1972.72,1798.88c-0.63,0-1.25,0.01-1.88,0.04
					c-10.38,0.5-19.95,5.01-26.94,12.7c-6.99,7.69-10.57,17.65-10.07,28.03c0,0,0,0,0,0c1.03,21.43,19.25,37.99,40.73,37.01
					c21.43-1.03,38.03-19.3,37.01-40.73C2010.57,1815.13,1993.33,1798.88,1972.72,1798.88z"/>
			</g>
			<g>
				<path class="st0" d="M2035.7,1969.69l287.15,3.33c33.99,0.4,62.14-27.09,62.55-61.12l1.76-152.81
					c0.35-29.79-20.7-55.06-48.78-61.15c-3.98-0.89-8.1-1.34-12.34-1.4l-287.11-3.33c-34.03-0.4-62.19,27.09-62.55,61.12
					l-1.43,121.03l-0.38,31.78C1974.18,1941.17,2001.71,1969.28,2035.7,1969.69z"/>
			</g>
			<g class="st1">
				<path class="st2" d="M2035.7,1969.69l287.15,3.33c33.99,0.4,62.14-27.09,62.55-61.12l1.76-152.81
					c0.35-29.79-20.7-55.06-48.78-61.15c-16.43,10.64-26.87,17.45-26.87,17.45c-15.4,122.5-11.07,213.49-201.24,198.67
					c-65.56-5.11-109.29-24.9-135.32-38.7l-0.38,31.78C1974.18,1941.17,2001.71,1969.28,2035.7,1969.69z"/>
			</g>
			<g>
				<path class="st2" d="M2323.57,1988.44c-0.31,0-0.61,0-0.91,0l-287.13-3.33c-20.56-0.24-39.85-8.52-54.3-23.31
					c-14.45-14.79-22.28-34.26-22.04-54.82l1.77-152.83c0.49-42.59,35.39-77.02,78.13-76.34l287.13,3.33
					c42.59,0.5,76.83,35.54,76.34,78.13l-1.77,152.83c-0.24,20.56-8.52,39.84-23.31,54.3
					C2362.91,1980.63,2343.79,1988.44,2323.57,1988.44z M2038.2,1708.6c-25.36,0-46.13,20.48-46.43,45.89l-1.77,152.83
					c-0.14,12.33,4.57,24.03,13.27,32.93c8.7,8.91,20.29,13.89,32.62,14.03l287.13,3.33l0,0c12.55,0.18,24.03-4.57,32.94-13.27
					s13.89-20.29,14.03-32.62l1.77-152.83c0.14-12.33-4.57-24.03-13.27-32.94s-20.28-13.89-32.62-14.03l-287.13-3.33
					C2038.56,1708.6,2038.38,1708.6,2038.2,1708.6z"/>
			</g>
			<g>
				<path class="st0" d="M2024.19,1968.42c3.71,0.82,7.54,1.24,11.51,1.26l287.15,3.33c24.91,0.28,46.68-14.38,56.68-35.69
					c3.65-7.74,5.74-16.35,5.83-25.43l0.81-67.89l0.27-22.4l0.72-62.52c0.4-34.03-27.13-62.14-61.12-62.55l-62.05-0.7
					c28.54,5.72,50.02,31.18,49.69,61.28l-0.93,82.54l-0.83,70.31c-0.4,33.99-28.56,61.52-62.55,61.12L2024.19,1968.42z"/>
			</g>
			<g class="st1">
				<path class="st2" d="M2024.19,1968.42c3.71,0.82,7.54,1.24,11.51,1.26l287.15,3.33c33.99,0.4,62.14-27.09,62.5-61.12l1.08-90.29
					c-7.41,15.87-20.61,35.3-41.4,37.12c-11.4,1.02-22.52-7.31-32.29-19.07l-0.83,70.31c-0.4,33.99-28.56,61.52-62.55,61.12
					L2024.19,1968.42z"/>
			</g>
			<g>
				<path class="st2" d="M2323.62,1988.44c-0.32,0-0.63,0-0.95,0l-287.15-3.34c-4.83-0.03-9.75-0.56-14.55-1.58
					c-7.75-1.65-12.98-8.9-12.11-16.77c0.87-7.81,7.47-13.71,15.31-13.71c0.06,0,0.12,0,0.18,0l225.22,2.63
					c12.19,0.13,24.01-4.56,32.91-13.26c8.91-8.7,13.89-20.29,14.03-32.62l1.77-152.84c0.26-22.27-15.43-41.63-37.3-46.04
					c-7.79-1.57-13.11-8.81-12.28-16.72c0.83-7.85,7.45-13.79,15.32-13.79c0.06,0,0.12,0,0.18,0l62.02,0.71
					c42.62,0.52,76.86,35.58,76.34,78.15l-1.77,152.81c-0.23,20.56-8.5,39.85-23.3,54.3
					C2362.91,1980.63,2343.82,1988.44,2323.62,1988.44z M2310.35,1957.48l12.68,0.15c0.19,0,0.38,0,0.57,0
					c12.12,0,23.58-4.7,32.35-13.27c8.91-8.7,13.89-20.29,14.02-32.62c0,0,0-0.01,0-0.01l1.77-152.82
					c0.31-25.6-20.28-46.67-45.9-46.98l-10.98-0.12c9.17,12.93,14.42,28.73,14.22,45.51l-1.77,152.82
					C2327.12,1927.55,2321.16,1944.05,2310.35,1957.48z"/>
			</g>
			<g>
				<path class="st12" d="M2199.57,1833.47c-0.03,5.65,7.64,51.32,7.64,51.32s14.45,0.08,32.2,0.19
					c22.17,0.13,40.28-22.72,40.44-51.04c0.17-28.32-17.67-51.38-39.84-51.51c-14.96-0.09-32.2-0.19-32.2-0.19
					S2199.62,1824.27,2199.57,1833.47z"/>
			</g>
			<g class="st22">
				<path class="st2" d="M2199.57,1833.47c-0.03,5.65,7.64,51.32,7.64,51.32s14.45,0.08,32.2,0.19
					c22.17,0.13,40.28-22.72,40.44-51.04c0.17-28.32-17.67-51.38-39.84-51.51c-14.96-0.09-32.2-0.19-32.2-0.19
					S2199.62,1824.27,2199.57,1833.47z"/>
			</g>
			<g>
				<path class="st2" d="M2239.6,1895.25c-0.08,0-0.16,0-0.25,0l-32.2-0.19c-4.99-0.03-9.24-3.64-10.07-8.57
					c-2.35-13.99-7.82-47.18-7.79-53.08c0,0,0,0,0,0c0.06-9.68,7.04-45.95,8.44-53.13c0.94-4.84,5.23-8.18,10.14-8.3l32.2,0.19
					c27.8,0.16,50.25,27.91,50.05,61.84C2289.92,1867.84,2267.28,1895.25,2239.6,1895.25z M2215.92,1874.57l23.55,0.14
					c0.04,0,0.09,0,0.13,0c16.41,0,29.85-18.28,29.98-40.83c0.13-22.61-13.16-41.08-29.63-41.18l-23.65-0.14
					c-2.94,15.69-6.41,35.8-6.46,40.92C2209.93,1836.76,2212.81,1855.61,2215.92,1874.57z"/>
			</g>
			<g>
				
					<ellipse transform="matrix(5.864644e-03 -1 1 5.864644e-03 361.0797 4030.2422)" class="st12" cx="2207.51" cy="1833.52" rx="51.27" ry="40.14"/>
			</g>
			<g class="st22">
				<path class="st2" d="M2247.65,1833.76c-0.16,28.3-18.27,51.16-40.43,51.04c-22.2-0.13-40.03-23.2-39.85-51.53
					c0.01-3.82,0.38-7.56,1.04-11.16c5.59,19.48,20.19,33.43,37.41,33.5c19.15,0.11,35.29-16.91,39.39-39.84
					C2246.84,1821.38,2247.67,1827.44,2247.65,1833.76z"/>
			</g>
			<g>
				<path class="st0" d="M2247.65,1833.76c0,1.93-0.11,3.83-0.31,5.7c-4.27-22.21-19.93-38.71-38.66-38.81
					c-20.65-0.1-37.82,19.73-40.12,45.37c-0.81-4.1-1.2-8.36-1.19-12.76c0.16-28.3,18.26-51.16,40.43-51.04
					C2229.97,1782.39,2247.81,1805.43,2247.65,1833.76z"/>
			</g>
			<g>
				<path class="st2" d="M2207.41,1895.06c-0.09,0-0.17,0-0.26,0c-13.95-0.08-26.86-6.89-36.36-19.17
					c-8.92-11.54-13.79-26.69-13.69-42.67l0,0c0.2-33.83,22.84-61.25,50.53-61.25c0.08,0,0.16,0,0.25,0
					c13.95,0.08,26.86,6.89,36.36,19.17c8.92,11.53,13.78,26.69,13.69,42.67c-0.09,15.98-5.13,31.07-14.19,42.5
					C2234.15,1888.41,2221.26,1895.06,2207.41,1895.06z M2167.37,1833.28l10.27,0.06c-0.07,11.41,3.27,22.06,9.4,29.98
					c5.55,7.18,12.74,11.15,20.24,11.2c7.43-0.09,14.73-3.85,20.36-10.96c6.22-7.85,9.68-18.45,9.75-29.87
					c0.07-11.41-3.27-22.06-9.4-29.98c-5.55-7.18-12.74-11.15-20.23-11.2c-0.04,0-0.09,0-0.13,0c-16.42,0-29.86,18.28-29.99,40.83
					L2167.37,1833.28z"/>
			</g>
			<g>
				<path class="st2" d="M2119.84,1979.89c-5.62,0-10.2-4.52-10.27-10.14l-1.15-95.82c-0.04-2.93-1.53-5.63-3.99-7.21l-31.48-20.3
					c-8.47-5.47-13.47-14.74-13.39-24.81l1.04-127.95c0.05-5.64,4.63-10.19,10.27-10.19c0.03,0,0.06,0,0.09,0
					c5.67,0.05,10.23,4.68,10.19,10.35l-1.04,127.94c-0.02,3,1.47,5.76,3.99,7.39l31.47,20.3c8.26,5.33,13.27,14.38,13.39,24.22
					l1.15,95.82c0.07,5.67-4.47,10.32-10.14,10.39C2119.92,1979.89,2119.88,1979.89,2119.84,1979.89z"/>
			</g>
			<g>
				<path class="st0" d="M2679.86,1729.79c0,0,29.83,19.37,29.52,53.39c-0.36,39.33-28.59,57.79-28.59,57.79
					s-95.94,65.88-313.76,46.48c0,0-53.57-59.44,11.39-101.49C2378.42,1785.97,2576.92,1824.13,2679.86,1729.79z"/>
			</g>
			<g class="st1">
				<path class="st2" d="M2709.37,1782.41C2709.38,1782.42,2709.37,1782.41,2709.37,1782.41c0.01,39.85-28.6,58.56-28.6,58.56
					s-95.92,65.86-313.74,46.49c0,0-40.94-45.44-7.85-84.95c0.03,0.24,0.06,0.48,0.1,0.72c3.44,24.64,24.31,43.28,49.16,44.72
					c197.41,11.4,284.84-48.62,284.84-48.62S2701.7,1793.83,2709.37,1782.41z"/>
			</g>
			<g>
				<path class="st2" d="M2445.33,1903.88c-21.33,0-44.14-0.84-68.52-2.73c-11.3-0.88-21.7-7.05-27.81-16.5
					c-24.29-37.59-19.8-75.67,12-101.86c8.02-6.6,18.5-9.5,28.78-7.96c40.63,6.13,179.92,21.16,266.76-42.52l0,0
					c8.15-5.98,18.1-8.35,28.01-6.72c9.79,1.62,18.32,6.99,24,15.13c9.2,13.16,13.8,27.48,13.66,42.57
					c-0.42,45.68-33.02,67.51-34.41,68.42C2684.53,1853.97,2609.69,1903.88,2445.33,1903.88z M2384.33,1800.1
					c-2.54,0-5.02,0.88-7.01,2.51c-27.39,22.55-18.79,49.48-6.76,68.1c1.79,2.76,4.87,4.57,8.23,4.83
					c202.2,15.69,293.85-44.58,294.75-45.19c1.04-0.71,22.7-15.73,22.99-47.3c0.09-9.63-2.95-18.93-9.03-27.62
					c-1.7-2.43-4.24-4.03-7.15-4.51c-3.04-0.5-6.1,0.24-8.63,2.09c-94.76,69.49-242.68,53.7-285.76,47.2
					C2385.42,1800.15,2384.87,1800.1,2384.33,1800.1z"/>
			</g>
		</g>
		<g>
			<path class="st26" d="M2853.27,732.16c0.07-0.13,0.13-0.3,0.19-0.43C2853.33,732.03,2853.27,732.16,2853.27,732.16z"/>
		</g>
		<g>
			<path class="st0" d="M2523.6,1361.06c0,0,229.59,194.41,269.96-30.51l183.22,68.92c0,0,4.31,243.62-190.98,286.17
				c-117.43,25.59-180.45-71.01-180.45-71.01L2523.6,1361.06z"/>
		</g>
		<g class="st22">
			<path class="st2" d="M2785.8,1685.64c-117.41,25.6-180.44-71.02-180.44-71.02l0,0c-4.42-14.45,12.03-26.38,24.28-17.53
				c30.43,21.99,76.75,41.67,137.74,28.37c137.96-30.06,205.51-175.39,60.66-234.44l148.73,8.44
				C2976.77,1399.45,2981.09,1643.09,2785.8,1685.64z"/>
		</g>
		<g>
			<path class="st2" d="M2527.11,1356.92c14.41,4.91,27.59,11.2,40.33,17.71c6.37,3.27,12.6,6.68,18.81,10.07l18.75,9.73
				c24.85,12.53,50.38,24.62,76.44,27.64c12.91,1.51,25.57,0.73,36.83-2.92c11.29-3.61,21.13-10.25,29.16-19.4
				c2.21-2.03,3.92-4.69,5.73-7.23c1.81-2.53,3.74-4.96,5.14-7.92l4.62-8.46l3.76-9.17l1.9-4.58l1.47-4.86l2.97-9.7
				c1.7-6.61,2.98-13.44,4.52-20.14l4.34-18.91l17.41,6.55l183.22,68.92l10.49,3.95l0.05,11c0.03,6.97-0.24,12.95-0.61,19.33
				c-0.37,6.28-0.92,12.51-1.58,18.74c-1.33,12.44-3.19,24.81-5.55,37.09c-4.7,24.57-11.61,48.83-21,72.32
				c-9.62,23.37-21.47,46.18-37.1,66.68c-15.5,20.5-34.16,39.06-55.78,53.56c-21.59,14.51-45.7,25.08-70.55,31.67
				c-6.22,1.61-12.39,3.35-18.94,4.17l-9.69,1.55c-3.23,0.5-6.44,1.13-9.75,1.14c-6.58,0.25-13.16,0.73-19.75,0.7
				c-6.6-0.47-13.21-0.87-19.79-1.48c-26.4-3.42-51.46-13.39-74.39-26.29c-11.48-6.54-21.61-15.2-30.22-25.04
				c-8.47-10.01-15.22-21.48-17.54-35.72c-0.52-3.22,1.66-6.26,4.88-6.78c1.26-0.21,2.49,0,3.55,0.53l0.65,0.32
				c22.77,11.2,38.76,25.35,57.15,37.37c8.88,6.38,18.57,11.5,28.69,15.46c5.09,1.89,10.37,3.17,15.53,4.84
				c5.3,1.11,10.65,1.99,15.96,3.04l16.24,1.21c5.44,0.01,10.91-0.44,16.36-0.6c2.73,0.04,5.45-0.54,8.17-0.97l8.16-1.31
				c5.44-0.62,10.88-2.18,16.32-3.59c21.7-5.75,42.29-14.83,60.73-27.19c18.45-12.36,34.43-28.25,47.97-46.13
				c13.65-17.85,24.24-38.18,32.95-59.31c8.5-21.26,14.88-43.55,19.23-66.3c2.18-11.37,3.92-22.86,5.14-34.37
				c0.61-5.76,1.12-11.53,1.46-17.27c0.34-5.65,0.58-11.71,0.56-16.78l10.54,14.95l-183.22-68.92l21.75-12.36
				c-1.7,7.61-3.16,15.24-5.12,22.84l-3.46,11.36l-1.75,5.68l-2.28,5.61l-4.64,11.19l-5.9,10.89c-1.81,3.68-4.36,7.09-6.83,10.53
				c-2.46,3.44-4.81,6.93-7.94,9.99c-11.28,12.91-26.63,23.35-43.4,28.63c-16.76,5.42-34.13,6.14-50.34,4.33
				c-16.29-1.8-31.79-5.66-46.69-10.6c-14.9-4.93-29.13-11.2-42.6-18.59c-26.62-15.17-51.79-32.86-68.52-60.08
				c-1.65-2.68-0.81-6.2,1.87-7.85c1.5-0.92,3.26-1.07,4.8-0.55L2527.11,1356.92z"/>
		</g>
		<g>
			<g>
				<path class="st0" d="M2759.11,1324.91c29.07,120.63,150.76,109.39,184.26,101.24c69.87-17.02,93.84-82.86,93.84-82.86
					l-56.35-74.48l-25.06-40.3l-29.93-9c-23.52-42.86-73.61-91.47-102.38-74.32C2823.49,1145.18,2734.05,1220.93,2759.11,1324.91z"
					/>
			</g>
			<g class="st22">
				<path class="st2" d="M3047.58,1304.34c0,37.58-49.23,71.68-155.22,59.33c-37.33-4.35-68.05-30.47-68.05-68.05
					c0-37.58,30.47-68.05,68.05-68.05C2929.95,1227.57,3047.58,1266.76,3047.58,1304.34z"/>
			</g>
			<g>
				<path class="st0" d="M3043.85,1182.71c-27.83,27.93-52.19,48.52-52.19,48.52l-78.09,79.91l-52.7-128.7
					c0,0-0.31-25.97,1.72-60.35c3.95-68.07,16.91-169.05,58.98-166.44c75.65,4.7,25.6,203.94,25.6,203.94
					s120.77-161.02,169.15-115.28C3144.61,1071.07,3089.55,1136.8,3043.85,1182.71z"/>
			</g>
			<g class="st22">
				<path class="st2" d="M3043.85,1182.71c-27.83,27.93-52.19,48.52-52.19,48.52l-78.09,79.91l-52.7-128.7
					c0,0-0.31-25.97,1.72-60.35c20.28,16.02,58.1,45.12,71.33,62.45C2956.7,1214.39,3013.31,1176.81,3043.85,1182.71z"/>
			</g>
			<g>
				<path class="st2" d="M2913.56,1327.43c-1.04,0-2.08-0.1-3.12-0.3c-5.38-1.05-9.87-4.74-11.95-9.81l-52.7-128.73
					c-0.78-1.9-1.19-3.93-1.21-5.98c-0.21-18.98-0.75-186.69,45.58-230.73c9.37-8.9,20.58-13.21,32.4-12.48
					c15.95,0.99,29.44,8.43,39,21.51c22.76,31.13,20.01,92.62,13.38,140c32.63-35.62,78.52-77.69,115.56-80.84
					c14.31-1.23,27.1,3.08,36.98,12.42c8.74,8.27,13.17,19.45,12.81,32.34c-1.7,60.97-121.03,164.29-137.55,178.31l-77.56,79.39
					C2922.11,1325.69,2917.9,1327.43,2913.56,1327.43z M2877.12,1179.15l42.12,102.9l60.78-62.21c0.36-0.37,0.74-0.72,1.14-1.06
					c48.43-40.95,125.63-119.21,126.62-154.86c0.12-4.53-1.26-6.47-2.64-7.78c-2.09-1.98-5.31-4.2-11.85-3.64
					c-35.31,3-100.39,73.28-133.12,116.87c-4.66,6.2-13.03,8.25-20.02,4.92c-6.99-3.34-10.67-11.14-8.78-18.65
					c13.06-52.08,25.68-145.78,3.93-175.52c-3.87-5.3-8.42-7.83-14.73-8.22c-1.85-0.13-4.39,0.19-7.96,3.58
					C2885.81,1000.93,2876.69,1112.52,2877.12,1179.15z"/>
			</g>
			<g>
				<path class="st0" d="M3051.5,1329.36c-18.53,30.12-97.2,44.19-126.4,21.55c-24.84-19.28-0.03-43.85,7.03-50.09
					c1.1-1,1.78-1.51,1.78-1.51s-30.23-9.26-35.51-34.72c-0.34-1.65-0.58-3.36-0.69-5.18c-1.85-29.37,76.58-54.73,112.2-49
					c26.63,4.29,36.78,15.13,39.29,26.73c2.68,12.35-3.33,25.56-7.34,32.63c-1.85,3.23-3.26,5.15-3.26,5.15
					S3066.35,1305.24,3051.5,1329.36z"/>
			</g>
			<g class="st22">
				<path class="st2" d="M3041.85,1269.76c-21.03,10.77-63.2,29.1-109.72,31.05c1.1-1,1.78-1.51,1.78-1.51s-30.23-9.26-35.51-34.72
					c27.9,6.11,104.96,17.74,150.79-27.45C3051.87,1249.48,3045.87,1262.69,3041.85,1269.76z"/>
			</g>
			<g class="st22">
				<path class="st2" d="M3051.5,1329.36c-18.53,30.12-97.2,44.19-126.4,21.55c-12.21-9.47-12.42-20.21-8.65-29.44
					c1.34,1.48,2.92,2.95,4.77,4.39c29.16,22.64,107.84,8.58,126.37-21.51c1.92-3.12,3.16-6.35,3.77-9.61
					C3055.99,1305.06,3058.53,1317.9,3051.5,1329.36z"/>
			</g>
			<g>
				<path class="st2" d="M2967.96,1378.38c-21.72,0-40.49-5.04-52.82-14.6c-14.12-10.95-17.1-23.51-17.12-32.12
					c-0.02-10.51,4.36-20.02,9.53-27.59c-12.84-9.11-24.77-23.42-26.06-43.61c-0.51-7.99,1.74-20.12,15.38-32.51
					c27.06-24.58,85.41-38.48,115.64-33.63l0,0c26.41,4.25,43.36,15.06,50.37,32.14c7.23,17.59,1.06,35.88-4.63,47.19
					c11.27,16.55,20.83,41.97,7.12,64.25c-10.98,17.83-36.78,31.97-69.01,37.82C2986.54,1377.51,2976.99,1378.38,2967.96,1378.38z
					 M2998.76,1225.86c-23.65,0-62.57,10.91-79.48,25.71c-4.41,3.86-5.32,6.39-5.31,6.81c1.12,17.62,24.56,25.31,24.79,25.38
					c5.74,1.84,10.05,6.71,11.12,12.65c1.06,5.94-1.19,11.99-5.94,15.71c-5.6,4.46-13.41,13.75-13.37,19.49
					c0,0.73,0.02,2.95,4.52,6.44c9.82,7.62,32.1,9.89,55.45,5.65c25.69-4.67,42.17-14.84,47.11-22.86
					c7.93-12.89-10.91-34.75-11.1-34.97c-5.17-5.73-5.65-14.34-1.09-20.57c3.75-5.23,10.55-18.7,7.29-26.51
					c-2.37-5.69-11.39-10.07-25.41-12.32l0,0C3004.81,1226.06,3001.92,1225.86,2998.76,1225.86z"/>
			</g>
			<g>
				<path class="st2" d="M2943.8,1309.86c-3.45,0-6.95-0.1-10.49-0.31c-5.66-0.33-9.98-5.19-9.65-10.85
					c0.33-5.66,5.2-10.02,10.85-9.65c53.83,3.13,98.4-22.71,98.85-22.98c4.88-2.88,11.18-1.26,14.06,3.63
					c2.88,4.89,1.26,11.18-3.63,14.06C3041.89,1284.89,2998.91,1309.86,2943.8,1309.86z"/>
			</g>
			<g>
				<path class="st0" d="M2823.5,1145.19c38.19-22.77,113.87,70.24,115.26,111.98c1.06,31.86-36.68,58.45-81.78,17.79
					C2811.29,1233.77,2763.53,1180.95,2823.5,1145.19z"/>
			</g>
			<g>
				<path class="st0" d="M3037.21,1343.3c0,0-23.99,65.82-93.83,82.83c-33.51,8.16-155.21,19.41-184.28-101.24
					c-25.06-103.97,64.39-179.7,64.39-179.7c38.19-22.77,113.87,70.24,115.26,111.98c1.06,31.86-46.29,49.93-85.96-6.14
					c0,0,20.9,50.93-23.72,85.68l105.13,60.55l79.5-15.52L3037.21,1343.3z"/>
			</g>
			<g>
				<path class="st0" d="M2849.85,1312.3l-2.09-1.2c1.58-1.24,3.02-2.44,4.39-3.71C2851.47,1309.01,2850.71,1310.66,2849.85,1312.3z
					"/>
			</g>
			<g class="st22">
				<path class="st2" d="M2854.45,1241.59c-5.59-20.59,53.54,31.82,84.3,18.36c-1.48,25.87-35.55,40.9-69.55,9.92
					C2867.18,1253.29,2854.45,1241.59,2854.45,1241.59z"/>
			</g>
			<g class="st22">
				<path class="st2" d="M3000.3,1384.35l13.42-2.61c-14.82,17.64-37.54,36.4-70.34,44.4c-33.52,8.17-155.22,19.39-184.28-101.25
					c-17.05-70.75,18.94-128.46,43.68-158.07c-20.14,32.11-38.02,78.5-25.01,132.47c29.06,120.64,150.76,109.42,184.28,101.25
					C2976.77,1396.95,2989.46,1391.22,3000.3,1384.35z"/>
			</g>
			<g>
				<path class="st0" d="M3037.19,1343.35c-0.24,0.65-2.16,5.7-6.18,13.07l-2.06,0.41L3037.19,1343.35z"/>
			</g>
			<g>
				<path class="st0" d="M3032.39,1356.15c-1.1,1.3-2.23,2.64-3.43,3.95c0.72-1.27,1.41-2.5,2.06-3.67L3032.39,1356.15z"/>
			</g>
			<g>
				<path class="st2" d="M2808.75,1407.38c-12.15-4.77-23.4-12.5-32.88-22.13c-9.49-9.64-17.2-21.12-23.07-33.33
					c-11.73-24.26-16.27-52.2-14.63-79.65c0.11-1.72,0.12-3.45,0.32-5.15l0.78-5.09l1.59-10.18c1.2-6.75,3.22-13.29,4.98-19.9
					c2.37-6.36,4.52-12.85,7.26-19.03c2.86-6.11,5.6-12.32,9.07-18.06c6.37-11.86,14.21-22.7,22.45-33.13
					c4.16-5.18,8.55-10.18,13.1-15.05c2.37-2.39,4.61-4.81,7.08-7.15c2.5-2.41,4.74-4.53,7.85-7.18c0.68-0.58,1.4-1.1,2.15-1.55
					l0.11-0.06c8.95-5.32,19.78-6.51,28.39-5.21c8.79,1.24,16.08,4.28,22.67,7.62c13.06,6.86,23.47,15.58,33.06,24.77
					c18.97,18.6,34.85,39.06,47.07,63.45c2.97,6.2,5.68,12.67,7.73,19.96c1.01,3.66,1.85,7.5,2.26,11.83l0.28,3.25
					c0.01,1.16-0.05,2.4-0.1,3.6c-0.2,2.42-0.1,4.82-0.73,7.23c-1.53,9.78-7.23,19-14.6,25.47c-7.4,6.49-16.72,10.57-25.73,11.41
					c-8.99,1.06-17.83,0.06-25.47-2.66c-1.92-0.67-3.86-1.33-5.73-2.07l-5.23-2.67c-3.59-1.69-6.61-3.9-9.68-6.06
					c-12.11-8.8-20.89-19.87-28.23-31.18l25.47-14c1.02,3.06,1.44,5.03,1.97,7.44c0.49,2.3,0.87,4.59,1.17,6.88
					c0.6,4.58,0.77,9.18,0.76,13.76c-0.21,9.17-1.84,18.37-5.1,26.93c-1.46,4.32-3.77,8.34-5.89,12.27
					c-2.49,3.79-4.99,7.48-8.12,10.63c-5.75,6.7-13.11,11.48-20.37,15.45c-1.33,0.73-2.99,0.24-3.71-1.09
					c-0.52-0.94-0.42-2.05,0.16-2.88l0.22-0.32c2.29-3.28,4.84-6.14,6.86-9.35c1.93-3.28,3.99-6.32,5.38-9.7
					c3.13-6.53,5.05-13.33,5.74-20.15c0.78-6.79,0.6-13.61-0.56-20.3c-0.6-3.34-1.31-6.65-2.32-9.86c-0.46-1.62-0.98-3.19-1.56-4.72
					c-0.52-1.41-1.29-3.24-1.68-3.9c-4.09-6.77-1.92-15.58,4.85-19.67c6.09-3.68,13.83-2.3,18.3,2.95l2.32,2.72
					c7.11,8.32,14.82,15.71,22.9,20.75c2.03,1.2,4.01,2.54,6.07,3.22l3.02,1.33l2.98,0.77c1.99,0.72,3.81,0.71,5.64,1.04
					c0.93,0.21,1.72-0.08,2.58-0.03c0.84-0.02,1.71,0.06,2.41-0.23c3.18-0.36,5.42-1.84,7.18-3.26c1.66-1.56,2.92-3.28,3.3-5.65
					c0.29-0.52,0.04-1.25,0.2-1.86l0.14-0.98l-0.11-1.31c-0.1-1.75-0.51-3.92-1.06-6.16c-1.09-4.52-2.89-9.44-5.03-14.32
					c-8.89-19.68-22.69-39-38.59-54.53c-7.94-7.74-16.75-14.56-25.39-18.98c-4.28-2.17-8.56-3.55-11.9-3.91
					c-3.43-0.34-5.34,0.19-6.97,1.16l2.25-1.61c-1.56,1.43-3.79,3.61-5.69,5.57c-1.98,1.98-3.88,4.18-5.83,6.25
					c-3.78,4.32-7.45,8.75-10.92,13.34c-6.81,9.24-13.31,18.77-18.53,28.85c-2.93,4.9-4.94,10.18-7.45,15.24
					c-2.31,5.14-4.05,10.46-6.08,15.68c-1.31,5.39-3.28,10.66-4.38,16.08l-1.53,8.15l-0.79,4.08c-0.21,1.37-0.23,2.75-0.35,4.12
					c-1.26,10.96-1.42,22.07-0.07,33.11c0.88,5.51,1.12,11.07,2.36,16.67c1.09,5.59,2.41,11.1,3.97,16.55
					c6.07,21.88,16.52,42.22,32.79,61.23c1.01,1.16,0.89,2.93-0.27,3.94C2810.8,1407.59,2809.68,1407.74,2808.75,1407.38z"/>
			</g>
			<g>
				<path class="st2" d="M3052.5,1348.87c-0.98,3.82-1.87,6.42-3.04,9.39c-1.16,2.85-2.4,5.63-3.84,8.3
					c-2.75,5.4-6.1,10.44-9.7,15.26c-7.18,9.69-16.32,17.88-26.06,24.9c-4.7,3.71-10.16,6.47-15.26,9.47
					c-5.43,2.57-10.77,5.12-16.46,6.85c-11.12,3.93-22.9,5.38-34.21,5.36c-1.32,0-2.39-1.08-2.39-2.4c0-0.85,0.44-1.59,1.11-2.01
					l0.18-0.11c9.46-5.91,18.43-11.15,26.17-17.94c4.12-2.92,7.51-6.84,11.25-9.99c3.41-3.68,6.82-7.16,9.91-10.98
					c6.3-7.48,11.64-15.54,16.93-23.54c1.2-2.09,2.54-4.07,3.85-6.07c1.15-2.09,2.51-4.07,3.75-6.11l3.69-6.07
					c1.22-1.88,2.53-4.23,3.53-5.44l2.49-3.05c5.63-6.89,15.79-7.92,22.68-2.29C3052.1,1336.49,3054,1342.99,3052.5,1348.87z"/>
			</g>
		</g>
		<g>
			<path class="st2" d="M2819,1679.97c-17.3,0-32.65-5.63-45.82-16.85c-63.88-54.4-50.84-225.9-50.26-233.18
				c0.46-5.65,5.42-9.88,11.06-9.41c5.65,0.45,9.87,5.41,9.41,11.06c-0.13,1.68-12.81,168.29,43.11,215.9
				c13.45,11.45,29.75,14.61,49.85,9.69c5.53-1.35,11.07,2.02,12.42,7.53c1.35,5.51-2.02,11.07-7.53,12.42
				C2833.51,1679.02,2826.09,1679.97,2819,1679.97z"/>
		</g>
		<g>
			<g>
				<path class="st0" d="M2730.44,1111.93L2730.44,1111.93c-5.2,1.16-10.35-2.11-11.51-7.3l-60.68-270.99
					c-1.16-5.2,2.11-10.35,7.3-11.51l0,0c54.51-12.21,108.59,22.09,120.8,76.6l20.69,92.41
					C2819.24,1045.64,2784.95,1099.73,2730.44,1111.93z"/>
				<path class="st2" d="M2728.34,1115.19c-5.8,0-11.04-4.01-12.36-9.9l-60.68-270.98c-1.52-6.82,2.78-13.6,9.59-15.13
					c56.06-12.55,111.86,22.84,124.41,78.88l20.69,92.41c12.55,56.05-22.83,111.86-78.88,124.41h0
					C2730.18,1115.09,2729.25,1115.19,2728.34,1115.19z M2687.66,822.7c-7.08,0-14.26,0.77-21.45,2.38
					c-3.56,0.8-5.81,4.35-5.01,7.91l60.68,270.98c0.8,3.56,4.34,5.8,7.91,5.01l0,0c52.8-11.82,86.13-64.39,74.31-117.19
					l-20.69-92.41C2773.19,853.78,2732.57,822.7,2687.66,822.7z"/>
			</g>
			<g class="st22">
				<path class="st2" d="M2797.34,947.8l9.71,43.34c12.19,54.49-22.09,108.58-76.61,120.81c-5.19,1.17-10.35-2.13-11.52-7.32
					l-16.15-72.03c2.19,2.96,5.99,4.49,9.81,3.66l6.42-1.46C2762.08,1025.17,2792.54,989.35,2797.34,947.8z"/>
			</g>
			<g>
				<path class="st2" d="M2728.34,1128.99c-12.11,0-23.07-8.38-25.83-20.68l-60.68-270.99c-3.18-14.24,5.81-28.42,20.04-31.61
					c63.49-14.19,126.68,25.86,140.9,89.34l20.69,92.41c14.21,63.47-25.86,126.68-89.34,140.89h0
					C2732.18,1128.79,2730.24,1128.99,2728.34,1128.99z M2726.79,1095.51c0,0-0.01,0-0.01,0
					C2726.77,1095.51,2726.78,1095.51,2726.79,1095.51z M2676.3,837.27l57.41,256.37c41.3-13,66.54-55.83,56.91-98.84l-20.69-92.41
					C2760.3,859.4,2719.22,831.42,2676.3,837.27z"/>
			</g>
			<g>
				<path class="st0" d="M1771.09,1022.43L1771.09,1022.43c5.2-1.16,10.35,2.11,11.51,7.3l60.68,270.99
					c1.16,5.2-2.11,10.35-7.3,11.51h0c-54.51,12.21-108.59-22.09-120.8-76.6l-20.69-92.41
					C1682.29,1088.72,1716.58,1034.63,1771.09,1022.43z"/>
				<path class="st2" d="M1813.87,1317.71c-47.68,0-90.79-33-101.64-81.41l-20.69-92.41c-12.55-56.05,22.83-111.86,78.88-124.41h0
					c6.8-1.53,13.6,2.78,15.12,9.59l60.68,270.98c1.52,6.81-2.78,13.6-9.59,15.13C1829.02,1316.89,1821.38,1317.71,1813.87,1317.71z
					 M1771.75,1025.38c-52.8,11.82-86.13,64.39-74.31,117.19l20.69,92.41c11.82,52.79,64.39,86.13,117.19,74.31
					c3.56-0.8,5.81-4.35,5.01-7.91l-60.68-270.98C1778.85,1026.83,1775.29,1024.59,1771.75,1025.38L1771.75,1025.38z"/>
			</g>
			<g class="st22">
				<path class="st2" d="M1826.47,1225.53l16.83,75.18c1.17,5.19-2.13,10.35-7.32,11.52c-28.61,6.39-57.13,0-79.53-15.43
					c-20.22-13.94-35.45-35.27-41.25-61.15l-8.72-38.94c23.12,30.7,62.93,46.78,102.89,37.83l9.89-2.22
					C1822.87,1231.51,1825.49,1228.83,1826.47,1225.53z"/>
			</g>
			<g>
				<path class="st2" d="M1813.87,1331.51c-53.99,0-102.82-37.37-115.1-92.2l-20.69-92.41c-6.88-30.75-1.38-62.34,15.49-88.95
					c16.87-26.61,43.1-45.06,73.85-51.95h0c14.24-3.18,28.42,5.81,31.6,20.04l60.68,270.99c3.19,14.24-5.81,28.42-20.04,31.61
					C1831.02,1330.58,1822.38,1331.51,1813.87,1331.51z M1767.82,1040.7c-18.97,5.95-35.07,18.28-45.84,35.27
					c-12.06,19.02-15.99,41.6-11.07,63.58l20.69,92.41c9.63,43,50.72,71,93.63,65.13L1767.82,1040.7z"/>
			</g>
			<g>
				<circle class="st0" cx="2250.82" cy="1067.17" r="473.22"/>
				<path class="st2" d="M2249.81,1543.51c-101.05,0-199.1-32.09-281.9-93.24c-102.33-75.57-169.1-186.46-188.02-312.26
					c-18.92-125.79,12.27-251.43,87.84-353.75c75.57-102.33,186.46-169.1,312.26-188.03c125.8-18.92,251.43,12.27,353.75,87.84
					c102.33,75.57,169.1,186.46,188.02,312.26c18.92,125.79-12.27,251.43-87.84,353.75s-186.46,169.11-312.26,188.03
					C2297.65,1541.72,2273.65,1543.51,2249.81,1543.51z M2251.82,596.87c-23.53,0-47.23,1.76-70.94,5.33
					c-124.2,18.68-233.68,84.61-308.29,185.64s-105.41,225.07-86.73,349.27c18.68,124.2,84.61,233.68,185.64,308.29
					c101.04,74.61,225.09,105.41,349.27,86.73c124.2-18.68,233.68-84.61,308.29-185.64s105.41-225.07,86.73-349.27
					c-18.68-124.19-84.61-233.68-185.64-308.29C2448.4,628.56,2351.59,596.87,2251.82,596.87z"/>
			</g>
			<g class="st22">
				<path class="st2" d="M2704.55,932.67c6.16,20.71,10.92,42.11,14.24,64.11c38.84,258.44-139.14,499.46-397.57,538.36
					c-258.44,38.84-499.46-139.14-538.36-397.57c-1.12-7.43-2.07-14.9-2.81-22.27c65.81,223.05,287.65,369.03,524.12,333.47
					C2555.16,1410.98,2730.23,1182.57,2704.55,932.67z"/>
			</g>
			<g>
				<path class="st2" d="M2249.78,1557.31c-103.98,0-204.88-33.02-290.07-95.94c-105.3-77.76-174.01-191.87-193.48-321.31
					s12.63-258.71,90.39-364.01s191.87-174.01,321.31-193.48c267.23-40.19,517.29,144.49,557.48,411.7l0,0
					c19.47,129.44-12.63,258.71-90.39,364.01c-77.76,105.3-191.87,174.01-321.31,193.48
					C2299.01,1555.47,2274.31,1557.31,2249.78,1557.31z M2251.11,610.73c-22.51,0-45.25,1.67-68.17,5.12
					c-120.55,18.13-226.83,82.13-299.25,180.19c-72.42,98.06-102.31,218.46-84.18,339.01c18.13,120.55,82.12,226.83,180.19,299.25
					c98.06,72.42,218.47,102.31,339.01,84.18c120.55-18.13,226.83-82.13,299.25-180.19s102.31-218.46,84.18-339.01l0,0
					C2668.15,773.34,2473,610.73,2251.11,610.73z"/>
			</g>
			<g>
				<path class="st12" d="M2719.09,1009.02c15.16,91.35-0.43,181.08-39.5,259.67c-29.29,58.92-170.32,176.92-363.03,210.68
					c-178.69,31.3-357.34-37.1-404.09-83.4c-62.36-61.76-106.08-141.65-121.24-233c-40.11-241.75,150.96-376.42,407.2-418.93
					C2454.65,701.51,2678.98,767.27,2719.09,1009.02z"/>
			</g>
			<g class="st27">
				
					<ellipse transform="matrix(0.0148 -0.9999 0.9999 0.0148 1496.9167 3564.2649)" class="st0" cx="2557.24" cy="1022.48" rx="79.44" ry="57.56"/>
			</g>
			<g class="st27">
				
					<ellipse transform="matrix(0.1529 -0.9882 0.9882 0.1529 953.9668 3491.3723)" class="st0" cx="2513.44" cy="1189.26" rx="36.46" ry="31.29"/>
			</g>
			<g class="st22">
				<path class="st28" d="M2591.44,798.46c65.69,44.71,111.52,113.45,127.64,210.54c15.16,91.37-0.44,181.1-39.48,259.68
					c-29.31,58.92-170.35,176.92-363.05,210.69c-68.04,11.94-136.06,9.39-196.83-0.91c236-46.57,407.65-191.16,443.97-264.23
					c49.6-99.74,69.37-213.64,50.12-329.56C2608.69,853.7,2601.12,825,2591.44,798.46z"/>
			</g>
			<g>
				<path class="st2" d="M1791.95,966.38c-2.69,0-5.41-0.71-7.88-2.19c-6.98-4.18-9.47-12.99-5.84-20.13
					c62.45-134.82,210.77-230.82,407-263.38c195.02-32.35,366.06,8.39,469.37,111.79c5.1,4.87,6.36,12.78,2.59,19.07
					c-4.37,7.29-13.8,9.69-21.1,5.31l-1.64-0.98l-1.42-1.39c-96.16-96.44-257.54-134.13-442.76-103.4
					c-186.23,30.9-326.29,120.69-384.27,246.33l-0.78,1.47C1802.33,963.7,1797.2,966.38,1791.95,966.38z"/>
			</g>
			<g class="st27">
				<path class="st0" d="M1929.49,1274.67c0,0-107.08-211.52-1.57-320.39c105.51-108.87,278.58-137.22,276.38-125.45
					c0,0-183.85,78.15-233.67,242.01C1932.2,1197.19,1929.49,1274.67,1929.49,1274.67z"/>
			</g>
		</g>
	</g>
</g>
</svg>
