<?xml version="1.0" encoding="utf-8"?>
<!-- Generator: Adobe Illustrator 24.0.0, SVG Export Plug-In . SVG Version: 6.00 Build 0)  -->
<svg version="1.1" id="Layer_1" xmlns="http://www.w3.org/2000/svg" xmlns:xlink="http://www.w3.org/1999/xlink" x="0px" y="0px"
	 viewBox="0 0 4000 4000" style="enable-background:new 0 0 4000 4000;" xml:space="preserve">
<style type="text/css">
	.st0{fill:#371A45;}
	.st1{fill:#FFFFFF;}
	.st2{opacity:0.35;}
	.st3{opacity:0.3;}
	.st4{fill:#293856;}
	.st5{fill:none;stroke:#293856;stroke-width:30.9179;stroke-linecap:round;stroke-miterlimit:10;}
	.st6{fill:#A300BF;}
	.st7{opacity:0.6;}
	.st8{fill:#620077;}
	.st9{opacity:0.5;}
	.st10{fill:#FFB200;}
	.st11{fill:#D66B09;}
	.st12{fill:#FFCC4D;}
	.st13{fill:#FFEC90;}
	.st14{opacity:0.41;}
	.st15{opacity:0.25;}
</style>
<g>
	<g>
		<g>
			<g>
				<path class="st0" d="M2199.6,2245.94c-6.8,0-12.31-5.51-12.31-12.31v-914.05c0-6.8,5.51-12.31,12.31-12.31
					s12.31,5.51,12.31,12.31v914.05C2211.91,2240.42,2206.4,2245.94,2199.6,2245.94z"/>
			</g>
		</g>
		<g>
			<g>
				<g>
					<g>
						<path class="st1" d="M1663.27,2618.75c0,0-303.1,78.98-313.91,197.89c-9.43,103.69,104.23,453.29,170.98,491.7
							c48.69,28.01,195.49-23.36,195.49-23.36L1663.27,2618.75z"/>
					</g>
				</g>
				<g class="st2">
					<g>
						<path class="st0" d="M1348.85,2836.05c3.49,122.05,108.44,436.01,171.48,472.27c48.7,28.02,195.48-23.35,195.48-23.35
							l-23.31-135.98c0,0-146.78,51.38-195.48,23.35C1451.49,3146.15,1384.11,2975.03,1348.85,2836.05z"/>
					</g>
				</g>
				<g>
					<g>
						<path class="st0" d="M1580.87,3328.18c-31.48,0-63.16-6.79-89.44-26.21c-72.58-53.62-163.22-380.53-157.05-486.21
							c5.9-101.04,191.14-163.23,199.02-165.83c7.91-2.6,16.35,1.69,18.94,9.55s-1.68,16.34-9.54,18.94
							c-48.32,15.96-174.56,72.06-178.47,139.09c-5.91,101.2,86.58,417.23,144.92,460.33c70.97,52.43,202.12-12.56,203.44-13.23
							c7.38-3.72,16.41-0.75,20.14,6.66c3.73,7.4,0.75,16.42-6.66,20.14C1721.99,3293.52,1651.97,3328.18,1580.87,3328.18z"/>
					</g>
				</g>
				<g>
					<g>
						<path class="st1" d="M2012.19,2657.32c0,0-13.23,107.25,33.26,33.7c42.43-67.18,95.25-179.19,141.86-361.82
							c0.39-1.48,0.79-3.01,1.18-4.5c0,0,21-1.83,46.75-14.71c60.72-30.34,47.71-148.59,35.97-188.79
							c-13.79-47.36-46.4-34.57-46.4-34.57c-11.44-18.73-34-28.68-72.02-28.11c-71.37,1.05-85.9,58.75-85.9,58.75
							c-65.43,196.91-145.14,318.26-192.59,378.71c-25.1,32.08-41.16,47.01-41.16,47.01L2012.19,2657.32z"/>
					</g>
				</g>
				<g class="st2">
					<g>
						<path class="st0" d="M2012.19,2657.32c0,0-13.23,107.25,33.26,33.7c42.43-67.18,95.25-179.19,141.86-361.82
							c-15.63-3.8-38.63-10.96-50.77-21.78c-30.38-27.15-35.88-89.7-35.88-89.7c-12.57,60.33,0,95.64,14.67,115.54
							c15.8,21.39,20.65,49.02,11.44,73.99c-13.4,36.27-30.29,75.73-57.05,101.23c-61.46,58.54-147.15,32.3-195.42-12.48
							c-25.1,32.08-41.16,47.01-41.16,47.01L2012.19,2657.32z"/>
					</g>
				</g>
				<g class="st2">
					<g>
						<path class="st0" d="M2209.7,2320.14c0,0-55.42,20.25-92.33-63.53c0,0,21.31,10.63,73.86,7.94
							c52.18-2.68,87.58-52.35,87.58-52.35S2282.43,2302.49,2209.7,2320.14z"/>
					</g>
				</g>
				<g>
					<g>
						<path class="st0" d="M1840.71,2544.62c-4.3,0-8.57-1.78-11.63-5.27c-5.63-6.42-4.99-16.18,1.43-21.81
							c1.81-1.61,124.43-112.75,221.53-404.63c6.36-24.09,35.23-68.87,100.52-69.85c36.88-0.52,62.67,8.12,78.8,26.48
							c16.87,19.21,21.95,47.12,16.02,87.86c-5.85,40.21-33.09,68.36-63.27,65.55c-27.74-2.6-56.24-32.66-53-109.23
							c0.36-8.53,7.47-15.1,16.1-14.79c8.53,0.36,15.15,7.57,14.79,16.1c-2.16,51.19,11.45,75.87,25,77.14
							c11.46,0.97,26.05-13.62,29.79-39.22c4.47-30.67,1.64-51.28-8.66-63c-9.65-11-28.21-16.38-55.11-15.97
							c-58.83,0.87-71.04,46.63-71.16,47.09l-0.32,1.1c-100.34,301.91-225.37,413.99-230.64,418.62
							C1847.96,2543.35,1844.33,2544.62,1840.71,2544.62z"/>
					</g>
				</g>
				<g>
					<g>
						<path class="st0" d="M1964.87,2799.86c-5.33,0-10.51-2.76-13.38-7.7c-4.29-7.38-1.78-16.85,5.6-21.13
							c1.1-0.66,121.99-77.36,216.4-450.12l2.7-10.65l10.94-0.96c0.12-0.01,18.71-1.89,41.2-13.14
							c48.37-24.18,39.79-130.4,28.07-170.62c-3.52-12.07-8.63-20.14-14.79-23.34c-5.68-2.96-11.24-1.13-11.48-1.05
							c-7.94,3.13-16.76-0.86-19.88-8.8c-3.12-7.95,0.95-16.98,8.9-20.09c1.8-0.71,18.09-6.65,35.77,2.04
							c14.51,7.12,24.99,21.46,31.15,42.6c14.75,50.57,24.16,172.89-43.92,206.93c-16.62,8.31-31.57,12.46-41.2,14.48
							c-98.03,379.99-223.02,456.38-228.33,459.46C1970.18,2799.18,1967.51,2799.86,1964.87,2799.86z"/>
					</g>
				</g>
				<g>
					<g>
						<path class="st0" d="M2177.72,2340.42c-19.39,0-35.59-6.24-48.28-18.63c-24.47-23.9-33.49-68.94-26.82-133.87
							c6.52-63.44,34.96-73.44,40.59-74.8l7.04,29.16c0,0,0.42-0.03,1.11-0.33c-0.14,0.06-14.56,6.79-18.9,49.04
							c-5.53,53.81,0.83,92.64,17.93,109.34c8.59,8.4,20.43,11.5,36.18,9.51c8.2-0.99,15.72,4.78,16.77,13
							c1.04,8.22-4.78,15.72-13,16.77C2186.01,2340.14,2181.8,2340.42,2177.72,2340.42z"/>
					</g>
				</g>
				<g>
					<g>
						<path class="st1" d="M1545.28,2973.16c7.29,15.13,12.82,30.76,17.44,46.76c14.54,49.93,20.3,103.12,43.13,153.59
							c5.66,12.5,12.55,23.33,19.66,32.44c2.22,2.85,4.44,5.53,6.66,8.06c16.81,19.07,32.58,28.59,32.58,28.59
							c0.09,4.98,0.45,11.33,0.68,18.89c1,31.08,0.63,83.14-21.79,148.06c-1.63,4.8-3.35,9.65-5.3,14.54
							c-15.04,39.01-5.94,165.28,10.51,194.09c47.25,83.09,165.68,70.45,199.39,13.73c30.49-51.47,17.71-151.32,11.96-186.43
							c-1.31-8.02-2.27-12.64-2.27-12.64c31.26-65.42,58.13-153.27,58.13-219.1c0,0,8.43,1.4,19.84,1.54l-0.05,2.17
							c4.49,40.73-3.08,110.28-17.9,173.84c-1.63,7.02-3.35,14-5.16,20.84c-8.74,32.98,7.48,137.28,51.06,189.11
							c50.52,60.17,161.2,39.14,183.4-5.75c26.73-53.91-8.2-144.44-21.57-175.29c-2.99-6.84-4.89-10.69-4.89-10.69
							c55.73-131.89,58.99-244.7,49.11-358.69c-15.59-178.69-86.67-319.36-159.7-416.23c-4.58-6.07-9.38-12.01-14.27-17.85
							c-6.21-7.39-12.64-14.59-18.94-21.48c-11.19-12.14-22.11-23.38-31.4-33.25l-12.73,10.78l-20.7,4.8l-343.51,80.01l-2.99,40.32
							l-1.31,18.08l-2.85,38.83l-7.25,97.54l-4.3,58.35l-3.58,47.93L1545.28,2973.16z"/>
					</g>
				</g>
				<g class="st2">
					<g>
						<path class="st0" d="M1963.87,3601.27c50.5,60.15,161.2,39.15,183.42-5.76c26.71-53.91-8.21-144.44-21.61-175.3
							c-1.66,0.83-2.53,1.09-2.53,1.09s50.55,93.5-4.5,143.61c-43.39,39.55-113.4,27.02-142.13-25.49
							c-35.01-64.08-39.55-179.19-39.55-179.19l-18.99,31.08c-1.66,7.03-3.36,14.01-5.19,20.86
							C1904.07,3445.13,1920.31,3549.41,1963.87,3601.27z"/>
					</g>
				</g>
				<g class="st3">
					<g>
						<path class="st4" d="M1774.38,3465.86l2.62-0.61C1775.78,3465.47,1774.86,3465.69,1774.38,3465.86z"/>
					</g>
				</g>
				<g class="st3">
					<g>
						<path class="st4" d="M1773.86,3465.99l0.52-0.13C1774.03,3465.95,1773.86,3465.99,1773.86,3465.99z"/>
					</g>
				</g>
				<g class="st2">
					<g>
						<path class="st0" d="M1648.84,3618.2c47.27,83.11,165.7,70.45,199.4,13.75c30.51-51.51,17.72-151.34,11.96-186.48
							l-82.98,19.73c11.44-2.18,48.41-4.36,50.68,57.66c1.53,40.73-5.02,86.08-59.45,93.28
							c-133.75,17.59-123.71-117.64-117.68-194.33c1.18-15.32-1.7-17.94-7.11-12.27c-1.62,4.8-3.36,9.65-5.28,14.58
							C1623.31,3463.11,1632.43,3589.39,1648.84,3618.2z"/>
					</g>
				</g>
				<g class="st2">
					<g>
						<path class="st0" d="M1881.95,3395.77c0,0-30.58,62.64-110.44,75.39c-7.76,1.24-11.29-9.32-4.36-13.03
							c31.06-16.61,76.4-58.6,88.78-115.92c10.61-49.14,6.16-97.14,0.16-129.97c-4.04-22.11,12.2-42.7,34.65-43.72
							c40.35-1.83,98.88-6.46,137.35-18.15c25.82-7.84,52.49-18.58,75.23-38.24c9.24-7.99,23.55-2.01,24.3,10.18
							c0.74,11.9-0.23,24.13-5.91,30.29c-21.62,23.42-123.01,52.62-205.78,69.86c0,0-1.64,37.65-13.68,87.78
							C1888.61,3366.97,1881.95,3395.77,1881.95,3395.77z"/>
					</g>
				</g>
				<g class="st2">
					<g>
						<path class="st0" d="M1935.89,3217.49c0,0,119.72-18.88,177.77-74.93c0,0-5.72,71.74-109.1,128.1
							c-46.21,25.19-66.96,56.92-80.91,100.59C1923.66,3371.25,1943.34,3272.83,1935.89,3217.49z"/>
					</g>
				</g>
				<g>
					<g>
						<path class="st0" d="M2052.34,3653.42c-40.64,0-77.06-15.23-99.96-42.51c-47.32-56.35-63.63-166.63-54.11-202.58
							c17.79-67.2,27.35-146.77,22.72-189.2c-0.9-8.24,5.05-15.64,13.29-16.54c8.25-0.9,15.63,5.05,16.54,13.29
							c5.05,46.37-4.63,128.67-23.54,200.13c-7.11,26.85,6.53,126.15,48.07,175.61c20.08,23.91,55.01,35.42,93.42,30.82
							c30.34-3.64,57.1-17.45,65.09-33.57c23.97-48.43-11.02-141.11-26.52-172.74l-3.01-6.14l2.66-6.31
							c57.26-135.44,56.89-249,47.97-351.54c-12.31-141.48-49.77-254.51-117.85-355.72c-4.62-6.88-2.8-16.2,4.07-20.82
							c6.88-4.63,16.2-2.79,20.82,4.07c71.04,105.6,110.07,223.13,122.84,369.87c9.13,104.83,9.57,220.91-47.64,359.63
							c12.09,26.63,54.87,129.7,23.54,193.01c-12.8,25.86-46.67,45.04-88.4,50.05C2065.6,3653.03,2058.91,3653.42,2052.34,3653.42z"
							/>
					</g>
				</g>
				<g>
					<g>
						<path class="st0" d="M1993.23,2610.46c7.56,4.57,14.5,9.68,21.32,14.93c6.73,5.32,13.27,10.84,19.54,16.63
							c6.26,5.8,12.49,11.69,17.93,18.27c5.45,6.57,10.52,13.55,14.24,21.59c3.53,7.64,0.19,16.68-7.45,20.21
							c-5.88,2.71-12.61,1.36-16.99-2.9l-0.21-0.22c-5.83-5.69-10.74-12.14-15.45-18.85c-4.73-6.69-8.89-13.91-13.12-21.14
							c-4.23-7.23-8.3-14.64-12.24-22.2c-3.85-7.63-7.66-15.34-10.84-23.58c-0.45-1.17,0.13-2.48,1.29-2.93
							C1991.92,2610.02,1992.65,2610.11,1993.23,2610.46z"/>
					</g>
				</g>
				<g>
					<g>
						<path class="st1" d="M1559.9,2624.58"/>
					</g>
				</g>
				<g>
					<g>
						<path class="st5" d="M1559.9,2624.58"/>
					</g>
				</g>
				<g>
					<g>
						<path class="st1" d="M1987.45,3405.04"/>
					</g>
				</g>
				<g>
					<g>
						<path class="st1" d="M1576.69,2948.73l11.57,32.17l-0.87-14.75C1584.5,2960.21,1581.01,2954.36,1576.69,2948.73z"/>
					</g>
				</g>
				<g>
					<g>
						<path class="st0" d="M1754.13,3692.5c-0.47,0-0.93,0-1.4,0c-50.38-0.46-93-24.83-116.93-66.87
							c-18.26-32.09-28.29-163.24-11.44-206.9c29.32-75.95,27.01-134.44,25.77-165.87c-0.03-0.72-0.06-1.43-0.08-2.12
							c-12.92-9.47-40.68-33.02-57.86-71.02c-16.25-35.95-22.53-77.18-28.6-117.05c-6.58-43.18-12.79-83.98-30.81-111.4
							c-4.55-6.92-2.62-16.23,4.3-20.78c6.93-4.54,16.23-2.62,20.78,4.3c21.61,32.91,28.3,76.84,35.39,123.36
							c5.77,37.87,11.73,77.02,26.28,109.21c18.52,40.97,52.72,62.28,53.06,62.49l6.99,4.28l0.21,8.22c0.06,2.7,0.18,5.81,0.32,9.32
							c1.24,31.2,3.8,96.12-27.75,177.86c-13.4,34.73-4.63,156.39,9.52,181.26c18.5,32.5,51.72,51.35,91.13,51.71
							c35.65,0.44,68.56-15.03,82.32-38.21c34.08-57.39,8.2-187.1,7.93-188.4l-1.01-4.93l2.17-4.54
							c34.53-72.2,54.34-146.53,54.34-203.93c0-8.29,6.71-15,15-15s15,6.71,15,15c0,60.51-20.06,137.68-55.15,212.39
							c4.79,26.04,23.71,143.76-12.49,204.72C1841.98,3671.82,1800.09,3692.5,1754.13,3692.5z"/>
					</g>
				</g>
				<g>
					<g>
						<path class="st1" d="M1724.81,3448.94"/>
					</g>
				</g>
				<g>
					<g>
						<path class="st0" d="M1908.86,3205.7c8.45-2.61,16.97-4.82,25.53-6.88c8.47-2.34,17.02-4.4,25.55-6.48
							c16.95-4.51,34.1-8.44,50.93-13.43c16.88-4.83,33.69-10.06,50.17-16.23c16.44-6.13,33.01-12.75,48.23-21.49l0.13-0.08
							c0.86-0.49,1.95-0.2,2.45,0.66c0.41,0.71,0.27,1.58-0.27,2.14c-6.51,6.67-13.75,12.13-21.16,17.47
							c-7.39,5.38-15.17,10.12-23.02,14.76c-15.78,9.13-32.24,17.02-49.03,24.01c-16.76,7.11-33.9,13.2-51.31,18.34
							c-8.72,2.49-17.5,4.72-26.33,6.79c-8.86,1.86-17.76,3.56-26.72,4.87c-6.84,1-13.2-3.74-14.2-10.59
							c-0.9-6.19,2.9-11.99,8.7-13.77L1908.86,3205.7z"/>
					</g>
				</g>
				<g>
					<g>
						<path class="st0" d="M2214.99,2717.73c-10.94,0-18-1.56-18.26-1.62c-6.72-1.58-10.88-8.32-9.3-15.03s8.25-10.87,15.03-9.3
							c3.07,0.69,76.61,16,106.67-83.26c17.91-59.12-23.12-113.4-62.78-165.9c-30.47-40.33-59.26-78.42-59.26-117.27
							c0-6.9,5.6-12.5,12.5-12.5s12.5,5.6,12.5,12.5c0,30.46,26.33,65.31,54.2,102.2c41.42,54.8,88.35,116.93,66.76,188.22
							C2305.83,2705.67,2245.42,2717.73,2214.99,2717.73z"/>
					</g>
				</g>
				<g>
					<g>
						<path class="st1" d="M2101.42,3015.41c-16.45,8.65-35.02,18.03-55.18,27.64c12.41-4.85,23.79-9.47,33.89-13.68
							C2088.19,3025.97,2095.39,3021.21,2101.42,3015.41z"/>
					</g>
				</g>
				<g>
					<g>
						<path class="st0" d="M1768.82,3464.22c9.81-2.74,19.28-6.35,28.06-10.72c8.83-4.27,17.06-9.33,24.5-15.1
							c7.48-5.72,14.23-12.05,20.41-18.84c1.48-1.76,3.27-3.2,4.64-5.07c1.43-1.8,2.93-3.54,4.47-5.25
							c3.03-3.47,5.61-7.33,8.93-10.75l1.15-1.19c4.8-4.95,12.71-5.08,17.67-0.28c4.01,3.88,4.84,9.82,2.48,14.56
							c-5.03,10.06-11.76,19.43-20.16,27.15c-8.1,8.03-17.96,14.12-28.03,19.01c-10.1,4.94-20.85,8.22-31.66,9.97
							c-10.84,1.69-21.73,2.06-32.47,0.07c-0.98-0.18-1.63-1.13-1.45-2.11c0.13-0.7,0.65-1.23,1.29-1.41L1768.82,3464.22z"/>
					</g>
				</g>
				<g>
					<g>
						<path class="st0" d="M2042.12,3447.17c18.11-8.44,34.31-19.33,47.37-32.3c6.59-6.44,12.36-13.42,17.6-20.65
							c5.55-7.05,9.82-14.83,15.16-22.32l0.67-0.94c4.01-5.63,11.83-6.95,17.47-2.94c4.69,3.34,6.38,9.32,4.51,14.48
							c-3.76,10.34-9.27,20.2-16.57,28.59c-6.99,8.65-15.8,15.68-24.99,21.56c-9.2,5.93-19.13,10.44-29.34,13.54
							c-10.24,3.03-20.68,4.88-31.33,4.51c-1-0.03-1.78-0.87-1.75-1.88c0.02-0.71,0.45-1.3,1.04-1.58L2042.12,3447.17z"/>
					</g>
				</g>
				<g>
					<g>
						<path class="st1" d="M1415.03,3393.97c27.91,8.06,148.65,32.44,145.34-81.14c-0.68-23.97-8.47-62.61-7.93-62.66
							s64.11,32.76,82.09-1.81c6.52-12.55,4.53-24.1-2.36-34.34c-1.86-2.76-4.12-5.48-6.66-8.06
							c-21.88-22.29-65.6-36.74-84.18-39.14c0,0,0.14-1.54,0.41-4.39c1.63-17.53,8.43-84.5,20.98-142.49
							c6.8-31.31,15.27-60.03,25.51-76.93l-8.88-62.43l-4.12-29.18l-13.73-96.55l-6.93-48.61c-1.59,0-107.92,0.45-148.83,122.51
							c-0.09,0.23-0.14,0.45-0.23,0.68c-24.47,73.71-29.31,209.81-17.62,394.89C1391.2,3276.62,1356.04,3376.84,1415.03,3393.97z"/>
					</g>
				</g>
				<g class="st2">
					<g>
						<path class="st0" d="M1525.62,3180.94c4.94,3.49,10.51-5.03,16.13-18.53c1.63-17.53,8.43-84.5,20.98-142.49
							c14.54,49.93,20.3,103.12,43.13,153.59c5.66,12.5,12.55,23.33,19.66,32.44c2.22,2.85,4.44,5.53,6.66,8.06
							c16.81,19.07,32.58,28.59,32.58,28.59c0.09,4.98,0.45,11.33,0.68,18.89l17.26-1.99c0,0,1.41-33.05-2.98-71.69
							c-2.3-20.26,11.47-38.66,31.55-42.22c33.77-5.99,75.97-18.74,126.16-43.66c0,0,25.42-63.38-27.14-81.69
							c0,0-90.88,58.49-172.48,46.44c-15.22-34.66-28.36-81.6-20.8-152c5.53-51.33-11.24-52.28-29.4-40.46
							c-2.99,1.99-5.75,4.08-8.25,6.34c-17.49,15.54-23.79,37.69-29.86,65.06c-0.86,3.94-1.95,8.29-3.13,13.05
							c-9.65,38.42-28.63,101.71-36.88,171.76C1502.06,3193.62,1525.62,3180.94,1525.62,3180.94z"/>
					</g>
				</g>
				<g>
					<g>
						<path class="st0" d="M1592.66,2945.69c-4.54,18.03-7.47,36.17-10.6,54.63l-4.84,27.63l-4.59,27.83l-8.79,56.04
							c-2.82,18.7-5.17,37.68-7.02,56.33l-13.49-16.75c8.12,1.22,14.99,3.06,21.96,5.1c6.91,2.07,13.65,4.45,20.29,7.13
							c13.27,5.43,26.24,11.9,38.58,20.9c6.14,4.56,12.17,9.71,17.52,16.4c5.27,6.64,10.13,15.05,11.74,25.17
							c1.62,10.12-0.69,20.72-4.88,28.8c-2.27,4.33-5.21,8.77-9.17,12.35c-3.89,3.6-8.43,6.45-13.05,8.37
							c-9.31,3.74-18.29,4.3-26.41,3.93c-8.14-0.47-15.7-1.92-22.92-3.84c-7.22-1.93-14.12-4.33-20.83-7.05l-5-2.11l-4.6-2.07
							c-1.09-0.54,1.03,0.79,4.9,1.16c0.72,7.56,26.76-23.93,16.4-15.56l-0.05-0.89l0.11,0.8l0.36,2.28l0.81,4.9
							c2.21,13.3,4.35,26.79,5.74,40.75c0.71,6.93,1.15,14.37,0.96,21.77c-0.04,7.38-0.74,14.93-2.08,22.5
							c-2.54,15.07-9.01,30.76-19.88,43.41c-10.93,12.65-25.76,21.24-40.55,25.71c-14.88,4.71-29.85,6.03-44.39,5.97
							c-14.56-0.18-28.78-1.84-42.78-4.7c-3.51-0.74-7-1.51-10.52-2.43c-1.78-0.46-3.47-0.9-5.41-1.5l-6.2-2.18
							c-8.24-3.37-16.2-9.02-22.04-16.15c-5.9-7.11-9.63-15.2-12.05-22.98c-2.4-7.82-3.57-15.48-4.22-22.92
							c-1.27-14.9-0.44-28.99,0.7-42.75c1.21-13.72,2.91-27.11,4.3-40.17c1.35-13.08,2.49-25.74,1.73-37.43l-2.29-40.23
							c-1.36-26.84-2.48-53.7-3.09-80.61s-0.89-53.85-0.38-80.85c0.47-27,1.44-54.04,3.71-81.14c2.25-27.09,5.49-54.25,11.16-81.41
							c1.38-6.79,3.2-13.57,4.85-20.36l3.04-10.16l1.55-5.07l1.92-4.99c2.66-6.63,4.95-13.38,7.96-19.88
							c3.29-6.4,6.48-12.85,9.92-19.17c3.98-6.06,7.86-12.19,12.01-18.14l6.86-8.52c2.33-2.81,4.36-5.87,7.04-8.39
							c5.19-5.17,9.92-10.87,15.77-15.39l8.53-7.05c3.03-2.1,6.17-4.06,9.26-6.07c12.57-7.68,26.26-13.66,40.62-16.56
							c7.15-1.51,14.44-2.3,21.76-2.21c7.37,0.13,14.47,0.8,21.98,3.23c2.83,0.92,4.38,3.96,3.47,6.79
							c-0.49,1.51-1.58,2.66-2.93,3.26l-0.58,0.26c-12.05,5.32-23.81,10.53-34.86,15.8c-2.75,1.4-5.56,2.58-8.26,3.99
							c-2.66,1.5-5.39,2.79-8.08,4.17c-2.65,1.44-5.16,3.14-7.8,4.56l-3.91,2.23l-3.73,2.52c-2.51,1.64-4.97,3.33-7.54,4.9
							l-7.13,5.48c-5.02,3.35-9.09,7.86-13.64,11.84c-4.38,4.17-8.01,9.1-12.01,13.68c-3.55,4.96-6.74,10.21-10.17,15.28
							c-24.69,42.75-31.68,95.71-36.26,147.89c-2.19,26.21-3.15,52.67-3.61,79.15c-0.51,26.48-0.22,53.04,0.37,79.61
							c0.6,26.57,1.7,53.16,3.05,79.74l2.27,39.88c0.93,15.03-0.47,29.13-1.84,42.63c-1.45,13.53-3.1,26.69-4.24,39.61
							c-1.08,12.87-1.74,25.6-0.7,37.37c0.94,11.76,3.89,22.54,9.29,28.88c2.68,3.21,5.92,5.55,10.04,7.29l3.26,1.14
							c1.25,0.4,2.8,0.81,4.25,1.18c2.94,0.77,5.99,1.44,9.02,2.08c24.29,4.87,50.14,6.18,71.67-0.47
							c10.75-3.27,19.82-8.85,26.46-16.46c6.52-7.7,10.95-17.52,12.84-28.76c0.98-5.59,1.56-11.41,1.58-17.39
							c0.16-5.98-0.17-11.91-0.82-18.28c-1.25-12.65-3.29-25.61-5.47-38.68l-0.83-5l-0.42-2.67l-0.23-1.69
							c-0.04-0.49-0.1-0.49-0.17-2.14c-10.34,8.25,15.6-23.73,16.59-15.96c4.06,0.44,6.38,1.85,5.48,1.4l4.55,2.05l4.24,1.79
							c5.67,2.3,11.44,4.3,17.14,5.82c5.7,1.53,11.35,2.54,16.57,2.84c5.2,0.27,9.85-0.34,13-1.63c3.07-1.41,4.77-2.92,6.43-6.08
							c1.89-3.82,2.34-6.92,1.94-10.06c-0.81-6.3-7.71-14.85-17.06-21.49c-9.28-6.8-20.38-12.47-31.85-17.13
							c-5.75-2.33-11.64-4.4-17.54-6.17c-5.84-1.77-11.97-3.25-17.1-3.88l-14.74-1.8l1.25-14.95c1.62-19.51,3.65-38.59,5.75-57.88
							c2.12-19.24,4.89-38.45,8.51-57.56l2.88-14.32l3.4-14.26c1.09-4.75,2.35-9.5,3.76-14.22c1.39-4.73,2.69-9.42,4.44-14.1
							c1.69-4.67,3.39-9.32,5.27-13.92c2.15-4.57,4.17-9.16,6.41-13.63c2.4-4.47,5.08-8.89,7.8-13.14c2.84-4.28,6.42-8.31,9.78-12.1
							c1.91-2.16,5.21-2.35,7.37-0.44c1.5,1.34,2.05,3.34,1.6,5.17L1592.66,2945.69z"/>
					</g>
				</g>
				<g class="st2">
					<g>
						<path class="st0" d="M1415.07,3394c27.85,8.08,148.63,32.43,145.31-81.15c-0.31-10.26-1.31-21.52-2.58-31.78
							c-22.79,68.18-122.33,72.09-140.77,55.15c-24.52-22.52-23.38-73.78-26.52-95.09C1384.92,3290.11,1373.25,3381.86,1415.07,3394
							z"/>
					</g>
				</g>
				<g class="st2">
					<g>
						<path class="st0" d="M2131.02,2913.26c-25.85-49.98-43.9-98.31-56.4-142.55c9.58,24.75,20.88,50.3,34.35,76.32
							c15.77,30.53,28.64,63.62,36.82,97.61C2141.25,2933.96,2136.28,2923.47,2131.02,2913.26z"/>
					</g>
				</g>
				<g>
					<g>
						<circle class="st1" cx="2127.08" cy="2887.98" r="49.01"/>
					</g>
				</g>
				<g class="st2">
					<g>
						<path class="st0" d="M2173.61,2872.64c8.47,25.71-5.48,53.43-31.19,61.9c-25.71,8.47-53.44-5.52-61.91-31.22
							c-2.34-7.1-2.98-14.39-2.08-21.37c12.65,13.26,32.3,18.88,50.87,12.76c18.57-6.12,31.02-22.32,33.28-40.49
							C2167.45,2859.29,2171.27,2865.54,2173.61,2872.64z"/>
					</g>
				</g>
				<g>
					<g>
						<path class="st0" d="M2127.02,2952.48c-9.95,0-19.82-2.33-28.96-6.94c-15.38-7.75-26.81-21.03-32.2-37.38
							c-5.39-16.36-4.09-33.83,3.67-49.2c7.75-15.38,21.03-26.81,37.38-32.2c33.77-11.12,70.28,7.29,81.41,41.05v0
							c11.12,33.76-7.3,70.28-41.05,81.4C2140.62,2951.4,2133.8,2952.48,2127.02,2952.48z M2127.06,2854.43
							c-3.47,0-7,0.54-10.47,1.69c-8.51,2.8-15.42,8.75-19.46,16.76c-4.03,8-4.71,17.09-1.9,25.61c2.8,8.51,8.75,15.42,16.75,19.45
							c8.01,4.03,17.1,4.71,25.61,1.91c17.57-5.79,27.15-24.79,21.37-42.37C2154.3,2863.38,2141.15,2854.43,2127.06,2854.43z"/>
					</g>
				</g>
				<g>
					<g>
						<path class="st1" d="M2116.61,3019.44l-240.82,95.55c-28.5,11.32-61.1-2.75-72.43-31.28l-50.84-128.15
							c-9.91-24.98-0.35-53.07,21.34-67.27c3.06-2.03,6.39-3.75,9.94-5.16l240.78-95.54c28.54-11.33,61.13,2.73,72.43,31.28
							l40.29,101.49l10.59,26.65C2159.22,2975.54,2145.11,3008.12,2116.61,3019.44z"/>
					</g>
				</g>
				<g class="st2">
					<g>
						<path class="st0" d="M2116.61,3019.44l-240.82,95.55c-28.5,11.32-61.1-2.75-72.43-31.28l-50.84-128.15
							c-9.91-24.98-0.35-53.07,21.34-67.27c17.28,3.66,28.27,6.02,28.27,6.02c52.54,98.21,102.18,137.89,230.75,89.29
							c55.49-20.99,86.96-43.21,104.43-63.24l10.59,26.65C2159.22,2975.54,2145.11,3008.12,2116.61,3019.44z"/>
					</g>
				</g>
				<g>
					<g>
						<path class="st0" d="M1855.32,3131.43c-27.19,0-52.94-16.34-63.56-43.1l-50.86-128.17c-6.7-16.89-6.4-35.44,0.84-52.23
							c7.25-16.79,20.55-29.72,37.45-36.43l240.8-95.55c16.89-6.7,35.45-6.41,52.23,0.84c16.79,7.25,29.72,20.55,36.43,37.45
							l50.86,128.17c6.7,16.89,6.41,35.44-0.84,52.23s-20.55,29.72-37.45,36.43l-240.8,95.55
							C1872.18,3129.88,1863.69,3131.43,1855.32,3131.43z M1875.81,3115h0.05H1875.81z M2045.05,2796.14
							c-5.37,0-10.73,1.02-15.84,3.04l-240.8,95.55c-10.69,4.24-19.11,12.45-23.71,23.1c-4.6,10.65-4.8,22.41-0.56,33.1
							l50.86,128.17c8.8,22.19,34.03,33.08,56.2,24.27l240.8-95.55c10.69-4.24,19.11-12.45,23.71-23.1
							c4.6-10.66,4.8-22.41,0.56-33.1l-50.86-128.17c-4.24-10.69-12.44-19.11-23.1-23.71
							C2056.75,2797.34,2050.9,2796.14,2045.05,2796.14z"/>
					</g>
				</g>
				<g>
					<g>
						<path class="st1" d="M2125.9,3014.65c-2.86,1.89-5.95,3.48-9.29,4.78l-240.82,95.55c-20.89,8.28-43.96,2.96-59.27-11.75
							c-5.57-5.34-10.12-11.92-13.12-19.54l-22.61-56.92l-7.46-18.78l-20.8-52.44c-11.33-28.54,2.78-61.11,31.28-72.43l52.04-20.63
							c-22.19,14.04-32.07,42.43-22.07,67.67l27.45,69.23l23.41,58.96c11.32,28.5,43.93,42.6,72.43,31.28L2125.9,3014.65z"/>
					</g>
				</g>
				<g class="st2">
					<g>
						<path class="st0" d="M2125.9,3014.65c-2.86,1.89-5.95,3.48-9.29,4.78l-240.82,95.55c-28.5,11.32-61.1-2.75-72.39-31.29
							l-30.07-75.71c11.37,10.97,28.76,23.08,46.86,17.89c9.94-2.82,16.61-13.43,21.04-26.49l23.41,58.96
							c11.32,28.5,43.93,42.6,72.43,31.28L2125.9,3014.65z"/>
					</g>
				</g>
				<g>
					<g>
						<path class="st0" d="M1855.35,3131.44c-9.21,0-18.42-1.89-27.16-5.67c-16.79-7.25-29.73-20.56-36.42-37.46l-50.85-128.16
							c-6.71-16.88-6.41-35.44,0.84-52.23c7.25-16.78,20.55-29.72,37.44-36.44l52.02-20.63l11.3,22.18
							c-17.57,11.14-24.77,33.23-17.11,52.53l50.86,128.16c4.23,10.69,12.44,19.12,23.09,23.72c10.65,4.6,22.39,4.8,33.08,0.56
							l188.87-74.96l11.41,22.1c-3.64,2.36-7.53,4.35-11.57,5.93l-240.74,95.53C1872.31,3129.83,1863.83,3131.44,1855.35,3131.44z
							 M1800.25,2890.03l-11.84,4.7c-10.69,4.24-19.11,12.46-23.72,23.11c-4.6,10.65-4.8,22.41-0.55,33.09l50.86,128.17
							c4.23,10.69,12.44,19.11,23.09,23.72c10.65,4.6,22.39,4.8,33.08,0.56l13.39-5.31c-14.42-7.59-25.52-19.9-31.55-35.13
							l-50.85-128.16C1796.33,2920.07,1795.96,2904.35,1800.25,2890.03z"/>
					</g>
				</g>
				<g>
					<g>
						<path class="st6" d="M1934.57,2957.62c1.85,4.75,10.14,45.7,10.14,45.7s-12.15,4.74-27.06,10.56
							c-18.63,7.27-41.27-6.13-50.55-29.93c-9.29-23.8-1.71-48.99,16.93-56.26c12.58-4.91,27.06-10.56,27.06-10.56
							S1931.55,2949.88,1934.57,2957.62z"/>
					</g>
				</g>
				<g class="st2">
					<g>
						<path class="st0" d="M1934.57,2957.62c1.85,4.75,10.14,45.7,10.14,45.7s-12.15,4.74-27.06,10.56
							c-18.63,7.27-41.27-6.13-50.55-29.93c-9.29-23.8-1.71-48.99,16.93-56.26c12.58-4.91,27.06-10.56,27.06-10.56
							S1931.55,2949.88,1934.57,2957.62z"/>
					</g>
				</g>
				<g>
					<g>
						<g>
							<path class="st0" d="M1912.17,3018.33c-18.97,0-38.34-14.31-47.06-36.66c-5.1-13.06-5.88-26.99-2.2-39.21
								c3.88-12.88,12.18-22.38,23.39-26.76l18.89-7.37c8.12-3.16,17.35-0.08,21.91,7.36c11.13,18.13,17.68,29.64,19.46,34.2v0
								c0.47,1.21,1.72,4.41,8.71,38.21c1.78,8.63-2.89,17.22-11.1,20.42l-18.8,7.33
								C1921.09,3017.53,1916.64,3018.33,1912.17,3018.33z M1911.74,2922.09c-0.37,0-0.74,0.07-1.1,0.21l-18.89,7.37
								c-6.82,2.66-11.96,8.74-14.48,17.1c-2.72,9.03-2.08,19.48,1.81,29.44c7.77,19.91,26.1,31.41,40.84,25.66l18.8-7.33
								c1.38-0.54,2.16-1.97,1.87-3.42c-6.3-30.46-7.77-35.17-8-35.81c-1.39-3.54-8.22-15.42-18.27-31.79
								C1913.75,2922.62,1912.77,2922.09,1911.74,2922.09z"/>
						</g>
					</g>
					<g>
						<g>
							
								<ellipse transform="matrix(0.9316 -0.3635 0.3635 0.9316 -941.9583 904.7004)" class="st6" cx="1932.9" cy="2955.22" rx="36.22" ry="46.26"/>
						</g>
					</g>
					<g class="st2">
						<g>
							<path class="st0" d="M1900.79,2925.67c0.62,4.21,1.71,8.48,3.36,12.72c9.29,23.8,31.92,37.2,50.55,29.93
								c6.56-2.56,11.72-7.38,15.29-13.54c2.86,19.47-4.97,37.56-20.29,43.54c-18.63,7.27-41.27-6.13-50.55-29.93
								C1893.14,2952.97,1894.24,2937,1900.79,2925.67z"/>
						</g>
					</g>
					<g class="st7">
						<g>
							<path class="st1" d="M1961.64,2957.06c-9.29-23.8-31.92-37.2-50.55-29.93c-6.61,2.58-11.8,7.44-15.37,13.67
								c1.88-13.27,9.08-24.27,20.37-28.67c18.63-7.27,41.27,6.13,50.55,29.93c5.99,15.35,4.93,31.26-1.56,42.58
								C1966.3,2976.01,1965.29,2966.44,1961.64,2957.06z"/>
						</g>
					</g>
					<g>
						<g>
							<path class="st0" d="M1939.23,3007.77c-18.97,0-38.34-14.31-47.06-36.66c-10.77-27.62-1.26-57.21,21.19-65.97
								c22.46-8.76,49.49,6.58,60.26,34.19c5.1,13.06,5.88,26.99,2.2,39.21c-3.88,12.89-12.18,22.38-23.39,26.76
								C1948.15,3006.97,1943.7,3007.77,1939.23,3007.77z M1926.78,2917.63c-2.71,0-5.4,0.48-7.97,1.48
								c-14.75,5.76-20.43,26.64-12.67,46.55c7.77,19.91,26.09,31.42,40.84,25.66c6.82-2.66,11.96-8.74,14.48-17.1
								c2.72-9.03,2.08-19.48-1.81-29.44C1953.23,2928.35,1939.63,2917.63,1926.78,2917.63z"/>
						</g>
					</g>
				</g>
				<g>
					<g>
						<path class="st0" d="M2041.38,3060.72c-5.08,0-9.86-3.13-11.72-8.17l-30.44-82.34c-3.16-8.57-1.83-18.08,3.56-25.43
							l21.55-29.45c0.43-0.59,0.53-1.35,0.26-2.03l-42.71-108.72c-2.52-6.43,0.64-13.68,7.07-16.21c6.42-2.51,13.68,0.64,16.21,7.07
							l42.71,108.72c3.41,8.7,2.16,18.39-3.36,25.94l-21.56,29.46c-0.42,0.58-0.53,1.33-0.28,2l30.44,82.33
							c2.39,6.47-0.91,13.67-7.39,16.06C2044.29,3060.46,2042.82,3060.72,2041.38,3060.72z"/>
					</g>
				</g>
				<g>
					<g>
						<path class="st1" d="M1572.09,3008.78c0,0-16.76,23.84-10.05,52.13c7.76,32.7,30.65,40.81,30.65,40.81
							s96.87,23.4,224.11-42.14c0,0,25.4-63.38-27.19-81.68C1789.6,2977.9,1652.24,3035.86,1572.09,3008.78z"/>
					</g>
				</g>
				<g class="st2">
					<g>
						<path class="st0" d="M1562.05,3060.92c7.75,32.67,30.63,40.78,30.63,40.78s96.86,23.42,224.13-42.13
							c0,0,8.34-20.89,5.53-42.09c-0.36,1.18-0.63,1.81-0.63,1.81c-93,47.92-169.78,48.3-204.35,45.03
							c-24.02-2.27-44.31-19.3-50.16-42.7c-0.08-0.32-0.16-0.65-0.24-0.97c-0.14-0.54-0.27-1.09-0.32-1.63
							C1562.46,3028.62,1558.02,3043.98,1562.05,3060.92z"/>
					</g>
				</g>
				<g>
					<g>
						<path class="st0" d="M1638.56,3121.32c-29.77,0-47.78-4.16-49.51-4.58l-1.53-0.45c-11.45-4.06-32.87-19.54-40.53-51.82
							c-8.22-34.66,11.6-63.38,12.45-64.59l6.65-9.45l10.95,3.7c73.63,24.86,205.24-29.92,206.56-30.47l5.47-2.3l5.62,1.95
							c17.59,6.12,30.59,17.47,37.57,32.81c13.77,30.23,0.45,65.32-1.11,69.22l-2.15,5.35l-5.12,2.64
							C1747.04,3112.9,1680.9,3121.32,1638.56,3121.32z M1597.4,3086.92c10.59,2.09,96.49,16.59,206.76-38.27
							c2.81-9.79,5.75-27.12-0.09-39.81c-2.85-6.21-7.62-10.9-14.49-14.24c-26.73,10.55-133.88,49.77-209.57,32.45
							c-2.97,7.46-5.73,18.53-2.94,30.29C1582,3078.1,1594.24,3085.36,1597.4,3086.92z"/>
					</g>
				</g>
				<g>
					<g>
						<path class="st0" d="M2028.08,3385.54c-32.49,0-68.88-8.32-106.15-32.43c-4.64-3-5.97-9.19-2.97-13.83
							c3-4.63,9.2-5.96,13.83-2.97c107.78,69.72,207.13-6.93,208.12-7.71c4.34-3.42,10.62-2.69,14.04,1.65s2.69,10.63-1.65,14.04
							C2152.54,3344.89,2099.87,3385.54,2028.08,3385.54z"/>
					</g>
				</g>
				<g>
					<g>
						<path class="st0" d="M1767.77,3382.98c-35.21,0-74.11-8.42-112.37-33.17c-4.64-3-5.97-9.19-2.97-13.83
							c3-4.63,9.19-5.96,13.83-2.97c108.29,70.06,222.63-4.14,223.76-4.9c4.6-3.05,10.81-1.79,13.86,2.81
							c3.05,4.6,1.79,10.81-2.81,13.86C1900.23,3345.34,1842.22,3382.98,1767.77,3382.98z"/>
					</g>
				</g>
				<g>
					<g>
						<path class="st0" d="M1549.28,3108.05c-1.1,0-2.23-0.19-3.33-0.58c-1.09-0.38-109.5-38.15-157.53-1.47
							c-4.4,3.35-10.67,2.5-14.02-1.88c-3.35-4.39-2.51-10.66,1.88-14.02c56.63-43.23,171.49-3.2,176.35-1.47
							c5.21,1.85,7.92,7.56,6.08,12.76C1557.25,3105.49,1553.39,3108.05,1549.28,3108.05z"/>
					</g>
				</g>
				<g>
					<g>
						<path class="st0" d="M2149.1,2438.42c-142.56,0-166.95-131.9-167.19-133.27c-0.94-5.44,2.71-10.62,8.15-11.55
							c5.5-0.98,10.61,2.71,11.55,8.14c0.9,5.11,23.17,122.44,157.39,116.46c0.15,0,0.3-0.01,0.46-0.01c5.31,0,9.74,4.18,9.98,9.55
							c0.25,5.52-4.02,10.19-9.54,10.44C2156.24,2438.34,2152.62,2438.42,2149.1,2438.42z"/>
					</g>
				</g>
				<g>
					<g class="st2">
						<g>
							<path class="st0" d="M1405.74,2828.73c29.81,11.78,61.34,19.35,93.74,22.06c17.26,1.45,35.57,2.13,54.78,1.59
								c6.89-0.18,13.86-0.5,20.98-1c61.12-4.3,130.03-20.8,201.79-59.49c101.76-54.96,163.1-129.62,199.98-196.63
								c-11.19-12.14-22.11-23.38-31.4-33.25l-12.73,10.78l-20.7,4.8l-343.51,80.01l-2.99,40.32l-1.31,18.08l-2.85,38.83
								l-6.93-48.61C1552.99,2706.22,1446.65,2706.67,1405.74,2828.73z"/>
						</g>
					</g>
					<g>
						<g>
							<g>
								<path class="st1" d="M2005.79,2250.03c6.91,80.68-6.31,163.42-41.22,240.37c-7.13,15.69-15.11,31.11-24.02,46.22
									c-4.31,7.36-8.91,14.67-13.67,21.94c-14.47,21.83-30.39,42.08-47.6,60.75c-14.79,16.13-30.56,31.05-47.06,44.75
									c-19.93,16.57-41.03,31.33-63.02,44.29c-8.03,4.7-16.17,9.17-24.4,13.42c-150.85,77.42-337.94,73.3-489.3-27.06
									c-223.01-147.79-283.95-448.37-136.19-671.36c28.49-42.93,62.62-79.94,100.82-110.48c4.43-3.61,8.98-7.11,13.6-10.51
									c12.29-9.17,24.95-17.7,37.94-25.58c30.05-18.21,61.86-32.97,94.74-44.17c32.86-11.22,66.87-18.89,101.3-22.86
									c10.95-1.27,21.94-2.18,32.99-2.69c16.56-0.76,33.16-0.72,49.83,0.25c82.98,4.58,165.88,30.62,240.16,79.87
									C1918.98,1972.21,1993.61,2107.77,2005.79,2250.03z"/>
							</g>
							<g>
								<path class="st0" d="M1523.26,2776.74c-94.02,0-187.66-27.15-268.56-80.79c-223.31-147.99-284.58-450.07-136.61-673.39
									c28.1-42.34,62.12-79.62,101.12-110.82c4.22-3.44,8.82-6.99,13.65-10.54c12.26-9.14,25.06-17.78,38.05-25.66
									c29.84-18.09,61.81-32.99,95.02-44.3c32.88-11.23,67.06-18.95,101.61-22.92c11.07-1.28,22.2-2.19,33.09-2.7
									c16.94-0.78,33.75-0.69,49.98,0.25c85.67,4.73,168.97,32.43,240.89,80.12c124.37,82.4,203.01,215.05,215.76,363.93l0,0
									c7.06,82.54-7.24,165.91-41.35,241.1c-7.22,15.91-15.33,31.51-24.09,46.36c-3.96,6.77-8.45,13.96-13.7,21.99
									c-14.31,21.59-30.37,42.09-47.75,60.94c-14.53,15.84-30.42,30.95-47.21,44.88c-19.64,16.33-40.91,31.28-63.21,44.43
									c-7.99,4.68-16.22,9.2-24.47,13.46C1675.56,2758.97,1599.28,2776.74,1523.26,2776.74z M1523.42,1808.02
									c-7.5,0-15.06,0.17-22.65,0.52c-10.82,0.5-21.88,1.4-32.89,2.68c-34.34,3.96-68.32,11.62-101,22.79
									c-33.02,11.24-64.79,26.05-94.45,44.03c-12.91,7.83-25.64,16.41-37.83,25.51c-4.8,3.53-9.36,7.05-13.55,10.47
									c-38.77,31.01-72.59,68.07-100.52,110.16c-147.09,221.97-86.18,522.23,135.78,669.32
									c145.45,96.44,332.37,106.76,487.82,26.97c8.2-4.23,16.39-8.74,24.33-13.38c22.16-13.07,43.3-27.92,62.82-44.15
									c16.69-13.86,32.48-28.87,46.92-44.61c17.27-18.75,33.24-39.12,47.46-60.57c5.22-7.98,9.68-15.13,13.62-21.87
									c8.72-14.77,16.77-30.27,23.95-46.08c33.91-74.74,48.12-157.6,41.09-239.64l0,0c-12.67-147.98-90.83-279.83-214.45-361.73
									c-71.48-47.4-154.28-74.93-239.43-79.63C1541.59,1808.28,1532.56,1808.02,1523.42,1808.02z"/>
							</g>
						</g>
						<g class="st2">
							<g>
								<path class="st0" d="M1255.51,2694.71c151.36,100.38,338.48,104.49,489.31,27.05c8.24-4.24,16.37-8.71,24.39-13.41
									c22-12.96,43.09-27.73,63.02-44.28c16.5-13.72,32.28-28.64,47.06-44.75c17.22-18.67,33.14-38.92,47.62-60.76
									c4.73-7.28,9.34-14.57,13.67-21.93c8.91-15.12,16.86-30.55,24-46.24c34.91-76.96,48.15-159.68,41.22-240.38
									c-3.79-44.32-13.65-88.02-29.31-129.73c4.84,77.14-8.74,155.81-42.04,229.23c-7.1,15.71-15.09,31.12-24,46.24
									c-4.3,7.35-8.91,14.64-13.67,21.93c-14.48,21.84-30.4,42.09-47.59,60.75c-14.81,16.12-30.56,31.03-47.06,44.75
									c-19.94,16.55-41.06,31.33-63.02,44.28c-8.05,4.71-16.18,9.18-24.42,13.41c-150.83,77.44-337.92,73.32-489.31-27.05
									c-88.33-58.53-151.2-141.04-185.77-233.18C1048.71,2467.01,1123.87,2607.49,1255.51,2694.71z"/>
							</g>
						</g>
						<g>
							<g>
								<path class="st0" d="M1523.26,2786.58c-95.93,0-191.46-27.71-274-82.43c-227.83-150.98-290.35-459.19-139.38-687.04
									c28.67-43.2,63.38-81.24,103.18-113.07c4.28-3.49,9-7.14,13.96-10.79c12.46-9.29,25.52-18.1,38.78-26.14
									c30.45-18.46,63.07-33.67,96.96-45.2c33.53-11.46,68.41-19.33,103.65-23.39c11.29-1.31,22.65-2.23,33.76-2.75
									c17.29-0.79,34.44-0.7,51.01,0.26c87.39,4.82,172.39,33.09,245.76,81.74c126.88,84.07,207.11,219.4,220.12,371.29l0,0
									c7.21,84.22-7.38,169.29-42.19,246.01c-7.37,16.23-15.63,32.14-24.58,47.29c-4.03,6.89-8.6,14.22-13.95,22.38
									c-14.63,22.07-31.02,42.98-48.75,62.22c-14.82,16.16-31.03,31.57-48.16,45.79c-20.04,16.67-41.74,31.92-64.5,45.33
									c-8.16,4.78-16.55,9.39-24.96,13.73C1678.65,2768.45,1600.82,2786.58,1523.26,2786.58z M1523.42,1817.87
									c-7.35,0-14.76,0.17-22.2,0.51c-10.59,0.49-21.42,1.37-32.2,2.62c-33.65,3.87-66.93,11.39-98.95,22.32
									c-32.35,11.01-63.48,25.52-92.53,43.13c-12.64,7.67-25.1,16.07-37.05,24.98c-4.72,3.47-9.15,6.89-13.22,10.21
									c-38.05,30.43-71.17,66.74-98.54,107.97c-144.08,217.44-84.41,511.58,133.01,655.67c142.48,94.46,325.6,104.59,477.89,26.42
									c8.03-4.14,16.06-8.56,23.85-13.12c21.68-12.78,42.38-27.33,61.5-43.23c16.35-13.57,31.81-28.28,45.96-43.7
									c16.93-18.38,32.58-38.34,46.51-59.36c5.1-7.79,9.47-14.81,13.33-21.4c8.55-14.5,16.45-29.69,23.48-45.18
									c33.21-73.2,47.13-154.37,40.25-234.73l0,0c-12.41-144.97-88.98-274.13-210.08-354.37
									c-70.02-46.43-151.12-73.41-234.54-78.01C1541.22,1818.12,1532.37,1817.87,1523.42,1817.87z"/>
							</g>
						</g>
						<g>
							<g>
								<path class="st0" d="M1523.25,2789.86c-96.55,0-192.73-27.9-275.81-82.97c-229.34-151.99-292.27-462.23-140.29-691.59
									c28.85-43.48,63.8-81.77,103.87-113.82c4.3-3.5,9.07-7.19,14.07-10.87c12.52-9.34,25.67-18.21,39.02-26.3
									c30.65-18.58,63.49-33.89,97.61-45.51c33.75-11.53,68.85-19.45,104.33-23.54c11.36-1.32,22.8-2.25,33.98-2.77
									c17.4-0.79,34.67-0.71,51.35,0.26c87.96,4.86,173.53,33.31,247.38,82.28c127.72,84.63,208.49,220.85,221.58,373.75l0,0
									c7.26,84.78-7.43,170.41-42.47,247.65c-7.42,16.33-15.74,32.35-24.74,47.61c-4.06,6.92-8.65,14.3-14.03,22.51
									c-14.74,22.23-31.23,43.28-49.08,62.65c-14.91,16.25-31.23,31.77-48.47,46.09c-20.18,16.77-42.03,32.13-64.93,45.63
									c-8.22,4.81-16.66,9.45-25.12,13.82C1679.67,2771.62,1601.34,2789.86,1523.25,2789.86z M1523.42,1821.15
									c-7.3,0-14.66,0.17-22.05,0.51c-10.5,0.49-21.26,1.36-31.97,2.6c-33.41,3.85-66.47,11.31-98.26,22.17
									c-32.13,10.94-63.04,25.35-91.88,42.83c-12.55,7.61-24.93,15.96-36.79,24.8c-4.7,3.45-9.08,6.84-13.11,10.12
									c-37.81,30.24-70.7,66.29-97.88,107.24c-143.08,215.93-83.83,508.03,132.09,651.12c141.49,93.8,323.33,103.86,474.58,26.24
									c7.97-4.11,15.95-8.5,23.69-13.03c21.52-12.69,42.08-27.13,61.06-42.92c16.24-13.48,31.59-28.08,45.64-43.39
									c16.82-18.25,32.35-38.08,46.19-58.95c5.06-7.73,9.41-14.7,13.24-21.25c8.5-14.4,16.34-29.49,23.33-44.88
									c32.98-72.69,46.8-153.29,39.97-233.09c-12.33-143.96-88.37-272.23-208.62-351.91c-69.54-46.11-150.08-72.9-232.91-77.47
									C1541.1,1821.4,1532.3,1821.15,1523.42,1821.15z"/>
							</g>
						</g>
						<g>
							<g>
								<path class="st6" d="M2000.44,2374.04c-128.12,321.62-528.33,415.65-733.45,140.87
									c-139.55-186.94-64.26-467.91,123.87-590.44c136.92-89.18,309.61-116.35,506.12,58.32c0,0,75.05,90.76,91.37,173.31
									c16.32,82.55,18.26,165.6,18.26,165.6L2000.44,2374.04z"/>
							</g>
						</g>
						<g>
							<g>
								<path class="st8" d="M1267,2514.91c205.11,274.77,605.33,180.74,733.45-140.85l1.24-10.61
									c-230.25,218.16-592.95,232.96-805.5-41C1201.32,2390.59,1223.94,2457.21,1267,2514.91z"/>
							</g>
						</g>
						<g>
							<g>
								<path class="st0" d="M1577.53,2739.84c-19.4,0-38.76-1.25-57.94-3.76c-121.04-15.89-226.01-79.2-303.57-183.09
									c-71.37-95.59-98.24-218.09-75.67-344.92c24.56-138,106.09-263.96,218.13-336.92c62.89-40.96,126.87-66.64,190.15-76.33
									l1.3-0.2l1.31,0.07c87.66,4.84,172.88,33.18,246.46,81.96c127.23,84.3,207.68,220,220.72,372.29l0,0
									c7.23,84.44-7.4,169.75-42.3,246.67c-7.39,16.27-15.68,32.23-24.64,47.42c-4.04,6.9-8.62,14.25-13.98,22.44
									c-14.67,22.13-31.1,43.11-48.88,62.4l-1.46,1.36C1796.31,2700.94,1686.12,2739.84,1577.53,2739.84z M1551.15,1820.04
									c-59.28,9.29-119.45,33.62-178.87,72.32c-106.28,69.22-183.67,188.91-207.03,320.16c-21.33,119.87,3.9,235.42,71.04,325.35
									c73.38,98.28,172.49,158.15,286.6,173.13c119.45,15.69,246.19-21.11,347.78-100.99c16.61-18.1,31.97-37.75,45.68-58.43
									c5.09-7.76,9.45-14.77,13.3-21.33c8.53-14.46,16.4-29.61,23.42-45.06c33.11-72.99,46.99-153.93,40.13-234.06
									c-12.38-144.56-88.73-273.35-209.48-353.36C1714.24,1851.69,1633.86,1824.84,1551.15,1820.04z"/>
							</g>
						</g>
						<g>
							<g>
								
									<ellipse transform="matrix(0.8403 -0.5422 0.5422 0.8403 -1196.9126 1052.7235)" class="st1" cx="1188.06" cy="2557.57" rx="125.87" ry="173.23"/>
							</g>
							<g>
								<path class="st0" d="M1228.75,2732.8c-59.85,0-126.33-41.88-165.62-110.39l0,0c-29.79-51.95-38.8-108.97-24.73-156.46
									c9.66-32.61,29.35-57.32,56.92-71.47c68.74-35.25,166.37,8.8,217.64,98.23c29.79,51.94,38.8,108.97,24.74,156.45
									c-9.66,32.61-29.35,57.33-56.93,71.47C1264.7,2728.89,1247.03,2732.8,1228.75,2732.8z M1088.46,2607.9
									c43.63,76.09,123.94,115.04,178.99,86.77c20.31-10.42,34.92-29.01,42.27-53.79c11.64-39.28,3.39-89.24-22.07-133.64
									c-43.64-76.1-123.94-115.02-178.99-86.78c-20.31,10.42-34.92,29.02-42.26,53.79
									C1054.76,2513.54,1063.01,2563.5,1088.46,2607.9L1088.46,2607.9z"/>
							</g>
						</g>
						<g>
							<g>
								
									<ellipse transform="matrix(0.8212 -0.5707 0.5707 0.8212 -1270.7324 1125.1614)" class="st1" cx="1160.04" cy="2590.28" rx="102.56" ry="137.48"/>
							</g>
							<g>
								<path class="st0" d="M1190.78,2718.98c-29.82,0-61.51-13.45-88.74-38.03l0,0c-55.67-50.26-75.1-131.82-43.3-181.79
									c13.17-20.69,33.13-33.4,57.71-36.73c33.38-4.5,70.41,9.02,101.59,37.17c55.67,50.27,75.09,131.82,43.3,181.8
									c-13.17,20.69-33.13,33.4-57.71,36.73C1199.39,2718.7,1195.1,2718.98,1190.78,2718.98z M1129.33,2464.62
									c-4.2,0-8.35,0.28-12.46,0.83c-23.67,3.21-42.88,15.43-55.55,35.35c-31.04,48.77-11.86,128.57,42.76,177.89l0,0
									c30.51,27.55,66.61,40.83,99.14,36.42c23.67-3.21,42.88-15.43,55.55-35.35c31.04-48.77,11.86-128.58-42.76-177.89
									C1189.34,2477.79,1158.39,2464.62,1129.33,2464.62z"/>
							</g>
						</g>
						<g class="st2">
							<g>
								<path class="st0" d="M1273.06,2592.6c-7.06-25.07-21.02-48.3-38.98-67.33c11.28,58.53-21.77,103.99-77.65,103.65
									c-36.11-0.21-73.46-19.53-101.24-48.99c0.69,3.7,1.61,7.47,2.67,11.27c18,63.84,80.77,115.91,140.2,116.29
									C1257.49,2707.87,1291.04,2656.41,1273.06,2592.6z"/>
							</g>
						</g>
						<g>
							<g>
								<path class="st0" d="M1195.84,2729.65c-47.32,0-100.65-35.23-134.11-93.06l0,0c-25.22-43.59-33.53-92.22-22.22-130.08
									c7.21-24.14,21.71-42.29,41.96-52.47c53.7-27.02,129.43,9.99,172.4,84.24c25.21,43.59,33.52,92.22,22.22,130.09
									c-7.21,24.14-21.72,42.28-41.96,52.47C1222.25,2726.81,1209.28,2729.65,1195.84,2729.65z M1119.78,2470.52
									c-9.58,0-18.69,1.97-26.94,6.12c-13.86,6.97-23.92,19.8-29.09,37.1c-9.35,31.32-1.91,72.5,19.88,110.17l0,0
									c35.65,61.63,98.04,94.97,139.13,74.31c13.86-6.97,23.92-19.8,29.09-37.1c9.35-31.32,1.92-72.5-19.88-110.18
									C1203.47,2501.7,1157.89,2470.52,1119.78,2470.52z"/>
							</g>
						</g>
						<g class="st9">
							<g>
								<path class="st1" d="M1344.06,2075.54c0,0,181.02-102.11,341.79-64.32c0.17,0.04,0.34,0.08,0.51,0.12
									c33.83,7.98,64.89,24.98,90.04,48.97c33.26,31.72,51.54,58.46,66.72,82.61c46.14,73.48,54.01,116.55,54.01,116.55
									c17.42-65.07,13.3-123.94-24.53-185.53c-3.74-6.06-7.83-12.17-12.22-18.32c-1.01-1.42-2.04-2.8-3.1-4.18
									c0.02-0.03-0.01-0.06-0.08-0.07c-9.77-11.81-23.19-26.85-39.75-42.55c-49.91-47.38-128.21-100.9-220.48-90.61
									C1424.44,1937.44,1333.19,2071.66,1344.06,2075.54z"/>
							</g>
						</g>
						<g class="st9">
							<g>
								
									<ellipse transform="matrix(0.9556 -0.2948 0.2948 0.9556 -630.256 493.7724)" class="st1" cx="1322.6" cy="2337.3" rx="64.75" ry="75.45"/>
							</g>
						</g>
						<g class="st9">
							<g>
								
									<ellipse transform="matrix(0.977 -0.2131 0.2131 0.977 -494.6789 347.1486)" class="st1" cx="1363.02" cy="2468.29" rx="26.74" ry="31.16"/>
							</g>
						</g>
					</g>
				</g>
			</g>
		</g>
		<g>
			<g>
				<g>
					<g>
						<path class="st10" d="M2789.22,1015.26c-2.42,26.33-6.43,52.42-12.05,78.14c-7.82,36.13-18.77,71.51-32.62,105.71
							c-60.06,148.37-175.05,274.77-332.4,345.94c-157.7,71.32-328.98,74.06-480.29,20.84c-33.23-11.7-65.5-26.09-96.43-43.05
							c-24.27-13.27-47.69-28.14-70.16-44.48c158.38-39.83,341.44-104.08,530.89-189.76
							C2485.59,1202.93,2654.72,1107.89,2789.22,1015.26z"/>
					</g>
				</g>
				<g>
					<g>
						<path class="st11" d="M2296.16,1288.6c189.43-85.67,358.56-180.7,493.06-273.33c-2.42,26.33-6.43,52.42-12.05,78.14
							c-103.51,75.2-268.89,168.04-461.48,255.14c-184.46,83.43-356.41,144.63-480.26,174.3c-24.27-13.27-47.69-28.14-70.16-44.48
							C1923.66,1438.52,2106.71,1374.28,2296.16,1288.6z"/>
					</g>
				</g>
				<g>
					<g>
						<path class="st10" d="M2763.02,765.92c-105.04,84.94-312.51,203.84-560.36,315.95c-247.82,112.08-474.16,189.37-607.32,212.14
							c-13.86-22.65-26.43-46.41-37.65-71.2c-0.52-1.17-1.04-2.3-1.57-3.5c-4.89-10.94-9.43-21.94-13.64-33.04
							c-9.9-25.91-18.01-52.12-24.37-78.46c-0.28-1.08-0.52-2.12-0.77-3.2c-9.25-39.18-14.72-78.67-16.5-117.98
							c-3.47-74.83,6.27-149.05,27.9-219.46c16.13-52.43,38.84-102.73,67.7-149.6c65.21-105.87,161.65-194.13,283.5-249.23
							c12.11-5.47,24.28-10.54,36.54-15.21c164.17-62.63,339.95-53.69,490.91,13.09c0.95,0.43,1.91,0.83,2.86,1.29
							c65.49,29.29,126.25,69.58,179.29,119.58c25.94,24.49,50.06,51.32,71.91,80.39c2.4,3.13,4.73,6.33,7.07,9.53
							c1.94,2.61,3.81,5.26,5.69,7.93c15.58,22.19,29.9,45.61,42.81,70.13c4.83,9.1,9.44,18.38,13.83,27.78
							c1.2,2.58,2.4,5.16,3.56,7.78C2745.63,715.4,2755.16,740.57,2763.02,765.92z"/>
					</g>
				</g>
				<g>
					<g>
						<path class="st11" d="M2730.84,682.87c1.22,2.56,2.41,5.14,3.59,7.75c11.21,24.8,20.74,49.94,28.6,75.29
							c-105.03,84.95-312.51,203.86-560.36,315.95c-247.83,112.08-474.16,189.37-607.31,212.14c-13.85-22.64-26.44-46.4-37.66-71.2
							c-0.53-1.17-1.04-2.31-1.55-3.49c126.25-13.95,356.65-88.72,609.3-202.99C2428.07,897.55,2642.8,768.64,2730.84,682.87z"/>
					</g>
				</g>
				<g>
					<g>
						<path class="st11" d="M1509.47,1003.47c-3.31,0-6.47-0.08-9.5-0.24l1.72-33.23c88.69,4.59,319.91-68.72,562.18-178.28
							c289.15-130.77,476.21-256.66,511.55-313.42l28.24,17.59c-45.01,72.3-261.34,206.41-526.08,326.15
							C1835.06,931.73,1609.77,1003.47,1509.47,1003.47z"/>
					</g>
				</g>
				<g>
					<g>
						<path class="st11" d="M1531.19,783.64l-4.89-32.92c99.42-14.77,271.57-73.86,449.27-154.23
							c186.22-84.22,347.44-177.21,420.75-242.69l22.17,24.82c-75.66,67.57-240.12,162.67-429.2,248.18
							C1808.97,708.35,1633.44,768.45,1531.19,783.64z"/>
					</g>
				</g>
				<g>
					<g>
						<path class="st11" d="M1518.32,1121.24c-0.35,0-0.7,0-1.05,0l0.17-33.27c0.32,0,0.65,0,0.98,0
							c102.21,0,340.22-76.62,593.07-190.97c266.14-120.37,489.68-255.99,543.61-329.81l26.87,19.63
							c-57.88,79.23-281.63,216.06-556.77,340.5C1868.43,1043.44,1624.88,1121.24,1518.32,1121.24z"/>
					</g>
				</g>
				<g>
					<g>
						<path class="st11" d="M1932.45,1574.19l-0.59-8.25l-3.12-7.76l1.2-0.48l1.32-0.1c87.63-6.31,254.48-60.25,425.08-137.4
							c171.53-77.58,318.07-164.58,382.41-227.05l11.59,11.94c-65.63,63.72-213.98,151.96-387.15,230.27
							C2188.31,1514.45,2023.26,1567.65,1932.45,1574.19z"/>
					</g>
				</g>
				<g>
					<g>
						<path class="st0" d="M2146.42,1619.74c-138.45,0-276.03-43.14-391.45-127.24l-30.2-22l36.24-9.11
							c163.05-41.01,345.61-106.27,527.94-188.73c182.32-82.46,351.88-176.44,490.35-271.8l30.77-21.19l-3.42,37.2
							c-21.81,237.45-170.21,445.95-387.29,544.13C2332.28,1600.37,2239.15,1619.74,2146.42,1619.74z M1806.89,1485.61
							c178.26,114.04,403.99,131.25,598.04,43.49c194.08-87.78,330.21-268.63,362.26-477.8
							c-133.91,89.05-293.4,176.17-463.82,253.24C2132.94,1381.62,1962.19,1443.86,1806.89,1485.61z"/>
					</g>
				</g>
				<g>
					<g>
						<path class="st11" d="M2771.87,606.36c0.6,1.33,1.06,2.72,1.39,4.17L2771.87,606.36z"/>
					</g>
				</g>
				<g>
					<g>
						<path class="st12" d="M3105.94,623c38.98,86.19-89.53,235.82-316.71,392.27c-134.51,92.63-303.64,187.66-493.06,273.33
							c-189.45,85.68-372.5,149.93-530.89,189.76c-267.51,67.28-464.71,64.96-503.7-21.23c-35.4-78.28,67.3-208.82,256.54-349.32
							c6.38,26.35,14.48,52.55,24.38,78.47c-52.32,42.78-78.08,76.73-69.13,96.51c9.11,20.15,53.07,22.98,121.98,11.21
							c133.15-22.77,359.48-100.06,607.31-212.14c247.85-112.09,455.34-231,560.36-315.95c54.32-43.96,81.23-78.84,72.11-98.99
							c-8.94-19.76-51.45-22.86-118.1-11.83c-12.92-24.55-27.25-47.94-42.82-70.13C2904.68,535.63,3070.53,544.72,3105.94,623z"/>
					</g>
				</g>
				<g>
					<g>
						<path class="st13" d="M1503.8,1363.03c-49.68,0-87.56-10.31-100.04-37.91c-17.85-39.46,22.86-98.93,120.98-176.75l15.51,19.55
							c-123.06,97.6-118.18,137.13-113.75,146.92c15.37,33.97,135.96,36.47,370.7-34.5c129.13-39.08,275.14-94.9,422.22-161.43
							c147.09-66.52,285.42-139.29,400.02-210.44c208.34-129.41,286.1-221.61,270.74-255.59c-4.43-9.79-30.87-39.56-185.45-11.6
							l-4.44-24.56c123.24-22.3,194.78-13.59,212.63,25.88c34.71,76.73-160.72,212.8-280.31,287.07
							c-115.52,71.72-254.83,145.02-402.9,211.98c-148.06,66.96-295.12,123.18-425.28,162.57
							C1718.14,1330.31,1592.27,1363.03,1503.8,1363.03z"/>
					</g>
				</g>
				<g>
					<g>
						<path class="st13" d="M1467.72,1450.12c-70.22,0-127.73-14.25-146.49-55.73c-34.77-76.87,87.12-190.97,195.49-273.15
							l15.08,19.88c-138.81,105.28-209.03,196.11-187.84,242.99c12.57,27.79,59.78,42.37,133.29,41.17
							c76.3-1.29,179.71-19.31,299.06-52.11c147.06-40.41,312.45-101.41,478.3-176.42c165.83-75,320.86-158.91,448.32-242.65
							c103.45-67.96,185.28-133.72,236.64-190.16c49.39-54.29,69.68-99.49,57.11-127.28c-21.2-46.87-135.78-54.13-306.51-19.41
							l-4.97-24.45c133.29-27.11,299.47-43.28,334.22,33.58c47.1,104.14-196.05,278.46-302.79,348.58
							c-128.52,84.44-284.73,169-451.73,244.53c-167.02,75.53-333.68,137-481.97,177.74
							C1708.84,1417.58,1573.8,1450.11,1467.72,1450.12z"/>
					</g>
				</g>
				<g>
					<g>
						<path class="st0" d="M1449.82,1543.11c-109.54,0-180.52-26.43-204.19-78.77c-51.86-114.65,141.92-281.39,262.05-370.58
							l21.22-15.75l6.22,25.69c6.26,25.83,14.24,51.52,23.73,76.34l4.51,11.8l-9.78,8c-68.83,56.29-64.34,75.59-64.26,75.76
							c0.07,0.17,11.96,16.73,103.09,1.17c135.75-23.22,366.82-104,603.04-210.84c236.23-106.83,449.49-227,556.57-313.61
							c71.83-58.14,67.26-78,67.18-78.17c-0.08-0.17-11.62-16.28-99.3-1.78l-12.46,2.06l-5.88-11.18
							c-12.39-23.54-26.4-46.49-41.66-68.23l-15.19-21.64l25.85-5.53c146.3-31.31,399.48-66.71,451.33,47.94
							c42,92.87-75.63,243.73-322.73,413.9c-140.16,96.52-311.6,191.56-495.78,274.86c-184.2,83.31-368.8,149.28-533.83,190.79
							C1642.57,1527.27,1534.64,1543.11,1449.82,1543.11z M1507.83,1137.47c-170.86,130.81-258.77,249.52-230.31,312.44
							c33.33,73.7,218.59,78.09,483.49,11.47c163.05-41.01,345.61-106.27,527.94-188.73c182.32-82.46,351.88-176.44,490.35-271.8
							c224.97-154.93,344.02-296.95,310.69-370.64l0,0c-28.45-62.93-175.65-75.3-386.71-33.39c8.2,12.74,15.99,25.8,23.3,39.06
							c72.71-10.62,112.4-2.96,124.51,23.82c12.97,28.69-11.51,66.76-77.05,119.8c-110.89,89.69-321.8,208.68-564.16,318.29
							s-470.99,189.4-611.57,213.45c-83.14,14.2-127.9,7.45-140.87-21.25c-12.11-26.79,8.36-61.65,64.36-109.24
							C1516.65,1166.52,1511.99,1152.05,1507.83,1137.47z"/>
					</g>
				</g>
				<g class="st14">
					<g>
						<g>
							<path class="st1" d="M2763.02,765.9c-12.22,9.89-25.81,20.21-40.73,30.97c-6.02-16.98-12.82-33.88-20.35-50.57
								c-1.19-2.6-2.39-5.16-3.59-7.73c-4.38-9.45-8.99-18.71-13.8-27.8c-12.92-24.55-27.27-47.95-42.81-70.14
								c-1.87-2.67-3.78-5.3-5.69-7.93c-23.72-32.73-50.22-62.79-79.01-89.91c-53.79-50.74-115.52-91.47-182.11-120.87
								c-162.22-71.74-353.13-76.74-527.46,2.11c-116.37,52.64-209.58,135.5-274.53,235.13c64.44-124.3,169.55-228.64,307.05-290.83
								c174.32-78.82,365.24-73.86,527.42-2.12c66.59,29.44,128.36,70.12,182.15,120.91c28.75,27.12,55.26,57.14,78.97,89.87
								c1.95,2.63,3.82,5.3,5.69,7.97c15.59,22.2,29.9,45.56,42.82,70.1c4.82,9.13,9.42,18.39,13.81,27.8
								c1.24,2.57,2.43,5.13,3.58,7.77C2745.62,715.41,2755.15,740.55,2763.02,765.9z"/>
						</g>
					</g>
				</g>
				<g>
					<g>
						<path class="st0" d="M1586.61,1313.25l-6.19-10.12c-14.26-23.32-27.28-47.92-38.67-73.12c-5.59-12.36-10.84-24.98-15.61-37.52
							c-10-26.18-18.43-53.29-25.03-80.57c-74.7-308.93,81.61-628.36,371.65-759.53c290.04-131.18,633.13-37.6,815.78,222.5
							c16.11,22.95,30.91,47.18,43.99,72.04c6.24,11.8,12.25,24.08,17.85,36.47v0c11.41,25.23,21.29,51.25,29.37,77.32l3.51,11.33
							l-9.22,7.46c-110.89,89.69-321.79,208.68-564.16,318.29s-470.99,189.4-611.57,213.45L1586.61,1313.25z M2145.81,328.44
							c-87.08,0-175.16,18.1-258.64,55.85c-274.74,124.25-422.8,426.81-352.05,719.41c6.25,25.83,14.23,51.51,23.72,76.33
							c4.52,11.89,9.5,23.85,14.79,35.56c9.15,20.23,19.39,40.04,30.52,59.05c137.08-25.7,361.76-104.92,591.29-208.73
							c229.54-103.81,437.39-220.21,547.22-306.18c-6.92-20.89-15.03-41.66-24.19-61.91v0c-5.31-11.74-11-23.37-16.92-34.57
							c-12.4-23.57-26.42-46.52-41.67-68.25C2539.45,423.5,2345.33,328.44,2145.81,328.44z"/>
					</g>
				</g>
				<g class="st15">
					<g>
						<path class="st0" d="M2284.51,1293.85c-185.32,83.09-364.12,145.48-519.24,184.51c-267.5,67.27-464.73,64.95-503.71-21.23
							c-35.37-78.29,67.33-208.81,256.54-349.32c6.4,26.37,14.51,52.58,24.4,78.48c-52.33,42.77-78.1,76.7-69.14,96.49
							c9.13,20.17,53.09,23,121.97,11.23c88.33-15.11,217.67-54.23,367.15-111.57c-3.6,19.47-2.02,37.23,5.05,52.87
							C1996.72,1299.88,2114.72,1317.39,2284.51,1293.85z"/>
					</g>
				</g>
				<g class="st3">
					<g>
						<path class="st4" d="M1626.26,573.42c2.43-3.32,4.89-6.64,7.47-9.93C1631.18,566.78,1628.69,570.07,1626.26,573.42z"/>
					</g>
				</g>
				<g class="st3">
					<g>
						<path class="st4" d="M1642.49,552.27c5.68-7.13,11.56-14.14,17.61-21.02C1654.07,538.14,1648.2,545.14,1642.49,552.27z"/>
					</g>
				</g>
				<g class="st3">
					<g>
						<path class="st4" d="M1698.11,491.36c-6.3,6.09-12.48,12.26-18.5,18.56C1685.63,503.59,1691.81,497.42,1698.11,491.36z"/>
					</g>
				</g>
				<g class="st3">
					<g>
						<path class="st4" d="M1708.19,481.87c6.79-6.27,13.74-12.42,20.84-18.38C1721.93,469.48,1714.98,475.63,1708.19,481.87z"/>
					</g>
				</g>
				<g class="st15">
					<g>
						<path class="st0" d="M2789.22,1015.26c-2.42,26.33-6.43,52.42-12.05,78.14c-7.82,36.13-18.77,71.51-32.62,105.71
							c-60.06,148.37-175.05,274.77-332.4,345.94c-157.7,71.32-328.98,74.06-480.29,20.84c-33.23-11.7-65.5-26.09-96.43-43.05
							c-24.27-13.27-47.69-28.14-70.16-44.48c158.38-39.83,341.44-104.08,530.89-189.76
							C2485.59,1202.93,2654.72,1107.89,2789.22,1015.26z"/>
					</g>
				</g>
				<g class="st15">
					<g>
						<path class="st0" d="M2763.04,765.94c-105.05,84.91-312.54,203.82-560.39,315.92c-247.81,112.1-474.15,189.4-607.31,212.16
							c-13.86-22.64-26.42-46.4-37.62-71.22c-0.52-1.17-1.05-2.3-1.57-3.5c-4.91-10.92-9.47-21.95-13.66-33.03
							c-9.91-25.9-18.01-52.12-24.37-78.47c-0.28-1.09-0.52-2.09-0.77-3.18c-9.26-39.19-14.74-78.67-16.52-117.98
							c-3.46-74.84,6.28-149.04,27.91-219.45c16.11-52.45,38.83-102.76,67.71-149.6c35.93-58.37,81.37-111.38,135.34-156.41
							c-15.59,19.7-29.97,40.24-43.06,61.51c-28.84,46.85-51.56,97.16-67.67,149.6c-21.63,70.41-31.38,144.61-27.91,219.45
							c1.77,39.31,7.25,78.79,16.52,117.98c0.24,1.09,0.48,2.14,0.77,3.18c0.13,0.55,0.28,1.14,0.45,1.78
							c28.47,110.32,144.22,173.57,253,139.72c122.3-38.06,272.29-95.61,431.09-167.44c184.2-83.34,346.13-170.39,460.25-244.5
							C2758,750.27,2760.58,758.08,2763.04,765.94z"/>
					</g>
				</g>
			</g>
		</g>
	</g>
</g>
</svg>
